<svg xmlns="http://www.w3.org/2000/svg" width="40.16" height="40.149" viewBox="0 0 40.16 40.149">
  <g id="key" transform="translate(0 0)">
    <g id="Group_845" data-name="Group 845" transform="translate(26.041 8.471)">
      <g id="Group_844" data-name="Group 844">
        <circle id="Ellipse_42" data-name="Ellipse 42" cx="2.51" cy="2.51" r="2.51" fill="#4a90e2"/>
      </g>
    </g>
    <g id="Group_847" data-name="Group 847" transform="translate(0 0)">
      <g id="Group_846" data-name="Group 846">
        <path id="Path_630" data-name="Path 630" d="M39.727,13.077a22.886,22.886,0,0,0-4.935-7.76A22.358,22.358,0,0,0,27.09.481,6.307,6.307,0,0,0,20.4,1.9l-6.16,6.131a6.277,6.277,0,0,0-1.31,6.959c.323.727.675,1.439,1.051,2.126L.459,30.636A1.569,1.569,0,0,0,0,31.745v6.9a1.569,1.569,0,0,0,1.569,1.569h6.9a1.569,1.569,0,0,0,1.569-1.569V35.824h2.824a1.569,1.569,0,0,0,1.569-1.569V31.431h2.824a1.569,1.569,0,0,0,0-3.137H12.864a1.569,1.569,0,0,0-1.569,1.569v2.824H8.471A1.569,1.569,0,0,0,6.9,34.255v2.824H3.137V32.395L17.049,18.484a1.569,1.569,0,0,0,.232-1.923A25.388,25.388,0,0,1,15.8,13.715a3.122,3.122,0,0,1,.656-3.461l6.16-6.131a3.165,3.165,0,0,1,3.357-.711,19.206,19.206,0,0,1,6.609,4.13,19.737,19.737,0,0,1,4.228,6.683,3.115,3.115,0,0,1-.7,3.348l-6.235,6.205a3.159,3.159,0,0,1-3.452.673,20.362,20.362,0,0,1-2.824-1.441,1.569,1.569,0,0,0-1.641,2.674,23.512,23.512,0,0,0,3.26,1.663A6.287,6.287,0,0,0,32.082,26L38.316,19.8A6.251,6.251,0,0,0,39.727,13.077Z" transform="translate(0 -0.067)" fill="#4a90e2"/>
      </g>
    </g>
  </g>
</svg>
