<svg version="1" xmlns="http://www.w3.org/2000/svg" width="346.667" height="346.667" viewBox="0 0 260.000000 260.000000"><path d="M125.1 1.9c.3 3.5-.1 4.1-2.4 3.7-1.5-.3-2.4.1-2.4 1 0 .7.4 1.1.8.8.4-.2 1 .2 1.2.8.4 1 .6 1 .6 0 .1-1.6 1.8-1.6 1.8.1 0 .8-1.1 1.4-2.6 1.3-2.1-.1-2.5.3-2.3 2 .2 1.7-.2 2.1-2 2-1.8-.1-2.4.5-2.6 2.6-.3 2.1-.9 2.8-2.5 2.8-2 0-2.3.5-2.3 5.2 0 2.8.2 4.6.4 4 .2-.7.8-1.2 1.3-1.2.6 0 .7.5.3 1.2-.4.7-.3.8.4.4.6-.4.9-1.3.6-2.1-.4-.8-1.1-1.2-1.8-.8-.6.4-.5-.1.2-1 1-1.1 2-1.4 3.5-.8 1.2.5 2.8.6 3.5.4.7-.3 2 .1 2.9.9 1 .7 1.4.8 1 .1-1.2-1.9 13.5-1.3 15 .6.6.9 1 1.8.8 2.1-.2.3 1.7.5 4.1.6 3.8 0 4.3-.2 3.8-1.8-.3-1.2 0-1.8 1-1.8 1.9 0 2.1-1.6.4-2.6-.7-.4-.8-.3-.4.4s.2 1.3-.3 1.3c-.6.1-1.5.3-2.1.4-.5.1-1.3.3-1.7.4-.4 0 .2.8 1.3 1.7 1.8 1.4 1.8 1.5-.3.4-1.3-.6-2.3-.8-2.3-.4 0 .3-.6.1-1.3-.5-.8-.6-1.7-.8-2-.4-.4.3-.7.1-.7-.6s1-1 2.6-.7c1.6.3 2.7 0 3.1-1 .3-.7 1-1.1 1.7-.7.7.4.7.1-.1-.9-.7-.8-1-1.8-.6-2.1.3-.4.1-.7-.4-.7-.6 0-1-1.1-.9-2.4.3-2-.1-2.3-2-2-2 .4-2.4 0-2.4-2.1 0-1.5-.5-2.5-1.2-2.4-2.9.4-3.8-.2-3.8-2.6 0-1.8-.5-2.5-2-2.5-1.9 0-2.4-.9-2.1-4 .2-1.3.1-1.3-.8 0-.6.8-1.1 1-1.1.4s-.7-1.1-1.5-1.1c-.9 0-1.5.7-1.4 1.6zm17.3 16.3c-.3.4-1.1.5-1.9.2-1.1-.5-1.2-.9-.2-1.9 1.2-1.3 3.1.1 2.1 1.7z"/><path d="M113 24.4c0 .2.8 1 1.8 1.7 1.5 1.3 1.6 1.2.3-.4s-2.1-2.1-2.1-1.3zM135.3 26.9c0 1.1.5 1.8.9 1.5.4-.3.5-1.1.1-1.9-.7-2.1-1.2-1.9-1 .4zM116.6 27.7c-.6 1.4-.5 1.5.5.6.7-.7 1-1.5.7-1.8-.3-.3-.9.2-1.2 1.2zM147.6 27.5c.4.8.8 1.5 1 1.5.2 0 .4-.7.4-1.5s-.4-1.5-1-1.5c-.5 0-.7.7-.4 1.5zM115.8 38.9c1.3 1 1.3 3.9 0 3.8-7.2-.2-15.8.5-15.3 1.3.3.5.1 1-.4 1-.6 0-1.1.5-1.1 1.1 0 .5.5.7 1.2.3.7-.4.8-.3.4.5-1.1 1.7-2.8.2-2.1-1.8.4-1.2-.1-1.7-1.8-1.8-1.2 0-1.6.1-.9.4 1 .4 1 .8 0 2.1-1 1.2-1 1.4 0 .8.7-.4 1.2-.2 1.2.4 0 .6-1 1.1-2.2 1-1.3-.1-3.8-.2-5.7-.1-3 .1-3.2.3-2 1.8 1 1.1 1 1.4.2.9-.8-.4-1.3-.1-1.3.8s-.9 1.6-2 1.6-2 .6-2 1.2c0 .8-.3.9-.8.3-.4-.6-1.4-1.1-2.4-1.3-1.2-.2-1.6.4-1.4 2.3.3 2.2-.1 2.5-2.7 2.5-2.4 0-2.8.3-2.4 2 .4 1.7 0 2-2.4 2s-2.9.4-2.9 2.5c0 2-.5 2.5-2.5 2.5s-2.5.5-2.5 2.5c0 1.8-.5 2.5-1.8 2.5-1 0-1.9.6-2 1.2 0 .7-.2 2.8-.3 4.5-.2 2.5-.7 3.3-2.1 3.3-1 0-1.8-.4-1.8-1 0-.5.8-.7 1.8-.4 1.4.5 1.5.4.2-.5-1.2-.9-1.3-1.1-.1-1.1.8 0 1.1-.3.8-.6-.9-.9-3.8 1.6-3.6 3 .5 3.8-.2 6.6-1.7 6.6-.8 0-1.2.5-.9 1 .4.6 1.1.7 1.7.4.7-.4.8-.2.4.4-.9 1.5-1.2 1.5-2.9-.2-1.2-1.2-1.4-.8-1.7 3.2-.1 2.6-.3 5.7-.2 6.9 0 1.5-.7 2.3-2.2 2.5-2.1.3-2.1.7-2.4 22.5-.2 15.5.1 22.3.8 22.3.6 0 .9-.4.5-.9-.3-.5-.1-1.2.4-1.6.6-.3 1.5.3 2.1 1.4.9 1.8.8 2-.7 1.4-1.6-.6-1.7-.5-.3 1.1.8 1 1.6 3.3 1.7 5 .5 6.5 1 9.6 1.8 10.4.5.4.5.1.1-.6-.5-.8 0-1.1 1.5-.9 1.9.3 2.3 1 2.3 3.8.1 2.5.5 3.4 1.8 3.4 2.3 0 2.7.6 3 4.9.2 2.9.8 4 2.5 4.7 1.3.5 2.3 1.2 2.2 1.6-.4 2.3.3 3.4 1.8 3.1 1.7-.3 2.8-3.7 1.2-3.9-1.9-.3-2.4-.5-3.7-1.2-.7-.5-1-1.2-.7-1.7.3-.4-.2-1-1-1.4-.8-.3-1.5-1.1-1.4-1.8 0-1 .2-1 .6 0 .7 1.9 2.3.4 2.3-2.3 0-1.9-.4-2.3-1.7-1.8-1.2.5-1.4.3-.8-.7.5-.8.4-1.1-.3-.6-.7.4-1.2-1-1.4-4.1-.3-4.5-.5-4.8-2.8-4.5-1.9.2-2.2 0-1-.8.8-.5 1-1 .4-1-.9 0-1.1-5.9-1-21.3l.1-21.2 2.7.1c1.5.1 2.5-.2 2.3-.6-.6-1 2.1-2.1 2.9-1.3.3.4.6 2.3.6 4.4 0 4.3 1.3 5.7 3.8 3.7 1.5-1.2 1.6-1.1.3.5-.8 1-2 1.6-2.8 1.3-.7-.3-1.3.1-1.3 1 0 .8.6 1.4 1.3 1.3 2.8-.3 3.3.3 3.6 4.8.3 5.6.5 6 2.8 4.2.9-.8 1.4-.9 1-.2-.4.6-.3 1.3.3 1.5.5.1 1 2 1.2 4.1.2 3.8.3 3.9 1.9 1.8 1.4-1.7 1.8-1.8 2.3-.5.3.8.2 1.3-.3 1-.5-.3-1.1 0-1.4.7-.3.8.1 1.4.9 1.4 1.4 0 1.8-1 1.5-3.5-.1-.6.3-1.2.9-1.2.5 0 1 .6 1 1.2 0 .9.4.8 1-.2.7-1.1 1-1.2 1-.2s.4.9 1.6-.2c.8-.9 2-1.4 2.5-1.1.5.4.9.1.9-.5s-.7-1-1.6-.8c-1 .2-1.9-.4-2.1-1.2-.4-1.2-.3-1.2.5-.1.7.9 1.2 1 1.6.2.4-.6 2-1.1 3.7-1.1 2.5 0 2.9-.4 2.9-2.6 0-2 .5-2.5 2.3-2.4 1.2.1 2.4.1 2.7 0 .3-.1 1.3-.3 2.3-.5 2.4-.4 3.2-1.3 2.3-2.2-.4-.4-1.1-.1-1.6.7-.9 1.3-1 1.3-1 0s-.1-1.3-1 0c-.7 1.2-.9 1.1-.8-.6.2-1.4.9-2 2.7-2 1.5-.1 4-.3 5.7-.5 2.7-.3 3-.5 2.1-2.1-.6-.9-.9-1.9-.6-2.2.2-.3 3.4-.6 7-.8 6.4-.2 7.9-1.3 5.4-3.5-.4-.5-.5-.1 0 .7.5.8.5 1.2 0 .8-.4-.4-1.4-.3-2.1.3-.9.7-1.2.6-1-.7.2-1.2 1.3-1.9 3.2-2 1.6-.1 4.8-.3 7.2-.5 3.7-.2 4.6-.8 4.4-3 0-.3.9-.5 2.1-.6 16.6-.6 16.7-.6 16.7-3 0-1.3.5-2.3 1-2.3.6 0 1 .3 1 .8 0 .4.8 1.2 1.8 1.9 1.5.9 1.9.8 1.9-.3 0-.7-.4-1.1-.8-.8-.4.2-1 0-1.4-.6-.4-.6 3-1 9.7-1.1 5.7-.1 13.1-.2 16.5-.2 5-.1 6-.4 5.1-1.4-.7-.9-.7-1.3.1-1.3.7 0 1-.3.8-.8-.3-.4 1.5-.8 3.9-.9 2.4-.1 4.4.2 4.4.6 0 .5-1.5.8-3.2.7-3.4-.1-4.8 2.3-1.8 3.1 1.3.4 1.3.3 0-.6-.8-.5-1.1-1.3-.7-1.7.4-.4 1.6.1 2.7 1.1 1.9 1.7 2 1.7 1.4.2-.3-1-.3-1.7.2-1.5.5.1 1.9-.4 3.2-1.2 1.8-1.2 2.2-2.4 2.2-6.2 0-4.7-.5-5.3-3.7-4.9-.6.1-1.4-.3-1.8-.9-.3-.5 0-1 .7-1 .9-.1.8-.3-.3-1-.8-.5-4.5-1-8.1-1.2-6.3-.2-6.5-.4-5.8-2.4.7-1.8.5-2.2-1.3-2.2-12.9.2-19.8-.5-20.8-2.1-.9-1.4-1-1.4-.6 0 .5 1.4-.2 1.6-3.8 1.5-2.4-.1-4.7-.5-5.2-1-.4-.5-.3-.6.3-.3.6.4 1.9-.2 2.9-1.3s1.3-2 .8-2c-.6 0-1.3.7-1.7 1.5-.3.8-1.2 1.2-2.1.9-.8-.3-1.3-.9-1.1-1.3.3-.4-.4-.7-1.4-.7-1 0-1.7.4-1.4.8.2.4-.4.7-1.3.7-3.9.1-5.2.5-4.7 1.3.3.5 1 .6 1.5.3.5-.4.9-.2.9.3 0 1.6-7.4.8-8.2-.8-.5-1.2-.7-1.2-.7.2-.1 1.6-1.1 1.8-7.4 1.8-4.5 0-7.8.5-8.6 1.2-1.1 1-1.3 1-.7 0 .5-.8-.1-1.2-1.9-1.2-2.1 0-2.6.4-2.3 2.2.3 2.5.9 2.3-10.8 2.9-4.6.3-7.1.8-7.1 1.6s.6.9 1.7.3c1.6-.9 3-.4 3 .9 0 .3-2.1.7-4.8.9-7.4.4-8.5.7-8.8 2.6-.2 1.7-.1 1.7 1.6.1 1.7-1.6 1.8-1.6 1.6.1-.3 1.8-1.6 2.2-8.4 2.6-3.6.2-4 .4-2.3 1.2 2.3 1 2.7 2.1 1.1 3.1-.5.3-1 .2-1-.3 0-.6-.7-1.3-1.6-1.6-1.4-.6-1.5-.4-.4.9.7.9.9 1.5.4 1.4-.5-.1-2.1-.1-3.6 0-2.3.1-2.8.6-2.8 2.6s-.5 2.5-2.5 2.5c-2.4 0-3 1.1-2.6 4.6.2 1.7-2.8 1.2-3.3-.5-.8-3.6-.6-9.1.4-9.1.6 0 .8-.5.5-1-.3-.6-.2-1 .4-1 .5 0 1.1.6 1.3 1.2.3.7.5-.9.6-3.7.2-4.9 1.4-6.7 3.8-5.8.8.3 1.3-.3 1.3-1.4.2-6.1.6-7.3 2.1-7 .8.1 1.8.6 2.2 1.2.7.9 1.2-2.4.9-5.3-.1-.7.9-1.2 2.4-1.2 2 0 2.5-.5 2.5-2.5s.5-2.5 2.5-2.5c2.4 0 3-.9 2.6-3.8-.2-1.5 1.1-1.6 2.5-.2.7.7 1.1.7 1.2-.2.3-4 1-5.2 3.3-5.4 7.8-.6 8.8-.9 7.9-1.8-1.4-1.4-1.2-2.3.5-2.3.8 0 1.5.6 1.5 1.4 0 .7.4 1.3 1 1.3.5 0 .7-.7.4-1.5-.5-1.2.2-1.5 3.1-1.5s3.6-.3 3.2-1.5c-.7-1.8.9-3 1.9-1.4.5.8.3.9-.7.4-1.2-.8-1.2-.6 0 .8.7.9 1.9 1.7 2.5 1.7.7 0 .7-.3.1-.8-.5-.4-1.1-1.5-1.3-2.5-.3-1.5.7-1.7 7.8-1.7 4.6 0 8.1-.4 8.1-1 .1-.6.3-1.5.4-2 .1-.6.3-1.3.4-1.6 0-.4.7-.2 1.4.5 1 .8 1.7.7 2.6-.2 1-.9 1.1-.9.6.4-.4 1 0 1.6 1 1.6.9 0 1.4-.5 1.2-1.1-.3-.8 1.5-1.2 5.2-1.2 4.6 0 5.7.3 5.7 1.6 0 .9-.6 1.7-1.2 1.7-.7 0-1-.5-.8-1.2.3-.6-.5-1.1-1.6-1.2-1.1-.1-1.8.2-1.5.7 1 1.6-1.3 2-2.9.4-1.6-1.6-2.2-.8-.8 1.1.9 1.2 11.4 1.6 10.6.4-.3-.5 0-.9.5-.9.6 0 1.1.4 1.1 1 0 1.1 13 1.4 16.7.4 1.5-.4 2-1.1 1.6-2.2-.5-1.4-.3-1.4.9.1 1.3 1.8 1.4 1.8 1.4 0 0-1.2-.8-1.9-2.1-2-8-.4-10.7-.7-11.1-1.5-.3-.4-1.1-.5-1.7-.1-.7.4-.7.1.1-.9.8-.9 2-1.4 2.9-1.1 1.2.5 1.2.7.1 1.4-.9.6-.9.9-.1.9 2.6 0 2.3-3.2-.3-3.7-.6-.1-5.5-.3-10.8-.4-5.6-.1-9.6-.6-9.6-1.1 0-.6-.7-.5-1.5.2-1.7 1.4-2.8.8-3.1-1.5-.2-1.6 1.7-1.6 2.8 0 .5.6.8.4.8-.5 0-1.3.1-1.3 1 0 .8 1.3 1 1.3 1 .1 0-1.1.4-1 1.3.4.9 1.1 1.6 1.4 2.1.7.3-.6.1-1.4-.6-1.8-1.4-.9-24.2-1.3-23-.5zm4.9 1.4c-.1.5.4 1.2 1.1 1.4.6.3 1-.1.9-.9-.2-.7-.2-.9.1-.5.2.4.9.3 1.6-.2.8-.7 1.2-.5 1.2.7 0 1.3-.8 1.8-3.1 1.7-3.3 0-5.8-1.2-5.1-2.4.7-1.1 3.5-.9 3.3.2zm8 .7c-.1 1.2-.5 1.6-1 1.1s-.6-1.4-.3-2c1.1-1.6 1.5-1.3 1.3.9zM82 57.6c0 .2-.9 0-2-.6s-2-1.3-2-1.6c0-.2.9 0 2 .6s2 1.3 2 1.6zm60.4 22.5c1-1.5 2.6-1.4 2.6.3 0 1.8-4.2 1.5-4.7-.4-.4-1.2-.3-1.2.5-.1.7.9 1.2 1 1.6.2zm34 4.2c.4-.4.4.1 0 1.2-.5 1.1-.9 1.4-1.2.7-.2-.7-.7-1-1.1-.8-.4.3-.8-.1-.8-.9 0-1 .4-1.2 1.2-.5.7.5 1.5.7 1.9.3zm13.1 5.5c-.3.3-1.1 0-1.8-.7-.9-1-.8-1.1.6-.5 1 .3 1.5.9 1.2 1.2zm-129.1 7c.3.5-.1.9-.9.9s-1.2-.4-.9-.9c.3-.4.7-.8.9-.8.2 0 .6.4.9.8zm113.1 6c-.3.3-1.1 0-1.8-.7-.9-1-.8-1.1.6-.5 1 .3 1.5.9 1.2 1.2zm9.2.1c0 1.1-1 1.7-2.3 1.7-1.3 0-2-.4-1.8-.8.8-1.2-1.1-.9-2.4.4-1.5 1.5-1.6.1-.1-1.5 1.9-2 6.8-1.8 6.6.2zm-13.9 1.6c-.3.3-.9-.2-1.2-1.2-.6-1.4-.5-1.5.5-.6.7.7 1 1.5.7 1.8zM46 104c0 .5-.4 1-1 1-.5 0-1-.5-1-1 0-.6.5-1 1-1 .6 0 1 .4 1 1zm100.8 3.3c.8 1 .5 1.3-1.6 1.4-1.5 0-1.9-.1-.9-.4.9-.2 1.5-.9 1.2-1.4-.9-1.4.1-1.1 1.3.4zm-90.4.5c.3.5-.1.9-.9.9s-1.2-.4-.9-.9c.3-.4.7-.8.9-.8.2 0 .6.4.9.8zm1.6 4.3c0 1.4-2.4 2.3-2.8 1.1-.2-.7-.8-1-1.3-.6-.5.3-.9.1-.9-.4s1.1-1 2.5-1 2.5.4 2.5.9zM52 160c0 .5-.2 1-.4 1-.3 0-.8-.5-1.1-1-.3-.6-.1-1 .4-1 .6 0 1.1.4 1.1 1z"/><path d="M179.6 103.2c.3.5 1 .6 1.5.3 1.3-.9 1.1-1.2-.6-1.2-.8 0-1.2.4-.9.9zM111.5 40.1c-.4.6-.4 1.3-.1 1.6.3.4.6.1.6-.5 0-.7.5-1.2 1.1-1.2.5 0 .7.5.3 1.2-.4.7-.3.8.5.4 1.2-.8.6-2.6-.9-2.6-.5 0-1.2.5-1.5 1.1zM141.5 39.9c-.3.5-.2 1.2.3 1.5.5.3.9-.1.9-.9 0-1.7-.3-1.9-1.2-.6zM126.3 50.9c-.1 1 .6 1.7 1.8 1.7 2.4 0 2.4-.8.1-2.2-1.4-.9-1.8-.8-1.9.5zM131 52.2c0 .4.7.8 1.5.8s1.5-.4 1.5-.8c0-.5-.7-.9-1.5-.9s-1.5.4-1.5.9zM164.7 52.8c-1 .2-1.7 1.3-1.7 2.6 0 2 .6 2.3 4.7 2.5 5.4.2 6.4.7 5.7 2.5-.3.9.7 1.2 3.6 1.2 2.2-.1 4-.4 4-.9V59c0-.6-.4-1-1-1-.5 0-1 .8-1 1.7 0 1.5-.2 1.6-.9.3-.6-.8-.7-1.8-.4-2.4.3-.5.1-.6-.6-.2-.6.4-.9 1.1-.6 1.6.3.5 0 1.2-.6 1.6-.7.4-.9.3-.5-.4.3-.6-.1-1.5-1-2-1.1-.6-1.5-1.7-1.2-3 .5-1.7 0-2.1-3.1-2.4-2-.2-4.4-.2-5.4 0zm2.7 2.7c.3.8.1 1.5-.4 1.5-.6 0-1-.7-1-1.5s.2-1.5.4-1.5.6.7 1 1.5z"/><path d="M174.7 55.4c-.4 1-.1 1.3.9.9 1.5-.6 1.9-2.3.5-2.3-.5 0-1.1.7-1.4 1.4zM159.5 57c-.3.6.1.7.9.4 1.8-.7 2.1-1.4.7-1.4-.6 0-1.3.4-1.6 1zM182.5 64.4c.2 2.2 3.1 3.1 3.9 1.1.3-1 0-1.2-1.2-.8-1.4.6-1.5.4-.5-.8 1-1.2.9-1.5-.6-1.5-1.1 0-1.7.7-1.6 2zM208.2 64c-1.8 2.9-1.5 3.8.4 1.2.9-1.3 1.4-2.5 1.2-2.7-.2-.2-.9.5-1.6 1.5zM87.3 65.1c-.1.9.5 1.6 1.2 1.5 1.9-.3 3.2-1.6 1.6-1.6-.7 0-1-.4-.7-.8.3-.5-.1-.9-.7-.9-.7 0-1.4.8-1.4 1.8zM208.7 67.4c-.4.9-1.1 1.4-1.7 1.1-.6-.4-.7.1-.3 1.1.5 1.4.7 1.4 1.5.1.4-.9 1.7-1.4 2.8-1.2 1.1.2 2-.1 2-.7 0-.5-.6-.8-1.4-.5-.8.3-1.6.1-1.9-.6-.2-.6-.6-.3-1 .7zM209 71.1c0 .5.5.7 1 .4.6-.3 1-.8 1-1.1 0-.2-.4-.4-1-.4-.5 0-1 .5-1 1.1zM213.4 73c.5 2.4.4 2.4-.9.6-1.4-1.9-1.5-1.9-1.5.7 0 2.9 1.8 3.5 3.9 1.4 1-1 1.1-.9.6.5-.4 1-.3 1.8.1 1.8.5 0 .8 1.9.7 4.2-.1 5.3.5 6.5 2.2 4.1 1.3-1.7 1.4-1.6.8.4-.3 1.4-.1 2.3.6 2.3s1.1 2 1.1 5c0 2.7.5 5 1 5 .6 0 1 .5 1 1.1 0 .5-.4.7-1 .4-.5-.3-1-.2-1 .3 0 .6.7 1.2 1.5 1.6.8.3 1.2 1.2.9 2.1-.3.8-.2 1.5.4 1.5 1.1 0 1.1-1.8-.1-3.8-.5-.7-.3-1.2.7-1.2 1.2 0 1.5 3.1 1.6 20.6 0 16.5-.2 20.4-1.2 19.8-1-.6-1-.4-.2.7 1.6 2.2 1.6 6.9 0 6.9-2.1 0-2.8-2.8-.9-3.8 1.4-.8 1.3-1-.1-1.5-1-.4-1.5-.3-1.1.3.3.6.1 1-.4 1-1.2 0-1 2.8.3 4.9.6 1 .5 1.2-.2.7-1.1-.7-1.4 1.8-1.5 10.5 0 .9-.6 1.6-1.4 1.6-.9 0-1.1-.7-.7-2.1.4-1.5.3-1.7-.4-.7-.8 1.1-1 1.1-1.5 0-.2-.8-.4-.3-.4 1.1 0 1.4-.1 4.7-.3 7.3-.3 4.1-.6 4.7-2.4 4.5-1.7-.2-2.2.3-2.4 3-.3 2.8-.7 3.2-2.7 2.8-2.3-.4-2.9 1.4-1 3.1.4.4.5.2 0-.6-.6-1-.4-1.2.5-.6s1.1.4.5-.6c-.5-.8-.4-1 0-.6 1.7 1.5 1.3 3.6-.6 3.2-1-.2-1.9.1-1.9.6 0 .6-.4.8-.9.5-.5-.3-1.1.1-1.4.9-.4.9-.1 1.2.9.8.7-.3 1.4 0 1.4.6s-.9 1.1-2 1.1c-1.5 0-2 .7-2 2.5 0 2-.5 2.5-2.5 2.5s-2.5.5-2.5 2.5-.5 2.5-2.5 2.5c-1.6 0-2.5.6-2.5 1.6 0 .9-.5 1.2-1.2.8-1-.6-1-.5-.1.8 1.1 1.3.9 1.5-1.5 1.6-5 .3-6.5.9-6.8 2.5-.1 1 .3 1.4 1.2 1 .8-.3 1.4-.9 1.4-1.4 0-.5.4-.9 1-.9 1.2 0 .9 2.2-.5 3.2-.5.4-2.5.8-4.2.8-2.6 0-3.3.4-3.3 1.9s-.8 1.9-3.5 2c-7.5.3-7.6.4-4.3 3 1.7 1.4 1.8 1.8.5 1.8-.9 0-1.4-.4-1.1-.9.7-1.1-1-1-2.2.2-.6.6-3.7 1.1-7 1.3-4.7.2-5.9.5-5.9 1.9 0 2.5-.5 2.7-8.8 2.9-7.3.2-7.7.3-7.2 2.3.3 1.2.2 1.5-.1.8-.3-.6-1-1-1.5-.7-.5.4-.6 0-.4-.7.4-1-.2-1.4-1.9-1.4-1.4 0-2.2.4-2 .8.3.4 0 .8-.6.8s-.8.5-.5 1.1c.5.6 1.2.4 2.2-.8 1.3-1.7 1.4-1.7.4.2-.8 1.7-2 2-8.5 2-4.1.1-7.4-.2-7.4-.5.2-1.8-.4-2.3-1.2-1-.5.8-1.2 1.1-1.7.7-1.5-1.6 2.1-2.6 3.8-1.1 1.1 1 1.9 1.2 2.3.5.5-.7 1.3-.7 2.7.2 1.6 1 2.2.9 3-.3.8-1.1 1.2-1.2 1.6-.3.7 1.9 1.9 1.6 2-.5.1-1.5-.6-1.9-3.7-1.8-2.1.1-4.2.4-4.6.9-1 1-2.6.9-2-.1.3-.5-.9-.9-2.7-.9-15-.2-20.6-.6-20-1.7.4-.6-.2-.4-1.2.4-1.5 1.2-1.7 1.2-1 .1.6-1.1.4-1.3-1.1-.8-1.8.7-1.8.6-.1-.7.9-.7 1.7-1.6 1.7-2 0-1.1-2.4-.2-3.7 1.4-1.1 1.3-1.2 1.2-.6-.4.6-1.7.2-1.9-3.5-1.3-4.4.5-5.9-.4-5.4-3.6.3-1.3-.4-1.7-2.7-1.7-2.7 0-3.1.4-3.1 2.6 0 2.1.4 2.5 2 2.1 2.1-.5 3.4.7 3.5 3.3 0 1.5.4 1.7 5.4 1.9 1.9.1 3 .7 3.4 2.1.3 1 0 2.1-.7 2.3-.6.2 1.2.5 3.9.6 9.8.5 10.8.7 11 2.2.2.9-.3 1.6-1.1 1.6-.7 0-1-.5-.7-1 .4-.6.1-.7-.7-.2-.9.6-1.1.4-.5-.6.5-.8.4-1 0-.6-1.6 1.4-1.3 3.4.4 3.4 3.8 0 4.2.3 3.6 2.5-.5 2.1-.5 2.1.9-.2.9-1.4 1.6-1.9 1.7-1.3.1.7.3 1.7.4 2.3.1.5.3 2.1.4 3.5 0 1.4.4 2.4.9 2.4 3-.5 4.2.3 4.2 3 0 2.4.3 2.8 2.3 2.4 2.4-.5 2.9.9 2.8 8.2 0 1.5.2 1.6.9.6.4-.8.6-2 .3-2.8-.3-.7 0-1.3.6-1.3s1.1.5 1.1 1.1c0 .5.4.8.8.5.7-.4 1 .5 1.5 5.9.1 1.2 1.1 2.1 2.5 2.3 1.2.2 2.2 0 2.1-.5-.5-2.7.3-4.3 2-4.3 1.4 0 2.1-.8 2.3-2.7.2-2.3.7-2.7 2.6-2.5 1.9.3 2.2-.1 2.3-3.5.1-2.1.1-4.4 0-5.1-.2-1.4 2.5-1.6 3.4-.2.3.5 0 .7-.9.4-1.6-.6-1.7 1.9-.1 3.3.4.4.5.3.2-.3-.4-.7 0-1.5.8-1.8.8-.3 1.5-.9 1.4-1.3-.1-.4-.1-2.1 0-3.6.1-2.3.5-2.8 2.4-2.5 1.6.2 2.3-.3 2.5-1.9.2-1.3.8-2.3 1.3-2.3.6 0 .7 1 .4 2.2l-.7 2.3 1.7-2.3c1.4-1.9 2.5-2.2 9.3-2.2 5.3 0 7.2-.3 6.2-1-1-.6-1.1-1-.3-1 .7 0 1.2-.6 1-1.3-.1-.7.9-1.3 2.3-1.3 11.8-.7 13.5-1.3 11.1-3.7-.9-.9-1.1-.7-.6.8.6 1.6.5 1.7-.4.5s-1.1-1.3-1.1-.1c0 .8-.2 1.2-.5.9-1.5-1.4.9-3.5 4.2-3.6 4-.2 4.8-.6 4.8-3 0-1.7.5-1.9 6.3-2.1 2-.1 3.2-.6 3.1-1.3-.4-2.9.2-3.8 2.6-3.8 1.8 0 2.5-.5 2.5-2 0-1.4.7-2 2.4-2 2 0 2.2-.4 1.8-2.6-.3-1.8-.1-2.5.9-2.4 3 .5 3.9-.1 3.9-2.5 0-2 .5-2.5 2.6-2.5 1.9 0 2.5-.4 2-1.5-.7-2 2.1-4.6 4.1-3.8 1.5.6 1.6.5.3-.9-1.1-1.1-1.7-1.3-2.3-.4-.6.7-.7.4-.3-.7.3-1 .6-2.1.6-2.5 0-.3.7.3 1.5 1.4.8 1 1.5 1.4 1.4.9-.1-.6-.1-2.2 0-3.8.1-2.2.6-2.7 2.6-2.7 2.6 0 3-1.5 2.5-7.8-.1-1.6.4-2.2 1.9-2.2 1.8 0 2.1-.6 2.2-4.8.1-8.6 1-12.4 2.5-10.9.4.4.1 1.3-.6 2.2-1.5 1.8-.4 2 1.3.2.7-.6 1.3-3.4 1.4-6.1.2-3 1-5.7 2-7 1.7-1.9 1.7-2 .1-.7-1.6 1.2-1.8 1.1-1.8-.3 0-1.1 1-1.6 3-1.7 1.7-.1 3.5-.3 4-.4.6-.1 1.6-.3 2.3-.4.7-.1.4-.6-.7-1.2-1.4-.9-2-.8-2.7.2-.6 1-.8.8-.7-.7.2-1.9 2.8-3.1 2.8-1.2 0 .4.5.8 1.1.8.5 0 .7-.5.4-1-.4-.6.7-1 2.5-1 2.4 0 3-.4 2.8-1.8-.2-1.2.5-1.8 2.3-2 2.2-.3 2.5-.7 2.1-2.9-.4-2.4-.3-2.5 2.2-1.9 2.4.6 2.6.4 2.6-2.4 0-2.5-.4-3-2.5-3-2.3 0-3.1-1.3-2.6-4.3.1-.5-.9-.7-2.1-.5-1.8.2-2.3-.2-2.3-2.2 0-1.9-.6-2.5-2.2-2.6-1.3-.1-2.6-.3-3-.4-.5-.1-1.6-.1-2.6 0-1.3.1-1.7-.4-1.5-1.7.2-1.3-.4-1.9-2.4-2.1-2.2-.3-2.8-.9-2.8-2.8 0-2.3-.9-2.8-3.7-2.5-.9.1-1.3-1.4-1.3-4.9 0-4.9-.1-5-2.7-4.6-1.9.4-2.3.2-1.5-.6.6-.6.9-2.5.6-4.2-1-5.4-1.1-5.6-3.6-4.7-2.2.8-2.3.7-2.1-4.5.2-5.1.1-5.4-2.2-5.4-1.4 0-2.4-.3-2.4-.8.4-2.1-.2-4.2-1-3.8-.5.4-1.2 0-1.5-.6-.4-.7-.4-.2-.2 1.2zM225 98c.8.5 1.1 1 .5 1-.5 0-1.7-.5-2.5-1s-1-1-.5-1c.6 0 1.7.5 2.5 1zm23.6 19.7c-.2 1.4-.9 1.7-2.8 1.1-1.5-.5-.3-2.5 1.5-2.5.8 0 1.4.6 1.3 1.4zM195.5 212c-.3.5-1.2 1-1.8 1-.7 0-.6-.4.3-1 1.9-1.2 2.3-1.2 1.5 0zm-36.5 5.9c0 .8-2.2 3.1-3 3.1-.3 0-.6-.8-.7-1.8-.1-1.1.6-1.8 1.8-1.9 1-.1 1.9.2 1.9.6zm-45.1 4.4c-.2.2-1.1.8-2 1.5-1.2.9-1.6.9-1.6-.1 0-.7.9-1.4 2-1.4 1.1-.1 1.8-.1 1.6 0zm12.5.9c-.3.4-1.1.5-1.9.1-2.1-.7-1.9-1.2.4-1 1.1 0 1.8.5 1.5.9zm16.6-.8c0 .2-.8 1-1.7 1.7-1.6 1.3-1.7 1.2-.4-.4 1.3-1.6 2.1-2.1 2.1-1.3zM95 224c0 .5-.2 1-.4 1-.3 0-.8-.5-1.1-1-.3-.6-.1-1 .4-1 .6 0 1.1.4 1.1 1zm19 13.6c0 .8-1.9 1.3-2.4.6-.3-.5.1-.9.9-.9s1.5.2 1.5.3zm14.3 19.9c-.7 2.1-1.2 1.9-1-.4 0-1.1.5-1.8.9-1.5.4.3.5 1.1.1 1.9zM125.5 78c.3.5.8 1 1.1 1 .2 0 .4-.5.4-1 0-.6-.5-1-1.1-1-.5 0-.7.4-.4 1zM134.3 78.5c-.3.9-.3 1.8-.1 2.1.3.3.8-.4 1.1-1.6.6-2.3-.1-2.7-1-.5zM151.6 78.6c-.4.9-.4 1.9-.1 2.2.3.3.5 0 .5-.7s.4-.9 1-.6c.6.3.7-.1.4-.9-.8-2-1-2-1.8 0zM106.4 83.7c.2.9.8 1.8 1.5 1.9.6.1.7 0 .1-.3-.5-.2-.8-.9-.5-1.3.3-.5.1-1.1-.4-1.4-.5-.4-.8.2-.7 1.1z"/><path d="M222.9 82.2c-.8 2.8-.5 3.5 1.5 3 1.8-.5 1.8-.7.3-1-.9-.2-1.5-.8-1.2-1.3.4-.5.4-.9.1-.9-.3 0-.6.1-.7.2zM69.5 86c-.3.5-.1 1 .4 1 .6 0 1.1-.5 1.1-1 0-.6-.2-1-.4-1-.3 0-.8.4-1.1 1zM228 92c-1.3.8-1.2 1 .3 1 .9 0 1.7-.5 1.7-1 0-1.2-.1-1.2-2 0zM44 97c-.9.6-1 1-.3 1 .6 0 1.5-.5 1.8-1 .8-1.2.4-1.2-1.5 0zM195.3 103.5c-.3.9-.3 1.8-.1 2.1.3.3.8-.4 1.1-1.6.6-2.3-.1-2.7-1-.5zM24.4 107.1c-.3.5-.3.9.1.9.3 0 .1.9-.5 1.9-.6 1.3-1.7 1.7-3 1.4-1.5-.4-2 0-2 1.5s-.7 2.2-2.7 2.4c-2.3.2-2.7.7-2.5 2.8.3 2.4.3 2.4-1.1.6-1.1-1.5-1.6-1.6-2.2-.6-.5.9-.4 1.1.3.6.7-.4 1.2-.3 1.2.2 0 1.3-2.5 2.2-5 1.7-1.3-.3-2 .1-2 1.2 0 1.3.3 1.3 1.8.3.9-.7.5-.1-1.1 1.3-1.5 1.5-3.3 2.4-4 2.1-.8-.3-1.3.5-1.5 2.1-.1 1.4.2 2.4.6 2.4 2.9-.5 4.2.3 4.2 2.6 0 2.1.5 2.5 3.1 2.5 1.6 0 2.8.4 2.5.8-1 1.6 1.1 3.1 4.7 3.4 3.7.2 4.7 1.1 2.6 2.4-1.5.9.9 2.4 3.9 2.4 1.3 0 2.2.6 2.1 1.2-.4 3 .2 3.8 2.6 3.8h2.6l-.2-11c-.2-8.4-.6-11-1.6-11-.7 0-1.2.5-1 1.1.1.6-.5 1.4-1.3 1.6-.9.3-1.1.1-.5-.4 1.6-1.3 1.9-4.6.3-3.7-.7.4-.5-.2.5-1.3s1.5-2.7 1.1-3.7c-.3-.9-.1-1.6.6-1.6.6 0 .9.4.5.9-.3.5-.2 1.2.2 1.4.5.3.9-1.9 1-4.9.1-5.1-.3-5.9-2.9-5.5-1 .1-1-1.3-.1-2.2.3-.4 1.2-.2 1.9.4.9.7 1.2.6 1-.7-.3-1.9-3.2-2.8-4.2-1.3zm2.6 8.4c.7.9.8 1.5.2 1.5-.5 0-1.2-.7-1.6-1.5-.3-.8-.4-1.5-.2-1.5s.9.7 1.6 1.5zm.2 17c-.8 1.6-.9 1.6-1.5.1-.4-1-.3-1.5.3-1.1.6.3 1 .1 1-.6s.3-1 .6-.6c.3.3.2 1.3-.4 2.2zm-14.5 4.7c-.3.8-.6.5-.6-.6-.1-1.1.2-1.7.5-1.3.3.3.4 1.2.1 1.9zm14.8.8c.3.6-.1.7-.9.4-1.8-.7-2.1-1.4-.7-1.4.6 0 1.3.4 1.6 1zM150.6 109.8c-.3.5.1.9.9.9s1.2-.4.9-.9c-.3-.4-.7-.8-.9-.8-.2 0-.6.4-.9.8zM179 112.2c0 .6.7.7 1.6.4.9-.4 1.4-.1 1.2.6-.5 1.3-2.2 1.7-8.9 1.9-4.3.2-4.7.4-4.4 2.6.2 2-.2 2.3-3.6 2.4-6 .2-6.2.3-6.5 2.2-.2 1.4.1 1.5 1 .8.7-.6 1.7-.7 2.1-.3.5.4.5.1.1-.6-.4-.6-.2-1.2.3-1.2 1.3 0 1.4 1 .1 3-.8 1.3-1 1.3-1 0 0-1.1-.3-1.1-1.2-.2-.7.7-2.2 1.2-3.5 1.2-1.3 0-2.2.3-2.2.7.4 2.6-.3 4.5-1.4 4-1.6-.6-2.6 0-4.7 2.7-.9 1.2-1 1.7-.2 1.2.6-.4 1.2-.2 1.2.3 0 .6-1.1 1.1-2.5 1.1-2.2 0-3 .9-2.6 3.3 0 .4-.2.6-.6.6-2.9-.5-4.3.3-4.3 2.5 0 1.8-.5 2.3-2.2 2.2-1.8-.1-2.4.5-2.6 2.6-.2 2-.9 2.8-2.3 2.8s-1.9.7-1.9 2.5c0 1.4-.4 2.5-1 2.5-.5 0-1 .5-1 1.1 0 .5.5.7 1.2.3.7-.5.8-.3.3.6-.6 1-1.1 1-2-.3-1.5-2.1-2.5-2.2-2.5-.2 0 .8.6 1.5 1.3 1.5.8 0 .9.2.1.8-.7.4-1.3 1.6-1.5 2.7-.3 1.2-1.4 2.1-2.7 2.3-1.7.3-2.2 1-2.2 3.3 0 2.6-.3 2.9-2.4 2.5-2.5-.4-2.8.6-1.2 3.3.6 1 .5 1.2-.2.7-.8-.5-1.2.4-1.2 2.7 0 2.8-.3 3.3-2.2 3.3-1.7-.1-2.3.5-2.4 2.1-.1 1.3.3 2.3.8 2.3.6 0 .8-.7.5-1.5-.4-.8-.2-1.7.2-1.9.5-.3.8.7.9 2.2 0 4.7.2 5.3 1.1 4.7.6-.3 1.9.5 3.1 1.7 1.6 1.7 1.9 1.8 1.5.5-.4-1-.2-1.7.4-1.7.6 0 1.1 1.1 1.1 2.5 0 2 .5 2.5 2.5 2.5s2.5.5 2.5 2.4c0 2.1.5 2.4 4.3 2.7 7.5.7 9.7.1 9.7-2.7 0-1.9.5-2.4 2.5-2.4s2.5-.5 2.5-2.5.5-2.5 2.5-2.5c1.8 0 2.5-.5 2.5-2s.7-2 2.5-2c2 0 2.5-.5 2.5-2.5 0-1.8.5-2.5 2-2.5s2-.7 2-2.5c0-2.4.9-3 3.8-2.6.7.1 1.2-.9 1.2-2.4 0-1.8.5-2.5 1.9-2.5 2.5 0 3-.8 3.3-5.2.2-3.4 2.2-4.8 3.2-2.2.3.8 0 1.1-1 .7-.7-.3-1.4-.1-1.4.5 0 1.4 3.5.8 3.6-.6.1-.7.2-2.8.3-4.8.1-3 .4-3.4 1.5-2.5 2 1.7 3.7-.9 3.8-5.7 0-2.5.5-3.9 1.4-3.9.7 0 1 .5.6 1.1-1.1 1.8-1 3.3.2 3.3.6 0 1.2-2 1.4-4.6.2-4.2 1.6-6.6 3.3-5.5 1.3.7 1.8-1.1 2-6.5.1-2.8.8-5.6 1.6-6.2.7-.6 1.3-1 1.4-.8.6 3.1.6 3.9-.1 3.9-.5 0-1.1-.5-1.3-1-.3-.6-.4-.5-.3.2.1.7 1 1.4 1.8 1.6 1.3.2 1.6-.6 1.4-4.3-.1-2.6.1-4.8.4-5 .3-.2.5-2.3.4-4.7l-.1-4.3-6.6-.1c-3.9-.1-6.7.3-6.7.8zm-8 5.9c0 .5.5.7 1.2.3.7-.4.8-.3.4.5-.6.9-1.1.9-2.2 0-1.7-1.4-1.8-1.9-.4-1.9.6 0 1 .5 1 1.1zm14.4 18.5c.3.8.2 1.2-.4.9-.6-.3-1-1-1-1.6 0-1.4.7-1.1 1.4.7zm-20.3 29.1c1.3 1.6 1.2 1.7-.3.4-1.7-1.3-2.2-2.1-1.4-2.1.2 0 1 .8 1.7 1.7zm-45.4 5.8c0 .8-.4 1.2-.9.9-.5-.3-.6-1-.3-1.5.9-1.3 1.2-1.1 1.2.6zm-4.7 12c0 .8-.4 1.5-1 1.5-.5 0-.7-.7-.4-1.5.4-.8.8-1.5 1-1.5.2 0 .4.7.4 1.5zm13.7 9.1c-.3.3-1.2.4-1.9.1-.8-.3-.5-.6.6-.6 1.1-.1 1.7.2 1.3.5zM193.3 112.9c-.1 1 .6 1.7 1.7 1.8 1.2.1 1.8-.5 1.7-1.6-.1-2.2-3.2-2.5-3.4-.2zM131.6 113.8c-.3.5.1.9.9.9s1.5-.4 1.5-.9c0-.4-.4-.8-.9-.8-.6 0-1.2.4-1.5.8zM107 122c0 .6.4.9.9.6.5-.4 1.2-.1 1.4.4.3.6.4.5.3-.2-.3-1.5-2.6-2.3-2.6-.8z"/><path d="M26.7 123.6c-.8.8.1 2.4 1.2 2.4.4 0 .8-.7.8-1.5 0-1.6-.9-2-2-.9zM141.5 136.1c-.4.6-.5 1.2-.2 1.5.2.3.7-.2 1-1.1.7-1.7.1-2-.8-.4zM222.5 140c-.3.6.1.7.9.4 1.8-.7 2.1-1.4.7-1.4-.6 0-1.3.4-1.6 1zM78.6 142.8c-.2.4.4.8 1.4.8 1 0 1.6-.4 1.4-.8-.3-.4-.9-.8-1.4-.8-.5 0-1.1.4-1.4.8zM223.5 147c.3.5.8 1 1.1 1 .2 0 .4-.5.4-1 0-.6-.5-1-1.1-1-.5 0-.7.4-.4 1zM43.2 148.4c.1 1 .8 1.7 1.3 1.7 1.5-.1 1.2-2.4-.3-2.9-.9-.3-1.3.2-1 1.2zM55.4 150.1c-.3.6-.2 1.5.4 2.1.6.6 1.2.6 1.7-.3.6-.8.4-1-.5-.4-1 .6-1.2.4-.7-.8.7-1.9.2-2.3-.9-.6zM54.6 155.4c.8 2.2 3.6 3 3.2.9-.2-1-1.1-1.9-2.1-2.1-1.2-.2-1.5.1-1.1 1.2zM121.1 160.6c0 1.1.3 1.4.6.6.3-.7.2-1.6-.1-1.9-.3-.4-.6.2-.5 1.3zM233.5 162c-.3.5-.1 1 .4 1 .6 0 1.1-.5 1.1-1 0-.6-.2-1-.4-1-.3 0-.8.4-1.1 1zM214 168.8c0 .6-.8.9-1.7.6-1.5-.5-1.6-.4-.3.5 1.6 1.1 4-.3 2.7-1.6-.4-.3-.7-.1-.7.5zM64 176c-.9.6-1 1-.3 1 .6 0 1.5-.5 1.8-1 .8-1.2.4-1.2-1.5 0zM67.4 184.2c-.4.7-.4 1 .1.6.4-.4 1.5-.2 2.4.5 1.4 1.1 1.4 1 .2-.6-1.6-2-1.8-2.1-2.7-.5zM145.5 188.9c-.3.5-.2 1.2.3 1.5.5.3.9-.1.9-.9 0-1.7-.3-1.9-1.2-.6zM63.6 204.6c-.8 2-.8 2.4.2 2.4.4 0 .8-.9.9-2 .2-2.4-.3-2.6-1.1-.4zM68.1 207.3c-1.3 1.9-1.2 2.1.1 1 1.5-1.3 2.8-.8 2.8.9 0 .5-.4.7-.9.3-.5-.3-1.2-.2-1.5.3-.3.5 1.4.8 3.6.8 3-.1 4.2-.6 4.3-1.7.2-1.2-.4-1.6-2.6-1.4-1.7.1-3.3-.3-3.7-1.1-.6-1-1.1-.8-2.1.9zm7.5 1.9c.3.4-.1.5-1 .4-.8-.1-1.8-.5-2.2-.8-.3-.4.1-.5 1-.4.8.1 1.8.5 2.2.8zM84.5 212c.4.7.2 1.5-.5 2-.9.5-.8.8.2 1.3 1.7.6 2.2-2.9.6-3.9-.7-.5-.8-.2-.3.6zM99 218c0 .5.5 1 1.1 1 .5 0 .7-.5.4-1-.3-.6-.8-1-1.1-1-.2 0-.4.4-.4 1zM171 228.9c0 .6.4 1.3 1 1.6.6.3.7-.1.4-.9-.7-1.8-1.4-2.1-1.4-.7zM152.5 234c-.3.6.1.7.9.4 1.8-.7 2.1-1.4.7-1.4-.6 0-1.3.4-1.6 1z"/></svg>