<?xml version="1.0" encoding="utf-8"?>
<!-- Generator: Adobe Illustrator 21.0.0, SVG Export Plug-In . SVG Version: 6.00 Build 0)  -->
<svg version="1.1" id="Layer_1" xmlns="http://www.w3.org/2000/svg" xmlns:xlink="http://www.w3.org/1999/xlink" x="0px" y="0px"
	 viewBox="0 0 130 37" style="enable-background:new 0 0 130 37;" xml:space="preserve">
<style type="text/css">
	.st0{fill:#b9bfc6;}
	.st1{fill:#b9bfc6;}
</style>
<g>
	<g>
		<path class="st0" d="M1.2,28.6V10.3h3.7v18.3H1.2z"/>
		<path class="st0" d="M8.9,10.3h6.1c5.1,0,6.1,3.5,6.1,8.9c0,6.5-1.4,9.4-6.3,9.4H8.9V10.3z M12.6,25.9h1.6c2.6,0,3.1-1.6,3.1-6.6
			c0-4.2-0.3-6.3-3.2-6.3h-1.6V25.9z"/>
		<path class="st1" d="M33.1,28.6h-2.1v-1.7H31c-0.3,1-1.5,2.1-3,2.1c-3.3,0-4.5-2.9-4.5-7.2c0-2.9,0.5-7.2,4.3-7.2
			c1.2,0,2.5,0.7,3,1.9H31v-6.1h2.2V28.6z M28.3,27.1c2.4,0,2.8-2.3,2.8-5.4c0-2.7-0.5-5.4-2.8-5.4c-2,0-2.5,2.1-2.5,5.4
			S26.3,27.1,28.3,27.1z"/>
		<path class="st1" d="M36.1,10.3h2.2v2.5h-2.2V10.3z M36.1,14.9h2.2v13.8h-2.2V14.9z"/>
		<path class="st1" d="M50.3,27.8c0,4.1-1.9,5.6-4.7,5.6c-0.8,0-4.2,0-4.5-3.4h2.2c0.1,1.3,1.1,1.7,2.2,1.7c2.8,0,2.7-2.1,2.7-3.1
			v-1.8h-0.1c-0.5,1.2-1.7,1.8-3.1,1.8c-4,0-4.3-5.1-4.3-6.9c0-3.7,1-7.2,4.5-7.2c1.5,0,2.7,1,3,2.1h0.1v-1.7h2.1V27.8z M42.9,21.8
			c0,2.2,0.3,5,2.5,5c2.3,0,2.8-2.2,2.8-5c0-2.7-0.5-5.4-2.8-5.4C43.5,16.4,42.9,18.5,42.9,21.8z"/>
		<path class="st1" d="M53.2,10.3h2.2v2.5h-2.2V10.3z M53.2,14.9h2.2v13.8h-2.2V14.9z"/>
		<path class="st1" d="M59.5,10.9h2.2v4H64v1.7h-2.4v8.8c0,1.1,0.3,1.5,1.4,1.5c0.5,0,0.7-0.1,1-0.1v1.8c-0.3,0.1-0.8,0.2-1.7,0.2
			c-2.2,0-2.8-0.9-2.8-2.7v-9.5h-2v-1.7h2V10.9z"/>
		<path class="st1" d="M65.7,19c0-3.1,1.3-4.5,4.6-4.5c4.2,0,4.2,2.5,4.2,4v7.7c0,0.6,0,1.1,0.7,1.1c0.3,0,0.4-0.1,0.5-0.1v1.5
			c-0.2,0-0.7,0.1-1.3,0.1c-0.8,0-1.8,0-2-1.8h-0.1c-0.7,1.2-2,2-3.3,2c-2.6,0-3.8-1.5-3.8-4c0-1.9,0.8-3.3,2.6-3.8l2.9-0.9
			c1.6-0.5,1.6-0.9,1.6-2.1c0-1.3-0.8-2-2.2-2c-2.4,0-2.4,2.2-2.4,2.7V19H65.7z M72.3,21.1c-0.8,0.8-2.7,1-3.7,1.6
			c-0.7,0.4-1.1,1-1.1,2.2c0,1.4,0.5,2.4,2,2.4c1.4,0,2.8-1.2,2.8-2.6V21.1z"/>
		<path class="st1" d="M77.5,10.3h2.2v18.3h-2.2V10.3z"/>
	</g>
	<g>
		<g>
			<polygon class="st1" points="100.2,30.8 112.5,18.5 100.2,6.2 100.2,14.2 104.5,18.5 100.2,22.7 			"/>
			<path class="st1" d="M111.5,0.6h-8.3l17.9,17.9l-17.9,17.9h8.3c10.2,0,17.3-7.8,17.3-17.9v-0.1C128.8,8.3,121.7,0.6,111.5,0.6z"
				/>
		</g>
		<g>
			<polygon class="st0" points="96.3,21.8 96.3,15.2 86.6,5.5 86.6,31.5 			"/>
			<polygon class="st0" points="96.3,10.3 96.3,0.6 86.6,0.6 			"/>
			<polygon class="st0" points="86.6,36.4 86.6,36.4 96.3,36.4 96.3,26.7 			"/>
		</g>
	</g>
</g>
</svg>
