<?xml version="1.0" standalone="no"?>
<!DOCTYPE svg PUBLIC "-//W3C//DTD SVG 1.1//EN" "http://www.w3.org/Graphics/SVG/1.1/DTD/svg11.dtd" >
<svg xmlns="http://www.w3.org/2000/svg">
<metadata>Generated by IcoMoon</metadata>
<defs>
<font id="budicon-classic" horiz-adv-x="1024">
<font-face units-per-em="1024" ascent="960" descent="-64" />
<missing-glyph horiz-adv-x="1024" />
<glyph unicode="&#x20;" horiz-adv-x="512" d="" />
<glyph unicode="&#xe900;" glyph-name="apron" d="M634.88 368.64h-204.8c-33.932 0-61.44-27.508-61.44-61.44v-143.36c0-45.243 36.677-81.92 81.92-81.92h163.84c45.243 0 81.92 36.677 81.92 81.92v143.36c0 33.932-27.508 61.44-61.44 61.44zM655.36 163.84c-0.026-22.611-18.349-40.934-40.958-40.96h-163.842c-22.611 0.026-40.934 18.349-40.96 40.958v143.362c0 11.311 9.169 20.48 20.48 20.48h204.8c11.311 0 20.48-9.169 20.48-20.48zM983.040 583.32c-0.072 62.379-50.621 112.928-112.994 113h-71.326c-11.311 0-20.48-9.169-20.48-20.48s9.169-20.48 20.48-20.48h71.32c39.787 0 72.040-32.254 72.040-72.040s-32.254-72.040-72.040-72.040h-26.759l-7.221 1.446c-56.723 11.644-98.778 61.157-98.779 120.492v104.063c0 113.108-91.692 204.8-204.8 204.8s-204.8-91.692-204.8-204.8v-104.063c-0.001-59.335-42.056-108.848-97.986-120.356l-8.015-1.582h-26.759c-39.787 0-72.040 32.254-72.040 72.040s32.254 72.040 72.040 72.040h71.32c11.311 0 20.48 9.169 20.48 20.48s-9.169 20.48-20.48 20.48h-71.32c-0.167 0.001-0.365 0.001-0.563 0.001-62.099 0-112.439-50.341-112.439-112.439 0-49.438 31.907-91.424 76.251-106.489-21.408-22.31-35.181-52.841-35.29-86.589v-411.284c0-33.932 27.508-61.44 61.44-61.44h696.32c33.932 0 61.44 27.508 61.44 61.44v411.263c-0.108 33.668-13.8 64.117-35.88 86.171 44.908 15.372 76.654 57.137 76.84 106.344zM368.64 633.217v104.063c0 90.486 73.354 163.84 163.84 163.84s163.84-73.354 163.84-163.84v-104.063c0.204-6.837 0.8-13.334 1.771-19.708l-331.109 0.891c0.859 5.483 1.455 11.981 1.653 18.578zM901.12-20.48c0-11.311-9.169-20.48-20.48-20.48h-696.32c-11.311 0-20.48 9.169-20.48 20.48v411.263c0.090 39.529 28.088 72.493 65.331 80.238l7.758 1.539c55.172 11.517 99.478 49.501 119.622 99.775l351.471 1.105c20.534-51.378 64.841-89.362 118.946-100.689l8.321-1.641c37.761-7.849 65.744-40.808 65.831-80.317z" />
<glyph unicode="&#xe901;" glyph-name="bbq" d="M1024 638.374c0.002 0.091 0.003 0.199 0.003 0.307 0 9.212-7.467 16.679-16.679 16.679-0.004 0-0.008 0-0.012 0h-990.629c-0.002 0-0.004 0-0.007 0-9.212 0-16.679-7.467-16.679-16.679 0-0.108 0.001-0.216 0.003-0.323 7.972-209.032 132.914-387.094 310.936-471.257l-103.22-177.042c-1.787-2.978-2.844-6.572-2.844-10.412 0-11.311 9.169-20.48 20.48-20.48 7.366 0 13.825 3.889 17.433 9.726l110.139 181.647c47.34-17.521 102.021-27.658 159.070-27.658s111.73 10.137 162.341 28.707l106.818-182.609c3.629-6.068 10.165-10.068 17.636-10.068 11.311 0 20.48 9.169 20.48 20.48 0 3.944-1.115 7.628-3.047 10.754l-106.478 175.54c181.336 85.565 306.285 263.631 314.227 471.678zM512 163.84c-238.842 0-448.459 203.837-469.561 450.56h939.119c-2.802-30.806-8.005-58.976-15.523-86.185-0.444 3.817-1.897 4.123-3.399 4.259l-532.556 0.006c-11.311 0-20.48-9.169-20.48-20.48s9.169-20.48 20.48-20.48h524.198c-65.36-187.26-237.367-320.548-441.45-327.657zM460.8 712.942c-2.022 8.3-3.182 17.829-3.182 27.629 0 42.539 21.853 79.975 54.945 101.692 26.303 22.243 41.9 35.485 30.62 73.525-0.48 1.652-0.756 3.551-0.756 5.513 0 11.311 9.169 20.48 20.48 20.48 9.126 0 16.858-5.969 19.504-14.216 3.316-9.537 5.207-20.363 5.207-31.631 0-35.787-19.083-67.116-47.628-84.368-25.137-14.505-41.49-40.776-41.49-70.866 0-7.12 0.916-14.026 2.636-20.608 0.104-0.587 0.236-1.913 0.236-3.269 0-9.954-7.088-18.252-16.492-20.122-1.296-0.249-2.637-0.38-4.008-0.382-9.93 0.021-18.198 7.104-20.051 16.492zM289.739 712.942c-2.022 8.3-3.182 17.829-3.182 27.629 0 42.539 21.853 79.975 54.945 101.692 26.319 22.239 41.884 35.477 30.62 73.516-0.536 1.742-0.844 3.745-0.844 5.82 0 11.313 9.171 20.485 20.485 20.485 9.238 0 17.048-6.116 19.602-14.519 3.313-9.537 5.205-20.363 5.205-31.631 0-35.787-19.083-67.116-47.628-84.368-25.137-14.505-41.49-40.776-41.49-70.866 0-7.12 0.916-14.026 2.636-20.608 0.104-0.587 0.236-1.913 0.236-3.269 0-9.954-7.088-18.252-16.492-20.122-1.296-0.249-2.637-0.38-4.008-0.382-9.942 0.007-18.225 7.095-20.079 16.492zM624.64 712.942c-2.022 8.3-3.182 17.829-3.182 27.629 0 42.539 21.853 79.975 54.945 101.692 26.303 22.243 41.9 35.485 30.62 73.525-0.48 1.652-0.756 3.551-0.756 5.513 0 11.311 9.169 20.48 20.48 20.48 9.126 0 16.858-5.969 19.504-14.216 3.316-9.537 5.207-20.363 5.207-31.631 0-35.787-19.083-67.116-47.628-84.368-25.137-14.505-41.49-40.776-41.49-70.866 0-7.12 0.916-14.026 2.636-20.608 0.104-0.587 0.236-1.913 0.236-3.269 0-9.954-7.088-18.252-16.492-20.122-1.296-0.249-2.637-0.38-4.008-0.382-9.93 0.021-18.198 7.104-20.051 16.492z" />
<glyph unicode="&#xe902;" glyph-name="blower" d="M732.168 231.076c3.216-9.437 5.073-20.309 5.073-31.614 0-35.169-17.966-66.142-45.221-84.242-23.902-15.179-39.29-41.103-39.29-70.62 0-7.196 0.915-14.179 2.634-20.838 0.131-0.641 0.278-2.040 0.278-3.473 0-9.635-6.653-17.716-15.616-19.899l-3.827-0.389c-9.6 0.224-17.484 7.296-18.966 16.509-2.046 8.531-3.211 18.196-3.211 28.134 0 41.773 20.582 78.738 52.159 101.308 24.777 22.215 39.519 35.453 28.869 73.489-0.544 1.765-0.857 3.794-0.857 5.896 0 9.001 5.742 16.66 13.762 19.515 1.778 0.549 3.657 0.839 5.602 0.839 8.967 0 16.496-6.161 18.582-14.482zM544.276 244.892c-8.165-2.9-13.907-10.56-13.907-19.56 0-2.102 0.313-4.131 0.896-6.043 10.611-37.889-4.134-51.127-28.53-73.086-31.954-22.826-52.536-59.791-52.536-101.564 0-9.937 1.165-19.603 3.365-28.867 1.33-8.479 9.215-15.55 18.793-15.771l3.709 0.36c9.103 2.212 15.756 10.293 15.756 19.928 0 1.433-0.147 2.833-0.428 4.183-1.57 5.949-2.484 12.932-2.484 20.128 0 29.518 15.388 55.441 38.579 70.187 27.966 18.533 45.932 49.506 45.932 84.675 0 11.305-1.856 22.177-5.281 32.326-1.906 7.74-9.435 13.901-18.402 13.901-1.946 0-3.824-0.29-5.593-0.829zM380.436 244.892c-8.165-2.9-13.907-10.56-13.907-19.56 0-2.102 0.313-4.131 0.896-6.043 10.611-37.889-4.134-51.127-28.53-73.086-31.954-22.826-52.536-59.791-52.536-101.564 0-9.937 1.165-19.603 3.365-28.867 1.33-8.479 9.215-15.55 18.793-15.771l3.709 0.36c9.103 2.212 15.756 10.293 15.756 19.928 0 1.433-0.147 2.833-0.428 4.183-1.57 5.949-2.484 12.932-2.484 20.128 0 29.518 15.388 55.441 38.579 70.187 27.966 18.533 45.932 49.506 45.932 84.675 0 11.305-1.856 22.177-5.281 32.326-1.906 7.74-9.435 13.901-18.402 13.901-1.946 0-3.824-0.29-5.593-0.829zM901.12 510.931v-121.811c0-33.932-27.508-61.44-61.44-61.44h-655.36c-33.932 0-61.44 27.508-61.44 61.44v121.811c0.002 14.574 5.075 27.963 13.552 38.498l141.314 176.644c5.591 6.943 8.974 15.869 8.974 25.586 0 0.001 0 0.001 0 0.002v47.059c0 33.932 27.508 61.44 61.44 61.44h327.68c33.932 0 61.44-27.508 61.44-61.44v-47.059c0.001-9.716 3.384-18.641 9.036-25.663l141.345-176.688c8.384-10.416 13.458-23.805 13.459-38.379zM175.329 532.48h673.341l-134.402 168.006c-11.163 13.897-17.924 31.744-17.949 51.17v47.064c0 11.311-9.169 20.48-20.48 20.48h-327.68c-11.311 0-20.48-9.169-20.48-20.48v-47.059c-0.025-19.43-6.787-37.275-18.073-51.332zM860.16 491.52h-696.32v-102.4c0-11.311 9.169-20.48 20.48-20.48h655.36c11.311 0 20.48 9.169 20.48 20.48zM266.24 409.6h40.96c11.311 0 20.48 9.169 20.48 20.48s-9.169 20.48-20.48 20.48h-40.96c-11.311 0-20.48-9.169-20.48-20.48s9.169-20.48 20.48-20.48zM389.12 409.6h40.96c11.311 0 20.48 9.169 20.48 20.48s-9.169 20.48-20.48 20.48h-40.96c-11.311 0-20.48-9.169-20.48-20.48s9.169-20.48 20.48-20.48z" />
<glyph unicode="&#xe903;" glyph-name="butcher-knife" d="M1012.941 573.891l-224.104 239.313c-3.706 3.706-8.826 5.998-14.481 5.998s-10.775-2.292-14.481-5.998l-734.2-745.21c-15.861-15.862-25.671-37.775-25.671-61.979 0-22.135 8.205-42.354 21.739-57.781l0.144-0.162c16.151-18.413 39.727-29.974 66.002-29.974 24.205 0 46.119 9.811 61.981 25.674l38.445 38.449c47.018 47.002 76.562 145.494 151.593 220.533l164.602-173.302c7.483-7.914 18.055-12.839 29.778-12.841 0.012 0 0.026 0 0.041 0 10.742 0 20.506 4.19 27.746 11.024 47.654 44.698 145.831 137.607 241.235 233.044 76.753 78.574 146.997 164.252 209.409 255.701 8.627 12.957 11.274 20.934 11.274 29.529 0 10.832-4.204 20.681-11.070 28.006zM774.365 289.628c-94.388-94.388-191.087-185.958-240.144-231.981l-193.548 203.776-29.716-29.721c-38.923-41.446-72.495-88.602-99.185-139.911-16.404-32.858-33.309-58.186-52.884-81.169l-37.993-37.91c-8.4-8.446-20.030-13.673-32.88-13.673-0.037 0-0.074 0-0.111 0-25.883 0.053-46.85 21.052-46.85 46.948 0 12.987 5.273 24.743 13.796 33.242l719.119 729.916 209.039-223.298c-65.172-95.694-133.781-179.405-209.034-256.608zM866.169 497.512c-3.705 3.706-5.997 8.825-5.997 14.48 0 11.311 9.169 20.48 20.48 20.48s20.48-9.169 20.48-20.48c0-5.654-2.292-10.774-5.997-14.48-3.706-3.708-8.828-6.002-14.485-6.002-5.661 0-10.786 2.297-14.493 6.010z" />
<glyph unicode="&#xe904;" glyph-name="coffee-maker" d="M1003.52-40.96h-61.44v921.6c0 33.932-27.508 61.44-61.44 61.44h-778.24c-33.932 0-61.44-27.508-61.44-61.44v-81.92c0-33.932 27.508-61.44 61.44-61.44h61.44v-81.92h-20.48c-11.311 0-20.48-9.169-20.48-20.48s9.169-20.48 20.48-20.48h20.48v-81.92c0-22.622 18.338-40.96 40.96-40.96h40.96c22.622 0 40.96 18.338 40.96 40.96v204.8h245.76v-778.24h-160.121l37.241 409.6h-327.68l37.241-409.6h-98.681c-11.311 0-20.48-9.169-20.48-20.48s9.169-20.48 20.48-20.48h983.040c11.311 0 20.48 9.169 20.48 20.48s-9.169 20.48-20.48 20.48zM331.235-40.96h-170.951l-33.513 368.64h237.978zM245.76 532.48h-40.96v204.8h40.96zM901.12-40.96h-327.68v778.24c0 22.622-18.338 40.96-40.96 40.96h-430.080c-11.311 0-20.48 9.169-20.48 20.48v81.92c0 11.311 9.169 20.48 20.48 20.48h778.24c11.311 0 20.48-9.169 20.48-20.48zM737.28 778.24c-45.243 0-81.92-36.677-81.92-81.92s36.677-81.92 81.92-81.92c45.243 0 81.92 36.677 81.92 81.92s-36.677 81.92-81.92 81.92zM737.28 655.36c-22.622 0-40.96 18.338-40.96 40.96s18.338 40.96 40.96 40.96c22.622 0 40.96-18.338 40.96-40.96-0.026-22.611-18.349-40.934-40.958-40.96zM819.2 102.4c0-11.311-9.169-20.48-20.48-20.48h-122.88c-11.311 0-20.48 9.169-20.48 20.48s9.169 20.48 20.48 20.48h122.88c11.311 0 20.48-9.169 20.48-20.48zM819.2 225.28c0-11.311-9.169-20.48-20.48-20.48h-122.88c-11.311 0-20.48 9.169-20.48 20.48s9.169 20.48 20.48 20.48h122.88c11.311 0 20.48-9.169 20.48-20.48zM819.2 348.16c0-11.311-9.169-20.48-20.48-20.48h-122.88c-11.311 0-20.48 9.169-20.48 20.48s9.169 20.48 20.48 20.48h122.88c11.311 0 20.48-9.169 20.48-20.48z" />
<glyph unicode="&#xe905;" glyph-name="coffee-press" d="M737.28 532.48h-203.69v40.96h203.69c-0.024 112.686-91.083 204.097-203.633 204.689l-0.057 45.167c23.629 8.964 40.12 31.415 40.12 57.716 0 34.007-27.568 61.575-61.575 61.575s-61.575-27.568-61.575-61.575c0-27.029 17.415-49.991 41.637-58.276l0.433-44.497h-1.11c-113.108 0-204.8-91.692-204.8-204.8h205.91v-40.96h-279.638c-0.001 0-0.002 0-0.004 0-4.524 0-8.192-3.668-8.192-8.192 0-1.335 0.319-2.595 0.885-3.708l81.038-151.94v-409.6c0-22.622 18.338-40.96 40.96-40.96h368.64c22.622 0 40.96 18.338 40.96 40.96v163.84c90.486 0 163.84 73.354 163.84 163.84v81.92c0 90.486-73.354 163.84-163.84 163.84zM491.52 880.64c0 11.311 9.169 20.48 20.48 20.48s20.48-9.169 20.48-20.48c0-11.311-9.169-20.48-20.48-20.48-11.305 0.014-20.466 9.175-20.48 20.479zM332.866 614.4c18.931 71.177 82.753 122.782 158.643 122.88h40.971c75.902-0.098 139.723-51.703 158.394-121.734zM696.32-40.96h-368.64v419.84l-4.829 9.011-55.251 103.629h225.030v-286.72h-21.59c-11.311 0-20.48-9.169-20.48-20.48s9.169-20.48 20.48-20.48h81.92c11.311 0 20.48 9.169 20.48 20.48s-9.169 20.48-20.48 20.48h-19.37v286.72h162.73zM860.16 286.72c-0.079-67.833-55.047-122.801-122.872-122.88l-0.008 327.68c67.833-0.079 122.801-55.047 122.88-122.872z" />
<glyph unicode="&#xe906;" glyph-name="exhaust" d="M887.661 631.23l-141.406 176.763c-5.591 6.943-8.974 15.869-8.974 25.586 0 0.001 0 0.001 0 0.002v47.059c0 33.932-27.508 61.44-61.44 61.44h-327.68c-33.932 0-61.44-27.508-61.44-61.44v-47.059c0-0.001 0-0.001 0-0.002 0-9.716-3.383-18.643-9.036-25.665l-141.345-176.684c-8.384-10.416-13.458-23.805-13.459-38.379v-121.811c0-33.932 27.508-61.44 61.44-61.44h655.36c33.932 0 61.44 27.508 61.44 61.44v121.811c-0.002 14.574-5.075 27.963-13.552 38.498zM309.731 782.406c11.163 13.897 17.924 31.744 17.949 51.17v47.065c0 11.311 9.169 20.48 20.48 20.48h327.68c11.311 0 20.48-9.169 20.48-20.48v-47.059c0.025-19.431 6.786-37.278 18.073-51.336l134.277-167.845h-673.341zM860.16 471.040c0-11.311-9.169-20.48-20.48-20.48h-655.36c-11.311 0-20.48 9.169-20.48 20.48v102.4h696.32zM649.359 198.799c3.557-3.679 5.749-8.697 5.749-14.228 0-11.311-9.169-20.48-20.48-20.48-5.53 0-10.549 2.192-14.233 5.755l-87.915 87.915v-319.201c0-11.311-9.169-20.48-20.48-20.48s-20.48 9.169-20.48 20.48v319.201l-87.921-87.921c-3.679-3.557-8.697-5.749-14.228-5.749-11.311 0-20.48 9.169-20.48 20.48 0 5.53 2.192 10.549 5.755 14.233l122.874 122.874c3.706 3.705 8.825 5.996 14.479 5.996s10.773-2.291 14.479-5.996zM245.76 512c0 11.311 9.169 20.48 20.48 20.48h40.96c11.311 0 20.48-9.169 20.48-20.48s-9.169-20.48-20.48-20.48h-40.96c-11.311 0-20.48 9.169-20.48 20.48zM368.64 512c0 11.311 9.169 20.48 20.48 20.48h40.96c11.311 0 20.48-9.169 20.48-20.48s-9.169-20.48-20.48-20.48h-40.96c-11.311 0-20.48 9.169-20.48 20.48z" />
<glyph unicode="&#xe907;" glyph-name="food-cover" d="M1003.52 122.88h-21.299c0.36 6.803 0.819 13.582 0.819 20.48-0.048 211.43-139.366 390.308-331.204 449.888 0.784 13.016 3.276 26.991 3.522 41.512 0.002 79.295-64.183 143.479-143.358 143.479s-143.36-64.184-143.36-143.36c0.248-14.641 2.74-28.616 7.145-41.711-195.46-59.501-334.777-238.379-334.825-449.803 0-6.903 0.459-13.682 0.819-20.485h-21.299c-11.311 0-20.48-9.169-20.48-20.48s9.169-20.48 20.48-20.48h983.040c11.311 0 20.48 9.169 20.48 20.48s-9.169 20.48-20.48 20.48zM512 737.28c56.527-0.068 102.332-45.873 102.4-102.393-0.171-11.008-2.159-21.49-5.676-31.243-28.927 7.084-62.397 10.757-96.724 10.757s-67.797-3.673-100.038-10.648c-0.203 9.643-2.191 20.126-2.361 31.050 0.067 56.604 45.872 102.409 102.392 102.477zM941.462 122.88h-858.923c-0.414 7.098-0.618 13.869-0.618 20.48 0.179 21.832 1.96 43.097 5.23 63.868l506.77-2.428c11.311 0 20.48 9.169 20.48 20.48s-9.169 20.48-20.48 20.48h-499.171c47.524 189.541 216.384 327.681 417.509 327.681 237.384 0 429.822-192.438 429.822-429.822 0-0.091 0-0.182 0-0.273 0-6.597-0.205-13.368-0.618-20.466z" />
<glyph unicode="&#xe908;" glyph-name="fridge" d="M798.72 942.080h-573.44c-33.917-0.037-61.403-27.523-61.44-61.436v-901.124c0.037-33.917 27.523-61.403 61.436-61.44h573.444c33.917 0.037 61.403 27.523 61.44 61.436v901.124c-0.037 33.917-27.523 61.403-61.436 61.44zM819.2-20.48c0-11.311-9.169-20.48-20.48-20.48h-573.44c-11.311 0-20.48 9.169-20.48 20.48v552.96h614.4zM819.2 573.44h-614.4v307.2c0 11.311 9.169 20.48 20.48 20.48h573.44c11.311 0 20.48-9.169 20.48-20.48zM327.68 757.76v-81.92c0-11.311-9.169-20.48-20.48-20.48s-20.48 9.169-20.48 20.48v81.92c0 11.311 9.169 20.48 20.48 20.48s20.48-9.169 20.48-20.48zM286.72 307.2v122.88c0 11.311 9.169 20.48 20.48 20.48s20.48-9.169 20.48-20.48v-122.88c0-11.311-9.169-20.48-20.48-20.48s-20.48 9.169-20.48 20.48z" />
<glyph unicode="&#xe909;" glyph-name="hand-mixer" d="M901.12 819.2h-778.24c-31.617-0.084-60.392-12.185-82.012-31.975l0.092 52.455c0.037 33.917 27.523 61.403 61.436 61.44h573.444c11.311 0 20.48 9.169 20.48 20.48s-9.169 20.48-20.48 20.48h-573.44c-56.527-0.068-102.332-45.873-102.4-102.393v-307.207c0-67.865 55.015-122.88 122.88-122.88h40.96v-84.869c-69.39-14.307-122.88-98.767-122.88-201.851 0-113.107 64.184-204.8 143.36-204.8s143.36 91.693 143.36 204.8c0 103.084-53.49 187.544-122.88 201.851v84.869h696.32c67.865 0 122.88 55.015 122.88 122.88v163.84c0 67.865-55.015 122.88-122.88 122.88zM163.84-37.487c-46.088 15.667-81.92 82.743-81.92 160.367s35.832 144.699 81.92 160.367zM286.72 122.88c0-77.623-35.832-144.699-81.92-160.367v320.717c46.088-15.651 81.92-82.727 81.92-160.35zM983.040 532.48c-0.054-45.222-36.698-81.866-81.915-81.92h-778.245c-45.222 0.054-81.866 36.698-81.92 81.915v163.845c0.054 45.222 36.698 81.866 81.915 81.92h778.245c45.222-0.054 81.866-36.698 81.92-81.915zM204.8 696.32c-45.243 0-81.92-36.677-81.92-81.92s36.677-81.92 81.92-81.92c45.243 0 81.92 36.677 81.92 81.92s-36.677 81.92-81.92 81.92zM204.8 573.44c-22.622 0-40.96 18.338-40.96 40.96s18.338 40.96 40.96 40.96c22.622 0 40.96-18.338 40.96-40.96-0.026-22.611-18.349-40.934-40.958-40.96zM409.6 634.88c0-11.311-9.169-20.48-20.48-20.48s-20.48 9.169-20.48 20.48c0 11.311 9.169 20.48 20.48 20.48s20.48-9.169 20.48-20.48z" />
<glyph unicode="&#xe90a;" glyph-name="heat" d="M696.32 942.080c-261.12 0-573.44-240.64-573.44-573.44 0-214.97 149.471-412.324 350.72-445.235 11.485-3.271 24.692-5.207 38.333-5.324 3.778 0 7.387 0.376 11.053 0.553 3.195-0.082 6.283-0.553 9.495-0.553 184.32 0 368.64 163.84 368.64 327.68 0 312.32-337.92 419.84-204.8 696.32zM519.451-40.198c-13.553 0.564-26.263 1.871-38.73 3.901-74.16 21.167-153.041 120.675-153.041 241.097 0 116.933 83.489 250.614 198.144 280.576-2.712-99.348 56.635-163.43 105.779-216.502 34.726-37.507 64.717-69.89 64.717-105.034 0-115.806-74.056-200.016-176.869-204.038zM680.559-2.974c35.369 43.783 56.777 100.121 56.777 161.459 0 1.883-0.020 3.761-0.060 5.635 0.005 122.6-209.915 177.212-163.835 368.36-160.424 0-286.72-168.96-286.72-327.68 0.513-71.178 23.857-136.805 63.061-190.032-113.127 78.233-185.949 206.226-185.949 351.227 0 0.93 0.003 1.859 0.009 2.788-0.001 275.211 241.336 493.835 471.449 527.758-38.949-140.272 31.994-243.249 100.889-343.245 60.953-88.494 123.982-179.995 123.982-307.536 0-97.587-78.086-196.436-179.601-248.738z" />
<glyph unicode="&#xe90b;" glyph-name="high-pot" d="M409.6 880.64c0 11.311 9.169 20.48 20.48 20.48h163.84c11.311 0 20.48-9.169 20.48-20.48s-9.169-20.48-20.48-20.48h-163.84c-11.311 0-20.48 9.169-20.48 20.48zM901.12 593.92c0-11.311-9.169-20.48-20.48-20.48h-20.48v-593.92c0-33.932-27.508-61.44-61.44-61.44h-573.44c-33.932 0-61.44 27.508-61.44 61.44v593.92h-20.48c-11.311 0-20.48 9.169-20.48 20.48s9.169 20.48 20.48 20.48h24.166c20.245 116.924 120.895 204.733 242.067 204.8h204.807c121.179-0.067 221.829-87.876 241.863-203.335l24.377-1.465c11.311 0 20.48-9.169 20.48-20.48zM208.896 614.4h606.208c-19.853 94.089-102.129 163.715-200.69 163.84h-204.814c-98.575-0.125-180.851-69.751-200.467-162.5zM819.2 573.44h-614.4v-593.92c0.014-11.305 9.175-20.466 20.479-20.48h573.441c11.305 0.014 20.466 9.175 20.48 20.479v61.441h-430.080c-11.311 0-20.48 9.169-20.48 20.48s9.169 20.48 20.48 20.48h430.080z" />
<glyph unicode="&#xe90c;" glyph-name="hot-pot" d="M1003.52 491.52h-983.040c-11.311 0-20.48-9.169-20.48-20.48s9.169-20.48 20.48-20.48h65.159l37.241-409.6c0-22.622 18.338-40.96 40.96-40.96h696.32c22.622 0 40.96 18.338 40.96 40.96l37.241 409.6h65.159c11.311 0 20.48 9.169 20.48 20.48s-9.169 20.48-20.48 20.48zM871.166 163.84h-523.006c-11.311 0-20.48-9.169-20.48-20.48s9.169-20.48 20.48-20.48h519.279l-7.279-80.065v-1.855h-696.32v1.855l-0.172 1.851-36.897 405.893h770.458zM66.765 574.145l778.211 245.735c8.89 2.365 15.333 10.341 15.333 19.823 0 11.311-9.169 20.48-20.48 20.48-1.941 0-3.818-0.27-5.597-0.774l-261.672-82.639-6.070 22.651c-9.672 35.247-41.426 60.717-79.129 60.717-7.541 0-14.843-1.019-21.778-2.926l-118.115-31.671c-35.249-9.671-60.72-41.426-60.72-79.129 0-7.539 1.018-14.84 2.925-21.773l9.208-34.286-242.725-76.644c-8.839-2.399-15.234-10.351-15.234-19.797 0-11.311 9.169-20.48 20.48-20.48 1.906 0 3.751 0.26 5.502 0.748zM358.068 785.981l118.706 31.805c3.171 0.88 6.813 1.386 10.572 1.386 18.857 0 34.742-12.728 39.532-30.061l6.622-24.684-195.518-61.727-8.872 33.116c-0.88 3.171-1.386 6.812-1.386 10.572 0 18.854 12.726 34.736 30.057 39.524z" />
<glyph unicode="&#xe90d;" glyph-name="ingredients" d="M765.952 466.944l-102.4 136.532c-5.114 6.76-8.192 15.309-8.192 24.576v211.628c0 33.932-27.508 61.44-61.44 61.44h-40.96c-33.932 0-61.44-27.508-61.44-61.44v-211.628c0-9.267-3.078-17.816-8.267-24.679l-102.325-136.429c-7.672-10.14-12.288-22.963-12.288-36.864v-104.448c-6.157 1.316-13.23 2.069-20.48 2.069-56.554 0-102.4-45.846-102.4-102.4 0-0.007 0-0.015 0-0.022v-245.759c0-33.932 27.508-61.44 61.44-61.44h409.6c33.932 0 61.44 27.508 61.44 61.44v450.56c0 13.901-4.616 26.724-12.4 37.019zM409.6-20.48c0-11.311-9.169-20.48-20.48-20.48h-81.92c-11.311 0-20.48 9.169-20.48 20.48v184.32h122.88zM409.6 204.8h-122.88v20.48c0 33.932 27.508 61.44 61.44 61.44s61.44-27.508 61.44-61.44zM737.28 81.92h-163.84v286.72h163.84zM737.28 409.6h-184.32c-11.311 0-20.48-9.169-20.48-20.48v-327.68c0-11.311 9.169-20.48 20.48-20.48h184.32v-61.44c0-11.311-9.169-20.48-20.48-20.48h-270c2.315 6.080 3.688 13.109 3.76 20.449v245.791c-0.074 33.23-16.041 62.716-40.699 81.269l-0.261 123.531c0.009 4.633 1.546 8.905 4.134 12.341l102.362 136.484c10.196 13.535 16.343 30.622 16.384 49.142v211.633c0 11.311 9.169 20.48 20.48 20.48h40.96c11.311 0 20.48-9.169 20.48-20.48v-211.628c0.041-18.53 6.188-35.617 16.536-49.363l102.248-136.321c2.549-3.384 4.086-7.655 4.096-12.286z" />
<glyph unicode="&#xe90e;" glyph-name="juice-container" d="M839.68 655.36h-151.179l37.462 74.92c4.091 8.006 6.488 17.463 6.488 27.48 0 33.932-27.508 61.44-61.44 61.44-0.004 0-0.009 0-0.013 0h-199.958c-23.196 5.676-43.518 15.513-61.124 28.766-39.775 29.157-89.089 48.505-142.618 53.082-106.878 0.073-144.418-55.088-144.418-102.327l0.618-19.862 19.862-0.618c18.641-0.598 82.948-67.895 140.399-146.121l-113.238-264.159c-3.156-7.13-4.993-15.445-4.993-24.19 0-4.286 0.441-8.469 1.281-12.506l72.77-363.783c5.866-28.34 30.596-49.346 60.242-49.402h362.912c29.643 0.058 54.366 21.053 60.17 48.982l72.909 364.579c0.772 3.639 1.213 7.821 1.213 12.106 0 8.739-1.838 17.048-5.148 24.563l-105.466 246.090h153.268c11.311 0 20.48-9.169 20.48-20.48v-245.76c0-11.311 9.169-20.48 20.48-20.48s20.48 9.169 20.48 20.48v245.76c-0.037 33.917-27.523 61.403-61.436 61.44zM682.803-24.519c-1.962-9.433-10.197-16.423-20.068-16.441h-253.135v204.8c0.023 22.612 18.348 40.937 40.958 40.96h278.121zM754.385 351.801v-0.041c1.052-2.369 1.665-5.132 1.665-8.039 0-1.423-0.147-2.811-0.426-4.151l-18.753-93.81h-286.31c-45.222-0.054-81.866-36.698-81.92-81.915v-204.805h-68.813c-9.879 0.019-18.118 7.019-20.047 16.329l-72.879 364.349c-0.255 1.209-0.401 2.598-0.401 4.021 0 2.913 0.612 5.683 1.714 8.188l77.375 180.552h391.381zM303.145 573.44l17.572 40.96h321.126l17.555-40.96zM642.703 655.36h-325.042c-34.742 47.559-102.621 134.222-151.74 157.782 8.86 29.356 45.621 47.018 100.319 47.018 46.684-4.953 88.616-22.041 123.549-48.014 22.159-17.062 49.965-29.269 80.281-33.788l200.928-0.119c0.001 0 0.002 0 0.003 0 11.311 0 20.48-9.169 20.48-20.48 0-3.338-0.799-6.49-2.216-9.275z" />
<glyph unicode="&#xe90f;" glyph-name="juicer_1" d="M1003.52 368.64h-37.949l-5.612 10.019c-7.279 12.98-180.601 317.661-386.519 317.661s-379.24-304.681-386.519-317.661l-5.612-10.019h-160.829c-11.311 0-20.48-9.169-20.48-20.48s9.169-20.48 20.48-20.48h157.028l67.92-203.76c8.362-24.609 31.264-42 58.227-42 0.019 0 0.038 0 0.057 0h539.465c0.016 0 0.035 0 0.055 0 26.964 0 49.865 17.391 58.1 41.568l68.052 204.192h34.136c11.311 0 20.48 9.169 20.48 20.48s-9.169 20.48-20.48 20.48zM918.299 368.64h-160.539c0 93.27-63.39 199.385-129.798 277.651 141.357-42.582 263.328-232.825 290.337-277.651zM716.8 368.64h-286.72c0 87.45 69.849 198.914 143.36 277.271 73.511-78.356 143.36-189.821 143.36-277.271zM518.918 646.291c-66.408-78.266-129.798-184.381-129.798-277.651h-160.539c27.009 44.827 148.98 235.069 290.337 277.651zM862.618 136.88c-2.796-8.204-10.435-14-19.428-14-0.004 0-0.008 0-0.012 0h-539.467c-0.003 0-0.008 0-0.012 0-8.993 0-16.632 5.796-19.385 13.856l-63.625 190.944h705.511z" />
<glyph unicode="&#xe910;" glyph-name="juicer" d="M409.6 921.6c0 11.311 9.169 20.48 20.48 20.48h122.88c11.311 0 20.48-9.169 20.48-20.48s-9.169-20.48-20.48-20.48h-122.88c-11.311 0-20.48 9.169-20.48 20.48zM512 81.92h-122.88c-11.311 0-20.48-9.169-20.48-20.48s9.169-20.48 20.48-20.48h122.88c11.311 0 20.48 9.169 20.48 20.48s-9.169 20.48-20.48 20.48zM593.92 81.92c-11.311 0-20.48-9.169-20.48-20.48s9.169-20.48 20.48-20.48c11.311 0 20.48 9.169 20.48 20.48s-9.169 20.48-20.48 20.48zM860.16 798.72v-277.672c0-19.357-8.952-36.623-22.942-47.884l-99.938-79.948v-147.456c-0.006-28.511-14.603-53.611-36.731-68.238l30.882-218.482h26.329c11.311 0 20.48-9.169 20.48-20.48s-9.169-20.48-20.48-20.48h-532.48c-11.311 0-20.48 9.169-20.48 20.48s9.169 20.48 20.48 20.48h26.329l31.187 218.292c-22.433 14.817-37.030 39.917-37.036 68.427v573.441h-20.48c-11.311 0-20.48 9.169-20.48 20.48s9.169 20.48 20.48 20.48h573.44c33.932 0 61.44-27.508 61.44-61.44zM690.053-40.96l-29.262 204.8h-338.547l-29.258-204.8zM696.32 819.2h-409.6v-163.84h102.4c11.311 0 20.48-9.169 20.48-20.48s-9.169-20.48-20.48-20.48h-102.4v-81.92h102.4c11.311 0 20.48-9.169 20.48-20.48s-9.169-20.48-20.48-20.48h-102.4v-81.92h102.4c11.311 0 20.48-9.169 20.48-20.48s-9.169-20.48-20.48-20.48h-102.4v-122.88c0.026-22.611 18.349-40.934 40.958-40.96h327.682c22.611 0.026 40.934 18.349 40.96 40.958zM819.2 798.72c0 11.311-9.169 20.48-20.48 20.48h-61.44v-373.531l74.232 59.392c4.702 3.764 7.688 9.504 7.688 15.941 0 0.012 0 0.024 0 0.036z" />
<glyph unicode="&#xe911;" glyph-name="kitchen-glove" d="M897.434 392.483c-18.42 13.936-41.712 22.323-66.963 22.323-30.819 0-58.72-12.492-78.916-32.69l-42.070-54.436v280.166c0 184.592-149.641 334.234-334.234 334.234h-0.057c-184.592 0-334.233-149.642-334.233-334.234 0-9.381 0.386-18.672 1.144-27.857l43.936-548.831c5.235-63.512 58.070-113.075 122.483-113.078h468.955c20.742 0.001 39.082 10.28 50.207 26.022l194.198 295.105c12.622 17.837 20.176 40.038 20.176 64.004 0 36.38-17.406 68.694-44.345 89.069zM887.685 261.734l-193.413-293.962c-3.752-5.309-9.864-8.733-16.776-8.733-0.006 0-0.012 0-0.019 0h-468.954c-42.864 0.206-77.972 33.135-81.632 75.077l-3.823 47.803h279.216c11.311 0 20.48 9.169 20.48 20.48s-9.169 20.48-20.48 20.48h-282.493l-36.925 461.578c-0.595 7.004-0.934 15.156-0.934 23.388 0 161.966 131.296 293.267 293.261 293.274h0.045c161.894-0.191 293.083-131.38 293.274-293.255v-400.198l113.656 147.083c12.595 11.797 29.579 19.043 48.255 19.043 39.024 0 70.66-31.636 70.66-70.66 0-15.552-5.024-29.93-13.537-41.6z" />
<glyph unicode="&#xe912;" glyph-name="kitchen-shaver" d="M831.189 722.915c-3.213 31.198-29.356 55.325-61.135 55.325-0.002 0-0.004 0-0.006 0h-32.768v61.44c0 33.932-27.508 61.44-61.44 61.44h-24.24c-8.618 24.022-31.17 40.906-57.673 40.96h-163.847c-26.507-0.058-49.055-16.941-57.538-40.533l-24.382-0.427c-33.932 0-61.44-27.508-61.44-61.44v-61.44h-32.768c-31.776-0.003-57.916-24.129-61.107-55.062l-69.654-696.583c-0.194-1.834-0.305-3.962-0.305-6.115 0-33.93 27.504-61.436 61.433-61.44h655.36c0.001 0 0.001 0 0.002 0 33.932 0 61.44 27.508 61.44 61.44 0 2.154-0.111 4.281-0.327 6.378zM430.080 901.12h163.84c11.311 0 20.48-9.169 20.48-20.48s-9.169-20.48-20.48-20.48h-163.84c-11.311 0-20.48 9.169-20.48 20.48s9.169 20.48 20.48 20.48zM327.68 839.68c0.014 11.305 9.175 20.466 20.479 20.48h24.25c8.617-24.019 31.165-40.902 57.665-40.96h163.847c26.51 0.054 49.062 16.938 57.546 40.533l24.374 0.427c11.305-0.014 20.466-9.175 20.48-20.479v-61.441h-368.64zM854.872 6.742c-3.73-4.146-9.113-6.742-15.103-6.742-0.031 0-0.062 0-0.094 0h-655.355c0 0 0 0 0 0-11.311 0-20.48 9.169-20.48 20.48 0 0.721 0.037 1.434 0.11 2.136l69.625 696.232c1.044 10.389 9.741 18.432 20.318 18.432 0.021 0 0.042 0 0.063 0h516.093c0.019 0 0.041 0 0.063 0 10.576 0 19.273-8.043 20.307-18.347l69.639-696.406c0.071-0.635 0.111-1.372 0.111-2.118 0-5.273-2.012-10.076-5.31-13.683zM368.64 593.92v-40.96c0-11.311-9.169-20.48-20.48-20.48s-20.48 9.169-20.48 20.48v40.96c0 11.311 9.169 20.48 20.48 20.48s20.48-9.169 20.48-20.48zM532.48 593.92v-40.96c0-11.311-9.169-20.48-20.48-20.48s-20.48 9.169-20.48 20.48v40.96c0 11.311 9.169 20.48 20.48 20.48s20.48-9.169 20.48-20.48zM696.32 593.92v-40.96c0-11.311-9.169-20.48-20.48-20.48s-20.48 9.169-20.48 20.48v40.96c0 11.311 9.169 20.48 20.48 20.48s20.48-9.169 20.48-20.48zM368.64 389.12v-40.96c0-11.311-9.169-20.48-20.48-20.48s-20.48 9.169-20.48 20.48v40.96c0 11.311 9.169 20.48 20.48 20.48s20.48-9.169 20.48-20.48zM532.48 389.12v-40.96c0-11.311-9.169-20.48-20.48-20.48s-20.48 9.169-20.48 20.48v40.96c0 11.311 9.169 20.48 20.48 20.48s20.48-9.169 20.48-20.48zM696.32 389.12v-40.96c0-11.311-9.169-20.48-20.48-20.48s-20.48 9.169-20.48 20.48v40.96c0 11.311 9.169 20.48 20.48 20.48s20.48-9.169 20.48-20.48zM368.64 184.32v-40.96c0-11.311-9.169-20.48-20.48-20.48s-20.48 9.169-20.48 20.48v40.96c0 11.311 9.169 20.48 20.48 20.48s20.48-9.169 20.48-20.48zM532.48 184.32v-40.96c0-11.311-9.169-20.48-20.48-20.48s-20.48 9.169-20.48 20.48v40.96c0 11.311 9.169 20.48 20.48 20.48s20.48-9.169 20.48-20.48zM696.32 184.32v-40.96c0-11.311-9.169-20.48-20.48-20.48s-20.48 9.169-20.48 20.48v40.96c0 11.311 9.169 20.48 20.48 20.48s20.48-9.169 20.48-20.48z" />
<glyph unicode="&#xe913;" glyph-name="knife" d="M830.009 814.903l-19.517 45.257-786.498-802.234c-14.976-14.849-24.248-35.432-24.248-58.179 0-45.243 36.677-81.92 81.92-81.92 22.748 0 43.33 9.272 58.174 24.242l51.312 67.045c43.553 81.858 95.446 152.227 156.068 213.997l86.751-87.029c14.825-14.824 35.304-23.993 57.926-23.993s43.101 9.169 57.926 23.993l235.295 309.895c46.829 61.168 75.039 138.75 75.039 222.921 0 52.782-11.093 102.973-31.074 148.369zM752.493 470.745l-233.32-307.315c-7.209-6.456-16.781-10.403-27.276-10.403-11.31 0-21.55 4.584-28.962 11.996l-115.855 115.88-28.963-28.967c-62.657-63.55-116.401-136.126-159.053-215.546l-49.819-66.906c-7.215-6.479-16.804-10.441-27.319-10.441-22.622 0-40.96 18.338-40.96 40.96 0 11.452 4.7 21.807 12.276 29.24l743.635 758.52c14.080-35.222 22.246-76.047 22.246-118.779 0-74.834-25.044-143.819-67.209-199.030z" />
<glyph unicode="&#xe914;" glyph-name="large-pot" d="M409.6 880.64c0 11.311 9.169 20.48 20.48 20.48h163.84c11.311 0 20.48-9.169 20.48-20.48s-9.169-20.48-20.48-20.48h-163.84c-11.311 0-20.48 9.169-20.48 20.48zM1024 552.96c0-11.311-9.169-20.48-20.48-20.48h-61.44l-36.598-475.754c-2.524-31.841-28.984-56.724-61.255-56.726h-664.453c-32.272 0.002-58.731 24.884-61.242 56.511l-36.611 475.969h-61.44c-11.311 0-20.48 9.169-20.48 20.48s9.169 20.48 20.48 20.48h64.717c20.646 139.677 139.653 245.669 283.434 245.76h286.729c143.79-0.091 262.798-106.083 283.253-244.197l64.907-1.563c11.311 0 20.48-9.169 20.48-20.48zM126.595 573.44h770.81c-20.37 116.845-120.929 204.578-242.021 204.8h-286.744c-121.116-0.222-221.675-87.955-241.832-203.327zM901.001 532.48h-778.002l36.356-472.609c0.883-10.595 9.678-18.866 20.414-18.911h664.458c10.74 0.045 19.534 8.314 20.414 18.832l4.851 63.088h-603.251c-11.311 0-20.48 9.169-20.48 20.48s9.169 20.48 20.48 20.48h606.401z" />
<glyph unicode="&#xe915;" glyph-name="low-pot" d="M1003.52 614.4h-983.040c-11.311 0-20.48-9.169-20.48-20.48s9.169-20.48 20.48-20.48h64.856l36.286-435.18c2.866-31.585 29.135-56.165 61.181-56.34h658.376c32.064 0.175 58.332 24.756 61.181 56.1l36.304 435.42h64.856c11.311 0 20.48 9.169 20.48 20.48s-9.169 20.48-20.48 20.48zM870.24 245.76h-522.080c-11.311 0-20.48-9.169-20.48-20.48s9.169-20.48 20.48-20.48h518.664l-5.263-63.144c-0.821-10.537-9.573-18.776-20.25-18.776-0.046 0-0.092 0-0.139 0h-658.351c-0.035 0-0.076 0-0.117 0-10.685 0-19.445 8.238-20.276 18.709l-35.984 431.851h771.117zM102.4 655.36h819.2c11.311 0 20.48 9.169 20.48 20.48s-9.169 20.48-20.48 20.48h-266.24v40.96c0 45.243-36.677 81.92-81.92 81.92h-122.88c-45.243 0-81.92-36.677-81.92-81.92v-40.96h-266.24c-11.311 0-20.48-9.169-20.48-20.48s9.169-20.48 20.48-20.48zM409.6 737.28c0.026 22.611 18.349 40.934 40.958 40.96h122.882c22.611-0.026 40.934-18.349 40.96-40.958v-40.962h-204.8z" />
<glyph unicode="&#xe916;" glyph-name="measuring-cup" d="M942.031 901.12h-778.191c-45.243 0-81.92-36.677-81.92-81.92v-254.362c0 0 0-0.001 0-0.001 0-42.057 31.693-76.712 72.498-81.384l91.342-10.14v-452.833c0-33.932 27.508-61.44 61.44-61.44h491.52c33.932 0 61.44 27.508 61.44 61.44v661.201c0 9.888 3.504 18.957 9.338 26.035l107.669 131.375c3.665 6.014 5.835 13.289 5.835 21.070 0 22.622-18.338 40.96-40.96 40.96-0.004 0-0.007 0-0.011 0zM245.76 514.527l-86.426 9.605c-20.596 2.327-36.454 19.649-36.454 40.675 0 0.011 0 0.022 0 0.033v254.36c0.026 22.611 18.349 40.934 40.958 40.96h81.922zM837.759 733.594c-11.536-14.018-18.538-32.146-18.559-51.908v-26.326h-102.4c-11.311 0-20.48-9.169-20.48-20.48s9.169-20.48 20.48-20.48h102.4v-122.88h-102.4c-11.311 0-20.48-9.169-20.48-20.48s9.169-20.48 20.48-20.48h102.4v-122.88h-102.4c-11.311 0-20.48-9.169-20.48-20.48s9.169-20.48 20.48-20.48h102.4v-122.88h-102.4c-11.311 0-20.48-9.169-20.48-20.48s9.169-20.48 20.48-20.48h102.4v-102.4c0-11.311-9.169-20.48-20.48-20.48h-491.52c-11.311 0-20.48 9.169-20.48 20.48v839.68h654.746z" />
<glyph unicode="&#xe917;" glyph-name="microwave" d="M962.56 819.2h-901.12c-33.917-0.037-61.403-27.523-61.44-61.436v-614.404c0.037-33.917 27.523-61.403 61.436-61.44h901.124c33.917 0.037 61.403 27.523 61.44 61.436v614.404c-0.037 33.917-27.523 61.403-61.436 61.44zM983.040 143.36c0-11.311-9.169-20.48-20.48-20.48h-901.12c-11.311 0-20.48 9.169-20.48 20.48v614.4c0 11.311 9.169 20.48 20.48 20.48h634.88v-512c0-11.311 9.169-20.48 20.48-20.48s20.48 9.169 20.48 20.48v512h225.28c11.311 0 20.48-9.169 20.48-20.48zM860.16 732.365c-45.243 0-81.92-36.677-81.92-81.92s36.677-81.92 81.92-81.92c45.243 0 81.92 36.677 81.92 81.92s-36.677 81.92-81.92 81.92zM860.16 609.485c-22.622 0-40.96 18.338-40.96 40.96s18.338 40.96 40.96 40.96c22.622 0 40.96-18.338 40.96-40.96-0.026-22.611-18.349-40.934-40.958-40.96zM566.829 649.925c4.063-3.754 6.598-9.11 6.598-15.057 0-5.335-2.040-10.194-5.383-13.839-24.597-26.461-58.465-44.038-96.411-47.544-48.432 1.299-91.87 19.103-125.688 47.875-21.043 18.982-48.71 31.542-79.231 33.971-0.549 0.031-0.638 0.031-0.727 0.031-26.237 0-49.579-12.396-64.488-31.652-3.852-5.806-10.14-9.463-17.283-9.463-11.311 0-20.48 9.169-20.48 20.48 0 4.3 1.325 8.291 3.59 11.586 22.576 30.433 58.459 49.991 98.911 50.008 39.939-2.095 75.906-17.556 103.876-41.953 26.806-23.494 61.986-38.436 100.615-39.957 26.898 3.507 50.064 16.006 67.11 34.286 3.818 4.114 9.167 6.638 15.107 6.638 5.362 0 10.243-2.058 13.898-5.427zM566.829 486.085c4.063-3.754 6.598-9.11 6.598-15.057 0-5.335-2.040-10.194-5.383-13.839-24.597-26.461-58.465-44.038-96.411-47.544-48.437 1.296-91.879 19.101-125.7 47.874-21.040 18.98-48.702 31.539-79.219 33.971-0.549 0.031-0.638 0.031-0.728 0.031-26.237 0-49.579-12.396-64.488-31.652-3.876-5.628-10.064-9.151-17.074-9.151-11.311 0-20.48 9.169-20.48 20.48 0 4.168 1.245 8.046 3.384 11.281 22.574 30.426 58.457 49.984 98.909 50.001 39.936-2.097 75.9-17.558 103.868-41.953 26.808-23.496 61.992-38.438 100.624-39.957 26.897 3.507 50.063 16.006 67.11 34.286 3.817 4.111 9.166 6.634 15.103 6.634 5.36 0 10.24-2.056 13.893-5.423zM566.829 322.245c4.063-3.754 6.598-9.11 6.598-15.057 0-5.335-2.040-10.194-5.383-13.839-24.597-26.461-58.465-44.038-96.411-47.544-48.437 1.296-91.879 19.101-125.7 47.874-21.040 18.98-48.702 31.539-79.219 33.971-0.549 0.031-0.638 0.031-0.728 0.031-26.237 0-49.579-12.396-64.488-31.652-3.876-5.628-10.064-9.151-17.074-9.151-11.311 0-20.48 9.169-20.48 20.48 0 4.168 1.245 8.046 3.384 11.281 22.574 30.426 58.457 49.984 98.909 50.001 39.936-2.097 75.9-17.558 103.868-41.953 26.808-23.496 61.992-38.438 100.624-39.957 26.897 3.507 50.063 16.006 67.11 34.286 3.817 4.111 9.166 6.634 15.103 6.634 5.36 0 10.24-2.056 13.893-5.423zM901.12 471.040c0-11.311-9.169-20.48-20.48-20.48h-40.96c-11.311 0-20.48 9.169-20.48 20.48s9.169 20.48 20.48 20.48h40.96c11.311 0 20.48-9.169 20.48-20.48zM901.12 348.16c0-11.311-9.169-20.48-20.48-20.48h-40.96c-11.311 0-20.48 9.169-20.48 20.48s9.169 20.48 20.48 20.48h40.96c11.311 0 20.48-9.169 20.48-20.48z" />
<glyph unicode="&#xe918;" glyph-name="mixer" d="M933.536 851.616c-32.267 30.722-76.033 49.623-124.214 49.623-2.305 0-4.6-0.043-6.884-0.129-102.757-5.977-194.153-51.591-259.7-121.681-122.451-122.472-157.214-287.508-83.392-378.73l-124.748-124.744c-8.732 5.476-19.344 8.725-30.715 8.725-16.576 0-31.54-6.902-42.174-17.99l-202.771-202.772c-11.005-11.099-17.806-26.382-17.806-43.254 0-33.932 27.508-61.44 61.44-61.44 16.872 0 32.155 6.8 43.258 17.81l202.748 202.748c11.073 11.099 17.919 26.418 17.919 43.336 0 8.113-1.575 15.859-4.435 22.948l127.315 126.756c29.99-21.36 67.373-34.149 107.744-34.149 1.326 0 2.648 0.014 3.967 0.041 102.887 5.983 194.282 51.597 259.827 121.687 128.182 128.194 160.598 303.241 72.62 391.215zM319.623 208.74l-202.752-202.752c-3.712-3.743-8.857-6.060-14.543-6.060-11.311 0-20.48 9.169-20.48 20.48 0 5.688 2.319 10.834 6.063 14.545l202.753 202.753c3.712 3.744 8.858 6.062 14.545 6.062 11.311 0 20.48-9.169 20.48-20.48 0-5.687-2.318-10.832-6.061-14.543zM469.537 469.094c-4.933 16.165-7.774 34.745-7.774 53.988 0 13.512 1.4 26.696 4.064 39.416 16.44 73.636 53.814 138.049 105.525 187.625 58.535 62.948 139.671 103.949 230.374 109.981 1.257 0.057 1.509 0.057 1.76 0.057 18.143 0 35.631-2.806 52.053-8.007-89.121-39.367-163.827-93.346-225.761-159.439-66.383-62.375-120.203-136.475-158.418-219.258zM499.823 418.144c-2.957 24.711 35.897 122.569 158.544 245.215 102.892 102.892 202.007 158.417 243.024 158.417 0.946 0 1.749-0.037 2.413-0.090 2.961-24.711-35.893-122.565-158.544-245.215-102.896-102.892-202.007-158.417-243.016-158.417-0.93 0-1.733 0.037-2.4 0.090zM832.147 489.583c-58.398-62.82-139.525-103.822-230.218-109.86-1.254-0.057-1.5-0.057-1.746-0.057-18.148 0-35.641 2.807-52.068 8.011 89.111 39.371 163.808 93.349 225.736 159.439 66.643 62.554 120.605 136.963 158.78 220.123 26.172-74.366-12.445-189.639-100.464-277.658z" />
<glyph unicode="&#xe919;" glyph-name="outdoor-bbq" d="M880.64 655.36h-737.28c-11.311 0-20.48-9.169-20.48-20.48s9.169-20.48 20.48-20.48h20.48v-20.48c0.041-154.143 100.232-284.874 239.040-330.664l-154.961-315.538c-1.364-2.669-2.163-5.821-2.163-9.161 0-11.312 9.17-20.482 20.482-20.482 7.973 0 14.882 4.555 18.266 11.205l55.837 111.679h317.067c-1.316-6.157-2.069-13.23-2.069-20.48 0-56.554 45.846-102.4 102.4-102.4s102.4 45.846 102.4 102.4c0 56.547-45.834 102.388-102.378 102.4-22.389-0.034-43.073-7.303-59.846-19.594l-79.255 159.267c141.268 46.493 241.46 177.224 241.5 331.362v20.484h20.48c11.311 0 20.48 9.169 20.48 20.48s-9.169 20.48-20.48 20.48zM700.088 40.96h0.328v1.032c11.976 36.145 45.468 61.759 84.942 61.759 49.315 0 89.293-39.978 89.293-89.293s-39.978-89.293-89.293-89.293c-49.315 0-89.293 39.978-89.293 89.293 0 9.46 1.471 18.577 4.197 27.134zM663.179 81.92h-302.359l85.139 170.283c19.855-4.097 42.673-6.442 66.040-6.442s46.185 2.345 68.233 6.813zM819.2 593.92c0-169.662-137.538-307.2-307.2-307.2s-307.2 137.538-307.2 307.2v20.48h614.4zM617.239 712.942c-2.031 8.419-3.196 18.084-3.196 28.021 0 41.773 20.582 78.738 52.159 101.308 24.777 22.215 39.519 35.453 28.869 73.489-0.544 1.765-0.857 3.794-0.857 5.896 0 9.001 5.742 16.66 13.762 19.515 1.774 0.546 3.647 0.835 5.588 0.835 8.964 0 16.491-6.157 18.58-14.473 3.244-9.569 5.101-20.441 5.101-31.746 0-35.169-17.966-66.142-45.221-84.242-23.902-15.179-39.29-41.103-39.29-70.62 0-7.196 0.915-14.179 2.634-20.838 0.131-0.641 0.278-2.040 0.278-3.473 0-9.635-6.653-17.716-15.616-19.899l-3.81-0.393c-9.6 0.224-17.484 7.296-18.966 16.509zM453.399 712.942c-2.031 8.419-3.196 18.084-3.196 28.021 0 41.773 20.582 78.738 52.159 101.308 24.777 22.215 39.519 35.453 28.869 73.489-0.544 1.765-0.857 3.794-0.857 5.896 0 9.001 5.742 16.66 13.762 19.515 1.774 0.546 3.647 0.835 5.588 0.835 8.964 0 16.491-6.157 18.58-14.473 3.244-9.569 5.101-20.441 5.101-31.746 0-35.169-17.966-66.142-45.221-84.242-23.902-15.179-39.29-41.103-39.29-70.62 0-7.196 0.915-14.179 2.634-20.838 0.131-0.641 0.278-2.040 0.278-3.473 0-9.635-6.653-17.716-15.616-19.899l-3.81-0.393c-9.6 0.224-17.484 7.296-18.966 16.509zM289.559 712.942c-2.031 8.419-3.196 18.084-3.196 28.021 0 41.773 20.582 78.738 52.159 101.308 24.777 22.215 39.519 35.453 28.869 73.489-0.544 1.765-0.857 3.794-0.857 5.896 0 9.001 5.742 16.66 13.762 19.515 1.774 0.546 3.647 0.835 5.588 0.835 8.964 0 16.491-6.157 18.58-14.473 3.245-9.57 5.102-20.443 5.102-31.75 0-35.17-17.967-66.143-45.222-84.243-23.902-15.179-39.29-41.103-39.29-70.62 0-7.196 0.915-14.179 2.634-20.838 0.131-0.641 0.278-2.040 0.278-3.473 0-9.635-6.653-17.716-15.616-19.899l-3.81-0.389c-9.6 0.224-17.484 7.296-18.966 16.509z" />
<glyph unicode="&#xe91a;" glyph-name="pomodoro" d="M512 942.080c-214.905 0-389.12-311.149-389.12-593.92s174.215-430.080 389.12-430.080 389.12 147.309 389.12 430.080-174.215 593.92-389.12 593.92zM512-40.96c-3.899-0.167-8.474-0.263-13.070-0.263-151.478 0-278.764 103.575-314.903 243.767l656.439 2.256c-36.632-142.448-163.919-246.023-315.396-246.023-4.597 0-9.171 0.095-13.721 0.284zM173.642 245.76c-6.234 30.691-9.802 65.969-9.802 102.079 0 0.113 0 0.226 0 0.339 0 250.44 155.304 552.942 348.16 552.942s348.16-302.502 348.16-552.96c0-0.095 0-0.208 0-0.321 0-36.111-3.568-71.389-10.371-105.5zM696.32 389.12v-73.728c0-11.311-9.169-20.48-20.48-20.48s-20.48 9.169-20.48 20.48v73.728c0 11.311 9.169 20.48 20.48 20.48s20.48-9.169 20.48-20.48zM368.64 389.12v-73.728c0-11.311-9.169-20.48-20.48-20.48s-20.48 9.169-20.48 20.48v73.728c0 11.311 9.169 20.48 20.48 20.48s20.48-9.169 20.48-20.48zM532.48 430.080v-114.688c0-11.311-9.169-20.48-20.48-20.48s-20.48 9.169-20.48 20.48v114.688c0 11.311 9.169 20.48 20.48 20.48s20.48-9.169 20.48-20.48zM573.44 40.96h-122.88l61.44 122.88z" />
<glyph unicode="&#xe91b;" glyph-name="rice-cooker" d="M900.084 532.48c-10.946 205.827-180.508 368.579-388.084 368.579s-377.138-162.751-388.042-367.608l-1.078-0.971v-552.96c0-33.932 27.508-61.44 61.44-61.44h655.36c33.932 0 61.44 27.508 61.44 61.44v552.96zM512 860.16c184.991-0.23 336.21-144.513 347.517-326.686l-695.083-0.994c11.356 183.167 162.575 327.45 347.543 327.68zM286.72-40.96h-102.4c-11.311 0-20.48 9.169-20.48 20.48v61.44h122.88zM696.32-40.96h-368.64v307.2c0 11.311 9.169 20.48 20.48 20.48h327.68c11.311 0 20.48-9.169 20.48-20.48zM860.16-20.48c0-11.311-9.169-20.48-20.48-20.48h-102.4v81.92h122.88zM860.16 81.92h-122.88v184.32c0 33.932-27.508 61.44-61.44 61.44h-327.68c-33.932 0-61.44-27.508-61.44-61.44v-184.32h-122.88v409.6h696.32zM573.44 184.32c0-11.311-9.169-20.48-20.48-20.48h-81.92c-11.311 0-20.48 9.169-20.48 20.48s9.169 20.48 20.48 20.48h81.92c11.311 0 20.48-9.169 20.48-20.48zM573.44 61.44c0-11.311-9.169-20.48-20.48-20.48h-81.92c-11.311 0-20.48 9.169-20.48 20.48s9.169 20.48 20.48 20.48h81.92c11.311 0 20.48-9.169 20.48-20.48zM512 819.2c-144.153-0.2-265.065-99.469-298.313-233.362-0.571-2.664-0.643-3.291-0.643-3.936 0-4.648 3.747-8.421 8.386-8.462h581.103c4.642 0.041 8.39 3.814 8.39 8.462 0 0.645-0.072 1.272-0.209 1.876-33.68 135.943-154.575 235.207-298.69 235.422zM266.134 614.4c41.241 97.037 135.752 163.847 245.866 163.847s204.625-66.81 245.207-162.105z" />
<glyph unicode="&#xe91c;" glyph-name="roller" d="M965.042 883.126c-11.118 11.118-26.478 17.995-43.444 17.995s-32.326-6.877-43.444-17.995l-79.954-79.954c-15.555 6.267-33.591 9.902-52.476 9.902-39.883 0-75.98-16.214-102.057-42.411l-468.129-468.125c-26.136-26.174-42.298-62.313-42.298-102.226 0-18.819 3.593-36.799 10.13-53.291l-84.417-83.096c-11.005-11.099-17.806-26.382-17.806-43.254 0-33.932 27.508-61.44 61.44-61.44 16.872 0 32.155 6.8 43.258 17.81l86.303 86.303c14.006-5.084 30.173-8.024 47.026-8.024 39.603 0 75.415 16.234 101.143 42.41l468.143 468.127c25.987 26.095 42.054 62.088 42.054 101.834 0 16.593-2.8 32.531-7.953 47.369l82.492 81.177c11.115 11.118 17.989 26.475 17.989 43.438 0 16.969-6.879 32.331-18.001 43.45zM116.883 6.001c-3.706-3.707-8.827-6-14.483-6-11.311 0-20.481 9.17-20.481 20.481 0 5.655 2.292 10.775 5.998 14.481l76.452 76.448c3.67-5.087 7.334-9.546 11.252-13.766 5.395-5.19 11.34-10.075 17.653-14.468zM819.499 594.821l-468.124-468.128c-18.744-18.502-44.51-29.929-72.945-29.929-57.359 0-103.858 46.499-103.858 103.858 0 28.437 11.429 54.204 29.944 72.96l468.109 468.113c18.744 18.503 44.511 29.931 72.947 29.931 57.359 0 103.858-46.499 103.858-103.858 0-28.436-11.428-54.203-29.942-72.958zM936.079 825.201l-72.741-72.765c-4.706 6.785-9.594 12.729-14.918 18.25-4.089 3.789-8.548 7.454-13.22 10.844l71.908 72.614c3.706 3.707 8.827 6 14.483 6 11.311 0 20.481-9.17 20.481-20.481 0-5.655-2.292-10.775-5.998-14.481z" />
<glyph unicode="&#xe91d;" glyph-name="sauce-pan-hot" d="M453.399 508.142c-2.031 8.419-3.196 18.084-3.196 28.021 0 41.773 20.582 78.738 52.159 101.308 24.777 22.215 39.519 35.453 28.869 73.489-0.544 1.765-0.857 3.794-0.857 5.896 0 9.001 5.742 16.66 13.762 19.515 1.774 0.546 3.647 0.835 5.588 0.835 8.964 0 16.491-6.157 18.58-14.473 3.244-9.569 5.101-20.441 5.101-31.746 0-35.169-17.966-66.142-45.221-84.242-23.902-15.179-39.29-41.103-39.29-70.62 0-7.196 0.915-14.179 2.634-20.838 0.131-0.641 0.278-2.040 0.278-3.473 0-9.635-6.653-17.716-15.616-19.899l-3.827-0.389c-9.592 0.232-17.467 7.299-18.95 16.505zM308.539 491.52l3.686 0.36c9.103 2.212 15.756 10.293 15.756 19.928 0 1.433-0.147 2.833-0.428 4.183-1.571 5.952-2.487 12.938-2.487 20.137 0 29.512 15.382 55.431 38.565 70.178 27.965 18.533 45.932 49.506 45.932 84.675 0 11.305-1.856 22.177-5.281 32.326-1.909 7.736-9.436 13.893-18.4 13.893-1.941 0-3.814-0.289-5.579-0.825-8.030-2.865-13.771-10.524-13.771-19.525 0-2.102 0.313-4.131 0.896-6.043 10.611-37.889-4.134-51.127-28.53-73.086-31.954-22.826-52.536-59.791-52.536-101.564 0-9.937 1.165-19.603 3.365-28.867 1.329-8.478 9.212-15.548 18.788-15.771zM144.699 491.52l3.686 0.36c9.103 2.212 15.756 10.293 15.756 19.928 0 1.433-0.147 2.833-0.428 4.183-1.571 5.952-2.487 12.938-2.487 20.137 0 29.512 15.382 55.431 38.565 70.178 27.965 18.533 45.932 49.506 45.932 84.675 0 11.305-1.856 22.177-5.281 32.326-1.909 7.736-9.436 13.893-18.4 13.893-1.941 0-3.814-0.289-5.579-0.825-8.030-2.865-13.771-10.524-13.771-19.525 0-2.102 0.313-4.131 0.896-6.043 10.611-37.889-4.134-51.127-28.53-73.086-31.954-22.826-52.536-59.791-52.536-101.564 0-9.937 1.165-19.603 3.365-28.867 1.329-8.478 9.212-15.548 18.788-15.771zM1024 389.12c0-11.311-9.169-20.48-20.48-20.48h-348.16v-143.36c0-33.932-27.508-61.44-61.44-61.44h-532.48c-33.932 0-61.44 27.508-61.44 61.44v163.84c0 11.311 9.169 20.48 20.48 20.48h983.040c11.311 0 20.48-9.169 20.48-20.48zM614.4 368.64h-573.44v-143.36c0-11.311 9.169-20.48 20.48-20.48h532.48c11.311 0 20.48 9.169 20.48 20.48z" />
<glyph unicode="&#xe91e;" glyph-name="sauce-pan" d="M1003.52 491.52h-983.040c-11.311 0-20.48-9.169-20.48-20.48v-163.84c0-33.932 27.508-61.44 61.44-61.44h532.48c33.932 0 61.44 27.508 61.44 61.44v143.36h348.16c11.311 0 20.48 9.169 20.48 20.48s-9.169 20.48-20.48 20.48zM614.4 307.2c0-11.311-9.169-20.48-20.48-20.48h-532.48c-11.311 0-20.48 9.169-20.48 20.48v143.36h573.44z" />
<glyph unicode="&#xe91f;" glyph-name="spatula" d="M1013.076 683.909l-79.954 115.507c-14.235 20.391-31.42 37.576-51.149 51.372l-116.144 80.368c-9.764 6.835-21.889 10.922-34.969 10.922-16.966 0-32.327-6.877-43.445-17.996l-282.464-282.456c-11.115-11.118-17.99-26.476-17.99-43.44 0-6.948 1.153-13.626 3.279-19.854l21.773-65.276c3.998-11.596 6.306-24.958 6.306-38.859 0-33.932-13.753-64.652-35.99-86.888l-323.371-323.383c-11.005-11.099-17.806-26.382-17.806-43.254 0-33.932 27.508-61.44 61.44-61.44 16.872 0 32.155 6.8 43.258 17.81l323.367 323.367c22.233 22.238 52.951 35.993 86.882 35.993 13.904 0 27.268-2.31 39.73-6.566l64.839-21.645c5.797-1.999 12.478-3.153 19.428-3.153 16.967 0 32.327 6.877 43.446 17.996l282.46 282.46c11.119 11.119 17.996 26.479 17.996 43.445 0 13.079-4.087 25.204-11.054 35.167zM977.031 634.454l-282.456-282.46c-3.706-3.707-8.826-5.999-14.482-5.999-2.317 0-4.544 0.385-6.621 1.094l-65.56 21.859c-15.463 5.333-33.283 8.412-51.821 8.412-45.243 0-86.202-18.34-115.848-47.992l-323.355-323.367c-3.706-3.707-8.827-6-14.483-6-11.311 0-20.481 9.17-20.481 20.481 0 5.655 2.292 10.775 5.998 14.481l323.367 323.367c29.724 29.526 48.122 70.421 48.122 115.613 0 18.628-3.126 36.526-8.882 53.197l-21.553 64.563c-0.677 1.942-1.068 4.18-1.068 6.51 0 5.648 2.299 10.759 6.011 14.448l282.473 282.457c3.706 3.706 8.826 5.999 14.482 5.999 4.359 0 8.4-1.362 11.721-3.683l115.421-79.906c16.321-11.378 30.072-25.128 41.101-40.918l80.3-116.016c2.271-3.251 3.63-7.287 3.63-11.64 0-5.657-2.293-10.778-6.001-14.484zM590.95 595.927c-3.707-3.707-8.827-5.999-14.483-5.999-11.312 0-20.483 9.17-20.483 20.483 0 5.656 2.293 10.777 5.999 14.483l115.851 115.851c3.706 3.706 8.826 5.998 14.481 5.998 11.311 0 20.481-9.17 20.481-20.481 0-5.656-2.293-10.777-6-14.483zM822.653 624.894c3.707-3.706 6-8.827 6-14.483s-2.293-10.777-6-14.483l-115.851-115.851c-3.706-3.706-8.826-5.998-14.481-5.998-11.311 0-20.481 9.17-20.481 20.481 0 5.656 2.293 10.777 6 14.483l115.851 115.851c3.707 3.71 8.829 6.004 14.488 6.004s10.781-2.295 14.487-6.004zM793.702 682.803l-173.777-173.777c-3.7-3.668-8.794-5.935-14.418-5.935-11.311 0-20.48 9.169-20.48 20.48 0 5.624 2.267 10.718 5.937 14.419l173.759 173.788c3.712 3.744 8.858 6.062 14.545 6.062 11.311 0 20.48-9.169 20.48-20.48 0-5.687-2.318-10.832-6.061-14.543z" />
<glyph unicode="&#xe920;" glyph-name="stand-mixer" d="M1003.52-81.92h-102.4v573.44l55.783-4.964c0.001 0 0.001 0 0.002 0 20.578 0 37.612 15.175 40.522 34.946l25.942 181.647c0.393 2.61 0.617 5.623 0.617 8.688 0 33.928-27.5 61.432-61.426 61.44l-512.001 4.964v40.96c0 22.622-18.338 40.96-40.96 40.96h-40.96c-22.622 0-40.96-18.338-40.96-40.96v-40.96h-40.96c-113.108 0-204.8-91.692-204.8-204.8v-143.36c0-33.932 27.508-61.44 61.44-61.44h61.44v-204.8h-163.84v-102.4c0.165-57.986 27.244-109.614 69.397-143.070l-89.877-0.29c-11.311 0-20.48-9.169-20.48-20.48s9.169-20.48 20.48-20.48h983.040c11.311 0 20.48 9.169 20.48 20.48s-9.169 20.48-20.48 20.48zM368.64 819.2h40.96v-40.96h-40.96zM225.28-81.92c-79.139 0.091-143.269 64.221-143.36 143.351v61.449h286.72v-61.44c-0.091-79.139-64.221-143.269-143.351-143.36zM424.534-81.92h-84.709c42.531 33.746 69.61 85.374 69.775 143.332v102.428h-163.84v204.8h61.44c33.932 0 61.44 27.508 61.44 61.44v61.44h204.8v-252.686c-0.208-128.296-57.725-243.116-148.312-320.26zM860.16-81.92h-375.194c79.82 83.151 129.082 196.165 129.433 320.684v252.756c0 22.622-18.338 40.96-40.96 40.96h-204.8c-22.622 0-40.96-18.338-40.96-40.96v-61.44c0-11.311-9.169-20.48-20.48-20.48h-163.84c-11.311 0-20.48 9.169-20.48 20.48v143.36c0.105 90.444 73.396 163.735 163.83 163.84l675.85-4.964c11.309-0.002 20.477-9.17 20.477-20.48 0-1.022-0.075-2.026-0.219-3.007l-25.902-181.313-199.156 4.964c-11.311 0-20.48-9.169-20.48-20.48s9.169-20.48 20.48-20.48h102.4zM696.32 348.16c0-33.932 27.508-61.44 61.44-61.44s61.44 27.508 61.44 61.44c0 33.932-27.508 61.44-61.44 61.44s-61.44-27.508-61.44-61.44zM778.24 348.16c0-11.311-9.169-20.48-20.48-20.48s-20.48 9.169-20.48 20.48c0 11.311 9.169 20.48 20.48 20.48 11.306-0.012 20.468-9.174 20.48-20.479zM819.2 143.36c0-11.311-9.169-20.48-20.48-20.48h-81.92c-11.311 0-20.48 9.169-20.48 20.48s9.169 20.48 20.48 20.48h81.92c11.311 0 20.48-9.169 20.48-20.48zM819.2 61.44c0-11.311-9.169-20.48-20.48-20.48h-81.92c-11.311 0-20.48 9.169-20.48 20.48s9.169 20.48 20.48 20.48h81.92c11.311 0 20.48-9.169 20.48-20.48z" />
<glyph unicode="&#xe921;" glyph-name="stone-oven" d="M1003.52 40.96h-20.48v348.16c0 260.148-210.892 471.040-471.040 471.040s-471.040-210.892-471.040-471.040v-348.16h-20.48c-11.311 0-20.48-9.169-20.48-20.48s9.169-20.48 20.48-20.48h983.040c11.311 0 20.48 9.169 20.48 20.48s-9.169 20.48-20.48 20.48zM532.48 818.164c96.276-4.487 183.445-40.134 252.483-96.999l-46.454-67.984c-55.372 47.786-126.731 78.432-205.090 83.019zM491.52 818.164v-81.92c-79.298-4.632-150.657-35.279-206.475-83.443l-45.274 68.947c68.303 56.279 155.472 91.928 250.797 96.38zM163.84 40.96h-81.92v122.88h81.92zM163.84 389.12v-184.32h-81.92v184.32c0 13.029 0.819 25.858 1.954 38.597l80.282-32.117c-0.025-2.179-0.315-4.293-0.315-6.48zM89.727 469.496c17.244 88.546 59.612 165.219 119.292 224.481l46.617-69.87c-45.866-49.782-77.409-113.41-87.7-183.934zM819.2 40.96h-614.4v348.16c0 169.662 137.538 307.2 307.2 307.2s307.2-137.538 307.2-307.2zM768.365 624.108l46.596 69.898c59.705-59.286 102.073-135.96 118.874-221.79l-77.541-33.911c-10.518 72.396-42.062 136.023-88.149 186.045zM942.080 40.96h-81.92v122.88h81.92zM942.080 204.8h-81.92v184.32c0 2.187-0.291 4.301-0.332 6.48l80.282 32.117c1.139-12.739 1.954-25.571 1.954-38.597zM576.631 532.48c-113.464-3.775-204.813-93.445-211.241-205.857-0.051-1.616-0.065-2.836-0.065-4.058 0-84.964 66.674-154.356 150.555-158.708 68.292-0.016 136.203 58.966 136.203 117.949 0 112.435-124.518 151.142-75.452 250.675zM570.266 377.278c22.86-25.5 37.828-58.498 40.819-94.889-10.188-44.477-48.618-76.807-94.731-77.588-61.681 4.081-110.096 55.042-110.096 117.312 0 1.382 0.024 2.758 0.071 4.128 4.053 72.102 51.555 132.332 116.65 155.077 6.534-39.913 23.061-75.601 47.523-104.322z" />
<glyph unicode="&#xe922;" glyph-name="taste" d="M980.001 727.507c-3.646 5.9-10.078 9.773-17.415 9.773-3.987 0-7.708-1.144-10.851-3.121-126.551-72.39-277.65-116.424-438.75-119.775-163.075 3.461-314.158 47.48-445.451 122.251 1.647-0.635-1.951 0.425-5.796 0.425-11.311 0-20.48-9.169-20.48-20.48 0-7.213 3.729-13.556 9.365-17.204 43.885-25.908 94.757-49.666 147.954-68.505l6.221-364.63c0-169.662 137.538-307.2 307.2-307.2s307.2 137.538 307.2 307.2v362.713c59.421 20.76 110.293 44.516 158.294 72.645 1.691 1.395 5.549 7.831 5.549 15.169 0 3.975-1.133 7.686-3.093 10.827zM778.24 266.24c0-147.040-119.2-266.24-266.24-266.24s-266.24 119.2-266.24 266.24v349.118c72.986-23.673 157.186-38.599 244.459-41.334l1.301-0.617v-184.287c0-11.311 9.169-20.48 20.48-20.48s20.48 9.169 20.48 20.48v184.287l-0.119 0.59c88.694 2.772 172.894 17.697 252.375 43.163z" />
<glyph unicode="&#xe923;" glyph-name="tea-pot" d="M1003.479 573.44h-117.862c-0.001 0-0.002 0-0.003 0-16.965 0-32.325-6.876-43.443-17.994l-31.51-31.51c-31.43 133.129-140.964 233.659-276.533 251.299l-1.647 43.965c0 22.622-18.338 40.96-40.96 40.96h-40.96c-22.622 0-40.96-18.338-40.96-40.96v-43.79c-134.193-17.449-241.834-113.974-275.464-240.644l-31.736-2.286c-56.554 0-102.4-45.846-102.4-102.4s45.846-102.4 102.4-102.4h20.48v-81.92c0-135.73 110.030-245.76 245.76-245.76h204.8c135.73 0 245.76 110.030 245.76 245.76s89.608 212.484 122.88 245.76l75.874 46.957c3.707 3.706 6 8.827 6 14.483 0 11.309-9.167 20.477-20.475 20.48zM122.88 450.56v-81.92h-20.48c-33.932 0-61.44 27.508-61.44 61.44s27.508 61.44 61.44 61.44h23.31c-1.706-12.218-2.731-26.42-2.83-40.842zM450.56 819.2h40.96v-40.96h-40.96zM450.56 737.28h40.96c113.541-0.181 211.593-66.313 257.912-162.128l-557.53-1.712c47.066 97.528 145.118 163.659 258.634 163.84zM778.24 245.76c-0.133-113.054-91.746-204.667-204.787-204.8h-204.813c-113.054 0.133-204.667 91.746-204.8 204.787v204.813c0.025 29.224 4.437 57.408 12.611 83.943l151.229-2.023v-52.961l-75.919-75.919c-3.706-3.705-5.999-8.824-6.001-14.479v-122.88c0-11.311 9.169-20.48 20.48-20.48h163.84c11.311 0 20.48 9.169 20.48 20.48v122.88c-0.001 5.655-2.294 10.774-6.001 14.479l-75.919 75.919v52.961h397.525c7.638-24.512 12.050-52.696 12.075-81.907zM348.16 442.081l61.44-61.44v-93.921h-122.88v93.921zM920.531 526.336c-2.8-1.746-5.227-3.683-7.41-5.865-35.615-49.797-67.139-106.619-91.88-166.94l-2.042 97.029c0 7.709-0.631 15.262-1.155 22.839l53.088 53.084c3.715 3.693 8.83 5.981 14.48 5.997h44.821z" />
<glyph unicode="&#xe924;" glyph-name="temperature-controller" d="M512 942.080c-282.77 0-512-229.23-512-512s229.23-512 512-512c282.77 0 512 229.23 512 512s-229.23 512-512 512zM512-40.96c-260.148 0-471.040 210.892-471.040 471.040s210.892 471.040 471.040 471.040c260.148 0 471.040-210.892 471.040-471.040-0.303-260.027-211.014-470.737-471.011-471.040zM512 778.24c-192.283 0-348.16-155.877-348.16-348.16s155.877-348.16 348.16-348.16c192.283 0 348.16 155.877 348.16 348.16s-155.877 348.16-348.16 348.16zM512 122.88c-169.662 0-307.2 137.538-307.2 307.2s137.538 307.2 307.2 307.2c169.662 0 307.2-137.538 307.2-307.2-0.198-169.582-137.618-307.002-307.181-307.2zM524.288 446.464c4.997-3.776 8.192-9.707 8.192-16.384 0-11.311-9.169-20.48-20.48-20.48-4.634 0-8.908 1.539-12.34 4.133l-163.788 122.843c-4.997 3.776-8.192 9.707-8.192 16.384 0 11.311 9.169 20.48 20.48 20.48 4.634 0 8.908-1.539 12.34-4.133z" />
<glyph unicode="&#xe925;" glyph-name="tissue" d="M757.76 778.24c-56.553 0-102.4-73.351-102.4-163.84s45.847-163.84 102.4-163.84 102.4 73.351 102.4 163.84-45.847 163.84-102.4 163.84zM757.76 491.52c-29.004 0-61.44 52.552-61.44 122.88s32.436 122.88 61.44 122.88 61.44-52.552 61.44-122.88-32.436-122.88-61.44-122.88zM757.76 942.080h-491.52c-146.97-0.175-266.065-119.27-266.24-266.223v-696.337c0.037-33.917 27.523-61.403 61.436-61.44h409.604c33.917 0.037 61.403 27.523 61.44 61.436v307.204h225.28c147.046 0 266.24 146.711 266.24 327.68s-119.194 327.68-266.24 327.68zM491.52 614.4v-634.88c0-11.311-9.169-20.48-20.48-20.48h-409.6c-11.311 0-20.48 9.169-20.48 20.48v696.32c0.144 124.361 100.919 225.136 225.266 225.28h362.743c-83.954-63.657-137.622-163.465-137.622-275.807 0-3.838 0.063-7.66 0.187-11.468zM757.76 327.68h-225.28v286.72c0 158.106 101.061 286.72 225.28 286.72s225.28-128.614 225.28-286.72-101.061-286.72-225.28-286.72z" />
<glyph unicode="&#xe926;" glyph-name="toaster" d="M861.106 589.357c-32.546 12.292-73.922 24.809-116.235 34.916l-7.591 72.047c45.243 0 81.92 36.677 81.92 81.92v81.92c0 45.243-36.677 81.92-81.92 81.92h-491.52c-45.243 0-81.92-36.677-81.92-81.92v-81.92c0-45.243 36.677-81.92 81.92-81.92v-70.517c-49.905-11.64-91.282-24.161-131.569-38.939-15.811-6.342-32.272-28.665-32.272-54.833 0-0.1 0-0.2 0.001-0.3v-470.291c0-33.932 27.508-61.44 61.44-61.44h696.32c33.932 0 61.44 27.508 61.44 61.44v470.307c0 0.087 0.001 0.19 0.001 0.292 0 26.168-16.461 48.491-39.593 57.179zM204.8 778.24v81.92c0.026 22.611 18.349 40.934 40.958 40.96h491.522c22.611-0.026 40.934-18.349 40.96-40.958v-81.922c-0.026-22.611-18.349-40.934-40.958-40.96-22.624 0-40.962-18.338-40.962-40.96v-61.71c-61.446 12.923-132.157 20.464-204.579 20.75-72.864-0.285-143.574-7.827-211.885-21.935l6.864 62.895c0 22.622-18.338 40.96-40.96 40.96-22.611 0.026-40.934 18.349-40.96 40.958zM860.16 61.44c-0.014-11.305-9.175-20.466-20.479-20.48h-696.321c-11.305 0.014-20.466 9.175-20.48 20.479v470.308c-0.002 0.099-0.003 0.215-0.003 0.332 0 8.578 5.392 15.896 12.972 18.751 105.81 39.455 227.891 62.664 355.275 63.568 128.175-0.903 250.256-24.11 363.324-65.912 0.322-0.506 5.714-7.825 5.714-16.402 0-0.117-0.001-0.233-0.003-0.35zM819.2-61.44c0-11.311-9.169-20.48-20.48-20.48h-81.92c-11.311 0-20.48 9.169-20.48 20.48s9.169 20.48 20.48 20.48h81.92c11.311 0 20.48-9.169 20.48-20.48zM245.76-61.44c0-11.311-9.169-20.48-20.48-20.48h-81.92c-11.311 0-20.48 9.169-20.48 20.48s9.169 20.48 20.48 20.48h81.92c11.311 0 20.48-9.169 20.48-20.48zM716.8 409.6h-20.48v61.44c0 11.311-9.169 20.48-20.48 20.48s-20.48-9.169-20.48-20.48v-61.44h-20.48c-33.932 0-61.44-27.508-61.44-61.44s27.508-61.44 61.44-61.44h20.48v-143.36c0-11.311 9.169-20.48 20.48-20.48s20.48 9.169 20.48 20.48v143.36h20.48c33.932 0 61.44 27.508 61.44 61.44s-27.508 61.44-61.44 61.44zM716.8 327.68h-81.92c-11.311 0-20.48 9.169-20.48 20.48s9.169 20.48 20.48 20.48h81.92c11.311 0 20.48-9.169 20.48-20.48s-9.169-20.48-20.48-20.48z" />
<glyph unicode="&#xe927;" glyph-name="trash-bin" d="M749.441 896.471c-7.23 26.472-31.063 45.609-59.365 45.609-0.001 0-0.001 0-0.002 0h-397.107c-0.001 0-0.001 0-0.002 0-28.303 0-52.136-19.137-59.265-45.178l-69.86-262.022 75.694-662.323c3.616-30.803 29.565-54.477 61.044-54.477 0.001 0 0.002 0 0.003 0h381.878c31.473 0.007 57.415 23.678 61.003 54.188l75.738 662.612zM409.6 901.12h163.84v-81.92h-163.84zM273.179 885.92c2.411 8.822 10.354 15.2 19.788 15.2 0 0 0 0 0 0h75.674v-81.92c0-22.622 18.338-40.96 40.96-40.96h163.84c22.622 0 40.96 18.338 40.96 40.96v81.92h75.674c9.433-0.008 17.375-6.384 19.758-15.060l61.515-230.7h-559.653zM702.808-22.807c-1.208-10.265-9.856-18.153-20.347-18.153-0.001 0-0.001 0-0.002 0h-381.878c0 0-0.001 0-0.002 0-10.491 0-19.14 7.888-20.338 18.057l-72.836 637.303h568.23zM614.4 471.040c0-11.311-9.169-20.48-20.48-20.48h-204.8c-11.311 0-20.48 9.169-20.48 20.48s9.169 20.48 20.48 20.48h204.8c11.311 0 20.48-9.169 20.48-20.48z" />
<glyph unicode="&#xe928;" glyph-name="weigher" d="M918.323 386.818c-8.639 150.575-117.708 273.353-260.846 302.806l-2.117 88.616h156.832c28.64 0 52.703 19.597 59.512 46.113l23.055 92.279c0.389 1.492 0.612 3.204 0.612 4.968 0 11.306-9.161 20.472-20.464 20.48h-643.892c0 0-0.001 0-0.002 0-11.311 0-20.48-9.169-20.48-20.48 0-1.764 0.223-3.477 0.643-5.11l22.935-91.715c6.903-26.94 30.966-46.535 59.605-46.535 0.004 0 0.009 0 0.013 0h156.831v-88.252c-145.255-29.816-254.325-152.594-262.923-302.296l-20.192-363.804c-0.060-1.018-0.095-2.209-0.095-3.408 0-33.932 27.508-61.44 61.44-61.44 0 0 0 0 0 0h648.339c0 0 0 0 0 0 33.932 0 61.44 27.508 61.44 61.44 0 1.199-0.034 2.39-0.102 3.571zM293.728 819.2c-0.006 0-0.013 0-0.021 0-9.542 0-17.557 6.533-19.818 15.37l-16.628 66.55h591.397l-16.597-66.404c-2.29-8.981-10.307-15.516-19.85-15.516-0.007 0-0.014 0-0.021 0h-518.462zM614.4 778.24v-81.92h-122.88v81.92zM892.010 6.406c-3.716-3.948-8.977-6.406-14.811-6.406-0.025 0-0.049 0-0.074 0h-648.336c-0.001 0-0.002 0-0.003 0-11.311 0-20.48 9.169-20.48 20.48 0 0.399 0.011 0.796 0.034 1.189l20.158 362.876c8.721 151.334 133.546 270.762 286.276 270.815h76.367c152.736-0.054 277.561-119.481 286.246-270.048l20.196-363.702c0.022-0.355 0.035-0.77 0.035-1.188 0-5.438-2.137-10.378-5.617-14.024zM729.6 487.039c4.699-3.791 7.68-9.549 7.68-16.003 0-4.858-1.689-9.322-4.512-12.836l-127.74-159.675c6.164-9.56 9.827-21.237 9.827-33.769 0-34.758-28.177-62.935-62.935-62.935s-62.935 28.177-62.935 62.935c0 34.758 28.177 62.935 62.935 62.935 7.549 0 14.788-1.329 21.495-3.766l127.386 159.916c3.802 4.685 9.56 7.655 16.012 7.655 4.851 0 9.31-1.679 12.828-4.488z" />
<glyph unicode="&#xe929;" glyph-name="blowing-wind" d="M1024 573.44c-0.107-90.443-73.397-163.733-163.83-163.84h-593.93c-11.311 0-20.48 9.169-20.48 20.48s9.169 20.48 20.48 20.48h593.92c67.865 0 122.88 55.015 122.88 122.88s-55.015 122.88-122.88 122.88c-11.311 0-20.48 9.169-20.48 20.48s9.169 20.48 20.48 20.48c90.443-0.107 163.733-73.397 163.84-163.83zM696.32 327.68h-675.84c-11.311 0-20.48-9.169-20.48-20.48s9.169-20.48 20.48-20.48h675.84c67.865 0 122.88-55.015 122.88-122.88s-55.015-122.88-122.88-122.88c-11.311 0-20.48-9.169-20.48-20.48s9.169-20.48 20.48-20.48c90.486 0 163.84 73.354 163.84 163.84s-73.354 163.84-163.84 163.84zM143.36 532.48h614.4c11.311 0 20.48 9.169 20.48 20.48s-9.169 20.48-20.48 20.48h-614.4c-11.311 0-20.48-9.169-20.48-20.48s9.169-20.48 20.48-20.48zM491.52 204.8h-348.16c-11.311 0-20.48-9.169-20.48-20.48s9.169-20.48 20.48-20.48h348.16c45.243 0 81.92-36.677 81.92-81.92s-36.677-81.92-81.92-81.92c-11.311 0-20.48-9.169-20.48-20.48s9.169-20.48 20.48-20.48c67.865 0 122.88 55.015 122.88 122.88s-55.015 122.88-122.88 122.88z" />
<glyph unicode="&#xe92a;" glyph-name="cloud" d="M696.32 614.4c-32.596-0.028-63.69-6.424-92.117-18.010-54.011 85.242-148.553 140.358-255.968 140.358-169.705 0-307.278-137.573-307.278-307.278 0-162.472 126.097-295.493 285.764-306.536l369.599-0.053c135.73 0 245.76 110.030 245.76 245.76s-110.030 245.76-245.76 245.76zM696.32 163.84h-367.235c-138.614 10.461-247.12 125.501-247.12 265.884 0 147.096 119.13 266.367 266.173 266.596 114.874 0 182.986-59.453 241.612-149.787 31.026 15.899 67.519 25.706 106.181 26.897 113.496 0.009 205.188-91.683 205.188-204.791s-91.692-204.8-204.8-204.8z" />
<glyph unicode="&#xe92b;" glyph-name="cloudy-night" d="M842.633 483.84v0c36.249 39.213 58.481 91.847 58.481 149.674 0 11.923-0.945 23.625-2.765 35.036-17.203-8.728-37.414-13.108-58.638-13.19-95.898 0-174.611 89.469-183.462 203.809-114.815-10.332-204.273-105.522-205.467-221.859-30.907 11.393-66.614 18.055-103.878 18.055-168.97 0-305.947-136.977-305.947-305.947 0-0.442 0.001-0.884 0.003-1.326 0.007-162.531 126.033-295.694 285.734-307.076l369.625-0.056c0.067 0 0.145 0 0.224 0 135.605 0 245.535 109.93 245.535 245.535 0 80.592-38.829 152.116-98.799 196.884zM622.141 811.041c25.821-114.762 113.5-196.641 217.539-196.641 6.857 0.002 13.625 0.366 20.292 1.075-5.716-43.078-24.837-80.896-53.295-109.388l0.002 0.002c-32.101 16.641-70.081 26.399-110.341 26.399-32.601 0-63.707-6.399-92.131-18.009-26.922 44.020-64.85 79.050-109.442 103.409-2.098 6.231-3.253 11.457-3.253 17.003 0.529 82.423 54.691 152.056 129.315 175.788zM696.32 81.92h-367.239c-138.967 10.050-247.903 125.26-247.903 265.913 0 147.221 119.346 266.568 266.568 266.568 93.352 0 175.497-47.986 223.112-120.638l18.892-29.154 31.191 12.366c22.352 9.12 48.288 14.414 75.46 14.414 113.072 0 204.734-91.663 204.734-204.734s-91.663-204.734-204.734-204.734c-0.029 0-0.058 0-0.086 0z" />
<glyph unicode="&#xe92c;" glyph-name="cloudy-day" d="M847.741 480.018l0.098-0.061c7.727 21.786 12.192 46.913 12.192 73.083 0 124.344-100.801 225.145-225.145 225.145-91.277 0-169.867-54.317-205.211-132.39l-0.541-1.416c-24.198 6.845-51.989 10.78-80.698 10.78-169.8 0-307.45-137.65-307.45-307.45 0-162.497 126.064-295.55 285.727-306.694l369.607-0.054c0.052 0 0.113 0 0.175 0 135.63 0 245.58 109.95 245.58 245.58 0 78.341-36.682 148.114-93.808 193.080zM634.88 737.28c101.749-0.119 184.201-82.571 184.32-184.308-0.259-17.67-2.997-34.59-7.879-50.574-32.996 19.42-72.661 30.082-114.816 30.082-32.657 0-63.819-6.398-92.302-18.010-31.873 51.548-78.7 91.283-133.933 115.325 27.905 64.157 91.196 107.28 164.582 107.485zM696.32 81.92h-367.239c-138.614 10.461-247.12 125.501-247.12 265.884 0 147.097 119.133 266.37 266.177 266.596 115.066 0 183.113-59.671 241.612-149.778 31.027 15.893 67.52 25.697 106.181 26.889 113.497 0.010 205.189-91.683 205.189-204.79s-91.692-204.8-204.8-204.8zM614.4 839.68v40.96c0 11.311 9.169 20.48 20.48 20.48s20.48-9.169 20.48-20.48v-40.96c0-11.311-9.169-20.48-20.48-20.48s-20.48 9.169-20.48 20.48zM983.040 552.96c0-11.311-9.169-20.48-20.48-20.48h-40.96c-11.311 0-20.48 9.169-20.48 20.48s9.169 20.48 20.48 20.48h40.96c11.311 0 20.48-9.169 20.48-20.48zM374.637 784.241c-3.667 3.699-5.933 8.793-5.933 14.416 0 11.311 9.169 20.48 20.48 20.48 5.625 0 10.72-2.268 14.421-5.939l28.961-28.957c3.707-3.706 6-8.827 6-14.483 0-11.311-9.17-20.481-20.481-20.481-5.655 0-10.775 2.292-14.481 5.998zM837.194 755.274c-3.707 3.706-6 8.827-6 14.483s2.293 10.777 6 14.483l28.963 28.959c3.713 3.745 8.859 6.064 14.547 6.064 11.311 0 20.48-9.169 20.48-20.48 0-5.686-2.317-10.831-6.059-14.541l-28.968-28.968c-3.706-3.706-8.826-5.998-14.481-5.998s-10.775 2.292-14.481 5.998z" />
<glyph unicode="&#xe92d;" glyph-name="day" d="M512 737.28c-169.662 0-307.2-137.538-307.2-307.2s137.538-307.2 307.2-307.2c169.662 0 307.2 137.538 307.2 307.2s-137.538 307.2-307.2 307.2zM512 163.84c-147.040 0-266.24 119.2-266.24 266.24s119.2 266.24 266.24 266.24c147.040 0 266.24-119.2 266.24-266.24-0.172-146.971-119.269-266.068-266.224-266.24zM491.52 839.68v81.92c0 11.311 9.169 20.48 20.48 20.48s20.48-9.169 20.48-20.48v-81.92c0-11.311-9.169-20.48-20.48-20.48s-20.48 9.169-20.48 20.48zM532.48 20.48v-81.92c0-11.311-9.169-20.48-20.48-20.48s-20.48 9.169-20.48 20.48v81.92c0 11.311 9.169 20.48 20.48 20.48s20.48-9.169 20.48-20.48zM122.88 430.080c0-11.311-9.169-20.48-20.48-20.48h-81.92c-11.311 0-20.48 9.169-20.48 20.48s9.169 20.48 20.48 20.48h81.92c11.311 0 20.48-9.169 20.48-20.48zM1024 430.080c0-11.311-9.169-20.48-20.48-20.48h-81.92c-11.311 0-20.48 9.169-20.48 20.48s9.169 20.48 20.48 20.48h81.92c11.311 0 20.48-9.169 20.48-20.48zM149.959 763.154c-3.707 3.707-5.999 8.827-5.999 14.483 0 11.312 9.17 20.483 20.483 20.483 5.656 0 10.777-2.293 14.483-5.999l57.926-57.93c3.557-3.679 5.749-8.697 5.749-14.228 0-11.311-9.169-20.48-20.48-20.48-5.53 0-10.549 2.192-14.233 5.755zM874.041 97.006c3.707-3.707 5.999-8.827 5.999-14.483 0-11.312-9.17-20.483-20.483-20.483-5.656 0-10.777 2.293-14.483 5.999l-57.926 57.93c-3.557 3.679-5.749 8.697-5.749 14.228 0 11.311 9.169 20.48 20.48 20.48 5.53 0 10.549-2.192 14.233-5.755zM236.851 154.931c3.705-3.706 5.996-8.825 5.996-14.479s-2.291-10.773-5.996-14.479l-57.926-57.934c-3.707-3.707-8.827-5.999-14.483-5.999-11.312 0-20.483 9.17-20.483 20.483 0 5.656 2.293 10.777 5.999 14.483l57.93 57.926c3.706 3.706 8.826 5.998 14.481 5.998s10.775-2.292 14.481-5.998zM874.041 792.121c3.707-3.706 6-8.827 6-14.483s-2.293-10.777-6-14.483l-57.93-57.926c-3.679-3.557-8.697-5.749-14.228-5.749-11.311 0-20.48 9.169-20.48 20.48 0 5.53 2.192 10.549 5.755 14.233l57.92 57.924c3.706 3.707 8.827 6 14.483 6 5.654 0 10.773-2.291 14.479-5.996z" />
<glyph unicode="&#xe92e;" glyph-name="decrease-temperature" d="M450.56 143.36c-0.012-56.545-45.853-102.379-102.4-102.379-56.554 0-102.4 45.846-102.4 102.4 0 49.304 34.845 90.47 81.253 100.214l0.667 104.565c0 11.311 9.169 20.48 20.48 20.48s20.48-9.169 20.48-20.48v-104.448c47.075-9.861 81.92-51.027 81.92-100.331 0-0.007 0-0.015 0-0.022zM880.64 778.24h-245.76c-11.311 0-20.48-9.169-20.48-20.48s9.169-20.48 20.48-20.48h245.76c11.311 0 20.48 9.169 20.48 20.48s-9.169 20.48-20.48 20.48zM532.48 143.36c0-0.020 0-0.044 0-0.068 0-101.797-82.523-184.32-184.32-184.32s-184.32 82.523-184.32 184.32c0 63.624 32.237 119.719 81.268 152.843l0.652 604.985c0 22.622 18.338 40.96 40.96 40.96h122.88c22.622 0 40.96-18.338 40.96-40.96v-604.57c49.679-33.485 81.92-89.54 81.92-153.125 0-0.023 0-0.046 0-0.069zM491.52 143.36c0 0.001 0 0.003 0 0.005 0 49.48-25.090 93.1-63.241 118.833l-18.679 12.493v626.43h-122.88v-626.43l-18.166-12.169c-38.636-26.081-63.705-69.703-63.705-119.181 0-79.162 64.173-143.335 143.335-143.335s143.335 64.173 143.335 143.335c0 0.007 0 0.014 0 0.021z" />
<glyph unicode="&#xe92f;" glyph-name="drizzling-day" d="M641.307 839.68v40.96c0 11.311 9.169 20.48 20.48 20.48s20.48-9.169 20.48-20.48v-40.96c0-11.311-9.169-20.48-20.48-20.48s-20.48 9.169-20.48 20.48zM1003.52 573.44h-40.96c-11.311 0-20.48-9.169-20.48-20.48s9.169-20.48 20.48-20.48h40.96c11.311 0 20.48 9.169 20.48 20.48s-9.169 20.48-20.48 20.48zM444.559 741.22c3.707-3.707 8.827-5.999 14.483-5.999 11.312 0 20.483 9.17 20.483 20.483 0 5.656-2.293 10.777-5.999 14.483l-28.967 28.942c-3.699 3.667-8.793 5.933-14.416 5.933-11.311 0-20.48-9.169-20.48-20.48 0-5.625 2.268-10.72 5.939-14.421zM879.010 741.22l28.959 28.967c3.496 3.667 5.647 8.643 5.647 14.121 0 11.311-9.169 20.48-20.48 20.48-5.484 0-10.465-2.156-14.141-5.666l-28.959-28.959c-3.707-3.707-5.999-8.827-5.999-14.483 0-11.312 9.17-20.483 20.483-20.483 5.656 0 10.777 2.293 14.483 5.999zM877.99 492.593c39.74-43.44 64.087-101.54 64.087-165.327 0-111.788-74.779-206.11-177.043-235.673-3.388-0.923-5.291-1.207-7.26-1.207-0.025 0-0.050 0-0.075 0-11.292 0.019-20.442 9.181-20.442 20.48 0 9.319 6.225 17.185 14.743 19.666 86.845 25.174 149.154 103.868 149.154 197.115 0 113.126-91.707 204.833-204.833 204.833 0 0 0 0 0 0-0.002 0-0.004 0-0.006 0-32.637 0-63.473-7.715-90.783-21.42-1.462-0.795-4.565-1.571-7.848-1.571-7.598 0-14.225 4.157-17.732 10.32-46.64 81.451-132.938 135.379-231.832 135.379-147.018 0-266.199-119.181-266.199-266.199 0-119.918 79.294-221.317 188.311-254.623 10.722-2.897 17.113-10.848 17.113-20.29 0-11.311-9.169-20.48-20.48-20.48-2.299 0-4.51 0.379-6.573 1.078-127.851 38.974-219.366 156.003-219.366 294.407 0 169.682 137.552 307.237 307.234 307.241 44.1-0.165 85.941-9.658 123.71-26.604 38.288 65.831 109.227 108.528 190.138 108.528 124.297 0 225.059-100.762 225.059-225.059 0-0.079 0-0.158 0-0.237-0.245-21.586-3.545-42.32-9.486-61.906zM846.107 552.96c0 0.155 0.001 0.338 0.001 0.522 0 101.508-82.288 183.796-183.796 183.796-65.217 0-122.5-33.967-155.124-85.176 39.744-25.131 72.927-57.105 97.969-94.938 27.504 9.878 58.606 16.276 91.203 16.276 55.401 0 106.485-18.482 147.422-49.617 1.152 9.013 2.211 18.916 2.324 29.047zM545.296 187.695c7.074-9.875 69.104-98.439 69.104-167.215 0-56.554-45.846-102.4-102.4-102.4s-102.4 45.846-102.4 102.4c0 61.891 57.037 149.389 68.465 166.298l32.961 48.742zM573.44 20.48c0 57.598-61.44 143.36-61.44 143.36s-61.44-90.882-61.44-143.36c0-33.932 27.508-61.44 61.44-61.44s61.44 27.508 61.44 61.44z" />
<glyph unicode="&#xe930;" glyph-name="drizzling-night" d="M843.19 526.52c35.917 39.084 57.933 91.44 57.933 148.937 0 11.924-0.947 23.628-2.77 35.039-17.205-8.727-37.417-13.105-58.643-13.185-95.901 0-174.61 89.469-183.466 203.809-114.688-10.33-204.067-105.334-205.434-221.502-30.37 10.537-65.384 16.703-101.839 16.703-0.286 0-0.571 0-0.856-0.001-169.624-0.022-307.158-137.57-307.158-307.241 0-138.393 91.501-255.415 217.306-293.869 4.095-1.228 6.306-1.607 8.605-1.607 11.311 0 20.48 9.169 20.48 20.48 0 9.443-6.391 17.393-15.083 19.762-111.113 33.809-190.467 135.248-190.467 255.22 0 147.040 119.2 266.24 266.24 266.24 98.945 0 185.283-53.974 231.178-134.086 4.246-7.565 10.873-11.722 18.471-11.722 3.284 0 6.386 0.776 9.133 2.155 26.020 13.116 56.85 20.828 89.481 20.828 0.006 0 0.013 0 0.019 0 113.114-0.015 204.805-91.716 204.805-204.833 0-93.231-62.287-171.914-147.518-196.706-10.111-2.878-16.336-10.743-16.336-20.062 0-11.299 9.15-20.461 20.444-20.48 0.023 0 0.048 0 0.073 0 1.969 0 3.872 0.284 5.67 0.814 103.718 30.397 178.33 124.679 178.62 236.434 0.009 0.822 0.014 1.753 0.014 2.685 0 80.129-38.619 151.238-98.26 195.73zM806.912 548.315c-31.999 15.852-69.677 25.127-109.522 25.127-0.376 0-0.752-0.001-1.128-0.002 0.001 0-0.066 0-0.133 0-32.513 0-63.532-6.399-91.866-18.007-26.675 44.847-64.705 80.532-109.613 105.272-2.291 5.14-2.844 10.417-3.116 15.768 0.508 82.784 54.668 152.422 129.292 176.158 27.12-114.401 114.811-196.28 218.853-196.28 6.857 0.002 13.626 0.367 20.292 1.075-5.713-42.95-24.744-80.663-53.067-109.118zM409.6 20.48c0-56.554 45.846-102.4 102.4-102.4s102.4 45.846 102.4 102.4c0 77.279-71.27 170.222-103.375 215.040-28.627-42.328-101.425-142.131-101.425-215.040zM573.44 20.48c0-33.932-27.508-61.44-61.44-61.44s-61.44 27.508-61.44 61.44c0 52.478 61.44 143.36 61.44 143.36s61.44-85.762 61.44-143.36z" />
<glyph unicode="&#xe931;" glyph-name="drizzling" d="M942.080 409.6c-0.292-111.786-74.903-206.067-177.018-236.060-3.4-0.933-5.303-1.218-7.272-1.218-0.025 0-0.050 0-0.075 0-11.292 0.019-20.442 9.181-20.442 20.48 0 9.319 6.225 17.185 14.743 19.666 86.815 25.193 149.096 103.873 149.096 197.099 0 113.112-91.683 204.809-204.789 204.833-0.004 0-0.006 0-0.008 0-32.637 0-63.473-7.715-90.783-21.42-1.462-0.795-4.565-1.571-7.848-1.571-7.598 0-14.225 4.157-17.732 10.32-46.64 81.451-132.938 135.379-231.832 135.379-147.018 0-266.199-119.181-266.199-266.199 0-119.918 79.294-221.317 188.311-254.623 10.722-2.897 17.113-10.848 17.113-20.29 0-11.311-9.169-20.48-20.48-20.48-2.299 0-4.51 0.379-6.573 1.078-127.917 38.917-219.498 155.971-219.498 294.416 0 169.662 137.538 307.2 307.2 307.2 107.612 0 202.301-55.332 257.167-139.098 27.436 9.851 58.455 16.25 90.968 16.25 0.067 0 0.135 0 0.202 0 135.657-0.154 245.596-110.092 245.749-245.745zM511.025 235.52c32.104-44.814 103.375-137.761 103.375-215.040 0-56.554-45.846-102.4-102.4-102.4s-102.4 45.846-102.4 102.4c0 72.761 72.385 172.089 101.425 215.040zM512 163.84s-61.44-90.882-61.44-143.36c0-33.932 27.508-61.44 61.44-61.44s61.44 27.508 61.44 61.44c0 57.598-61.44 143.36-61.44 143.36z" />
<glyph unicode="&#xe932;" glyph-name="flake-day" d="M641.307 839.68v40.96c0 11.311 9.169 20.48 20.48 20.48s20.48-9.169 20.48-20.48v-40.96c0-11.311-9.169-20.48-20.48-20.48s-20.48 9.169-20.48 20.48zM1003.52 573.44h-40.96c-11.311 0-20.48-9.169-20.48-20.48s9.169-20.48 20.48-20.48h40.96c11.311 0 20.48 9.169 20.48 20.48s-9.169 20.48-20.48 20.48zM444.563 741.22c3.706-3.706 8.826-5.998 14.481-5.998 11.311 0 20.481 9.17 20.481 20.481 0 5.656-2.293 10.777-6 14.483l-28.963 28.942c-3.707 3.707-8.827 5.999-14.483 5.999-11.312 0-20.483-9.17-20.483-20.483 0-5.656 2.293-10.777 5.999-14.483zM879.010 741.22l28.963 28.967c3.522 3.672 5.69 8.666 5.69 14.166 0 11.311-9.169 20.48-20.48 20.48-5.507 0-10.507-2.174-14.188-5.71l-28.956-28.96c-3.707-3.706-6-8.827-6-14.483 0-11.311 9.17-20.481 20.481-20.481 5.655 0 10.775 2.292 14.481 5.998zM877.994 492.593c39.74-43.44 64.087-101.54 64.087-165.327 0-111.788-74.779-206.11-177.043-235.673-3.388-0.923-5.291-1.207-7.26-1.207-0.025 0-0.050 0-0.075 0-11.292 0.019-20.442 9.181-20.442 20.48 0 9.319 6.225 17.185 14.743 19.666 86.845 25.174 149.154 103.868 149.154 197.115 0 113.126-91.707 204.833-204.833 204.833-0.002 0-0.003 0-0.005 0s-0.003 0-0.005 0c-32.637 0-63.473-7.715-90.783-21.42-1.462-0.795-4.565-1.571-7.848-1.571-7.598 0-14.225 4.157-17.732 10.32-46.64 81.451-132.938 135.379-231.832 135.379-147.018 0-266.199-119.181-266.199-266.199 0-119.918 79.294-221.317 188.311-254.623 10.722-2.897 17.113-10.848 17.113-20.29 0-11.311-9.169-20.48-20.48-20.48-2.299 0-4.51 0.379-6.573 1.078-127.851 38.974-219.366 156.003-219.366 294.407 0 169.682 137.552 307.237 307.234 307.241 44.1-0.165 85.941-9.658 123.71-26.604 38.288 65.831 109.227 108.528 190.138 108.528 124.297 0 225.059-100.762 225.059-225.059 0-0.079 0-0.158 0-0.237-0.245-21.586-3.545-42.32-9.486-61.906zM846.107 552.96c0 0.155 0.001 0.338 0.001 0.522 0 101.508-82.288 183.796-183.796 183.796-65.217 0-122.5-33.967-155.124-85.176 39.744-25.131 72.927-57.105 97.969-94.938 27.504 9.878 58.606 16.276 91.203 16.276 55.401 0 106.485-18.482 147.422-49.617 1.153 9.014 2.213 18.917 2.324 29.048zM634.88 122.88h-73.437l46.957 46.961c3.816 3.723 6.182 8.917 6.182 14.663 0 11.311-9.169 20.48-20.48 20.48-5.747 0-10.941-2.367-14.661-6.18l-46.961-46.957v73.433c0 11.311-9.169 20.48-20.48 20.48s-20.48-9.169-20.48-20.48v-73.433l-46.957 46.957c-3.724 3.817-8.918 6.184-14.665 6.184-11.311 0-20.48-9.169-20.48-20.48 0-5.746 2.366-10.94 6.178-14.659l46.961-46.969h-73.437c-11.311 0-20.48-9.169-20.48-20.48s9.169-20.48 20.48-20.48h73.437l-46.957-46.961c-3.816-3.723-6.182-8.917-6.182-14.663 0-11.311 9.169-20.48 20.48-20.48 5.747 0 10.941 2.367 14.661 6.18l46.961 46.965v-73.441c0-11.311 9.169-20.48 20.48-20.48s20.48 9.169 20.48 20.48v73.441l46.957-46.961c3.724-3.817 8.918-6.184 14.665-6.184 11.311 0 20.48 9.169 20.48 20.48 0 5.746-2.366 10.94-6.178 14.659l-46.961 46.965h73.437c11.311 0 20.48 9.169 20.48 20.48s-9.169 20.48-20.48 20.48z" />
<glyph unicode="&#xe933;" glyph-name="flake-night" d="M802.23 485.56c35.917 39.095 57.932 91.46 57.932 148.966 0 11.914-0.945 23.608-2.764 35.009-17.206-8.727-37.42-13.105-58.647-13.184-95.897 0-174.61 89.469-183.462 203.809-114.688-10.328-204.068-105.334-205.43-221.502-30.37 10.537-65.385 16.704-101.84 16.704-0.288 0-0.576 0-0.865-0.001-169.623-0.022-307.158-137.57-307.158-307.241 0-138.393 91.501-255.415 217.306-293.869 4.095-1.228 6.306-1.607 8.605-1.607 11.311 0 20.48 9.169 20.48 20.48 0 9.443-6.391 17.393-15.083 19.762-111.113 33.809-190.467 135.248-190.467 255.22 0 147.040 119.2 266.24 266.24 266.24 98.945 0 185.283-53.974 231.178-134.086 4.246-7.565 10.873-11.722 18.471-11.722 3.284 0 6.386 0.776 9.133 2.155 26.020 13.116 56.85 20.828 89.481 20.828 0.006 0 0.013 0 0.019 0 113.114-0.015 204.805-91.716 204.805-204.833 0-93.231-62.287-171.914-147.518-196.706-10.111-2.878-16.336-10.743-16.336-20.062 0-11.299 9.15-20.461 20.444-20.48 0.023 0 0.048 0 0.073 0 1.969 0 3.872 0.284 5.67 0.814 103.718 30.397 178.33 124.679 178.62 236.434 0.009 0.822 0.014 1.753 0.014 2.685 0 80.129-38.619 151.238-98.26 195.73zM765.952 507.355c-31.998 15.852-69.675 25.127-109.519 25.127-0.377 0-0.755-0.001-1.132-0.002 0.002 0-0.066 0-0.133 0-32.513 0-63.532-6.399-91.866-18.007-26.674 44.848-64.705 80.533-109.613 105.272-2.29 5.137-2.843 10.414-3.115 15.765 0.507 82.787 54.668 152.425 129.292 176.161 27.12-114.401 114.811-196.28 218.853-196.28 6.857 0.002 13.625 0.366 20.292 1.075-5.709-42.951-24.741-80.664-53.066-109.118zM614.4 61.44c0-11.311-9.169-20.48-20.48-20.48h-73.437l46.957-46.961c3.816-3.723 6.182-8.917 6.182-14.663 0-11.311-9.169-20.48-20.48-20.48-5.747 0-10.941 2.367-14.661 6.18l-46.961 46.965v-73.441c0-11.311-9.169-20.48-20.48-20.48s-20.48 9.169-20.48 20.48v73.441l-46.957-46.961c-3.687-3.598-8.733-5.817-14.298-5.817-11.311 0-20.48 9.169-20.48 20.48 0 5.564 2.219 10.609 5.819 14.3l46.952 46.956h-73.437c-11.311 0-20.48 9.169-20.48 20.48s9.169 20.48 20.48 20.48h73.437l-46.957 46.961c-3.597 3.687-5.815 8.732-5.815 14.296 0 11.311 9.169 20.48 20.48 20.48 5.565 0 10.611-2.219 14.302-5.821l46.952-46.948v73.433c0 11.311 9.169 20.48 20.48 20.48s20.48-9.169 20.48-20.48v-73.433l46.957 46.957c3.724 3.817 8.918 6.184 14.665 6.184 11.311 0 20.48-9.169 20.48-20.48 0-5.746-2.366-10.94-6.178-14.659l-46.961-46.969h73.437c11.311 0 20.48-9.169 20.48-20.48z" />
<glyph unicode="&#xe934;" glyph-name="flake" d="M942.080 368.64c-0.292-111.786-74.903-206.067-177.018-236.060-3.4-0.933-5.303-1.218-7.272-1.218-0.025 0-0.050 0-0.075 0-11.292 0.019-20.442 9.181-20.442 20.48 0 9.319 6.225 17.185 14.743 19.666 86.815 25.193 149.096 103.873 149.096 197.099 0 113.112-91.683 204.809-204.789 204.833-0.004 0-0.006 0-0.008 0-32.637 0-63.473-7.715-90.783-21.42-1.462-0.795-4.565-1.571-7.848-1.571-7.598 0-14.225 4.157-17.732 10.32-46.64 81.451-132.938 135.379-231.832 135.379-147.018 0-266.199-119.181-266.199-266.199 0-119.918 79.294-221.317 188.311-254.623 10.722-2.897 17.113-10.848 17.113-20.29 0-11.311-9.169-20.48-20.48-20.48-2.299 0-4.51 0.379-6.573 1.078-127.917 38.917-219.498 155.971-219.498 294.416 0 169.662 137.538 307.2 307.2 307.2 107.612 0 202.301-55.332 257.167-139.098 27.436 9.851 58.455 16.25 90.968 16.25 0.067 0 0.135 0 0.202 0 135.657-0.154 245.596-110.092 245.749-245.745zM634.88 163.84h-73.437l46.957 46.961c3.816 3.723 6.182 8.917 6.182 14.663 0 11.311-9.169 20.48-20.48 20.48-5.747 0-10.941-2.367-14.661-6.18l-46.961-46.957v73.433c0 11.311-9.169 20.48-20.48 20.48s-20.48-9.169-20.48-20.48v-73.433l-46.957 46.957c-3.724 3.817-8.918 6.184-14.665 6.184-11.311 0-20.48-9.169-20.48-20.48 0-5.746 2.366-10.94 6.178-14.659l46.961-46.969h-73.437c-11.311 0-20.48-9.169-20.48-20.48s9.169-20.48 20.48-20.48h73.437l-46.957-46.961c-3.816-3.723-6.182-8.917-6.182-14.663 0-11.311 9.169-20.48 20.48-20.48 5.747 0 10.941 2.367 14.661 6.18l46.961 46.965v-73.441c0-11.311 9.169-20.48 20.48-20.48s20.48 9.169 20.48 20.48v73.441l46.957-46.961c3.724-3.817 8.918-6.184 14.665-6.184 11.311 0 20.48 9.169 20.48 20.48 0 5.746-2.366 10.94-6.178 14.659l-46.961 46.965h73.437c11.311 0 20.48 9.169 20.48 20.48s-9.169 20.48-20.48 20.48z" />
<glyph unicode="&#xe935;" glyph-name="gloomy-day" d="M573.44 798.72v40.96c0 11.311 9.169 20.48 20.48 20.48s20.48-9.169 20.48-20.48v-40.96c0-11.311-9.169-20.48-20.48-20.48s-20.48 9.169-20.48 20.48zM921.6 532.48h-40.96c-11.311 0-20.48-9.169-20.48-20.48s9.169-20.48 20.48-20.48h40.96c11.311 0 20.48 9.169 20.48 20.48s-9.169 20.48-20.48 20.48zM362.643 714.314c3.706-3.706 8.826-5.998 14.481-5.998 11.311 0 20.481 9.17 20.481 20.481 0 5.656-2.293 10.777-6 14.483l-28.963 28.963c-3.706 3.707-8.827 6-14.483 6-11.311 0-20.481-9.17-20.481-20.481 0-5.655 2.292-10.775 5.998-14.481zM825.197 772.243l-28.963-28.963c-3.707-3.706-6-8.827-6-14.483 0-11.311 9.17-20.481 20.481-20.481 5.655 0 10.775 2.292 14.481 5.998l28.967 28.967c3.706 3.706 5.998 8.826 5.998 14.481 0 11.311-9.17 20.481-20.481 20.481-5.656 0-10.777-2.293-14.483-6zM427.323 589.611c29.906 63.521 93.387 106.703 166.953 106.703 101.6 0 183.964-82.363 183.964-183.964 0-0.123 0-0.246 0-0.369-0.26-17.64-2.997-34.562-7.879-50.548 14.122-6.171 25.96-14.031 37.026-22.821 7.215 22.17 11.678 47.291 11.678 73.454 0 124.344-100.801 225.145-225.145 225.145-91.271 0-169.857-54.31-205.205-132.376 14.966-5.748 27.984-10.455 40.557-15.989zM115.814 122.88h702.341c9.278 11.873 17.511 25.333 24.123 39.694l-759.068 1.266c10.028-15.371 20.767-28.766 32.668-41.026zM842.801 327.68h-800.805c-0.52-6.783-1.036-13.566-1.036-20.48s0.471-13.701 0.999-20.48h814.060c-3.296 15.578-7.852 29.269-13.734 42.231zM61.739 204.8h794.28c2.631 12.313 4.138 26.459 4.141 40.958l-811.684 0.002c3.784-15.906 8.334-29.568 13.915-42.685zM776.978 409.6h-715.477c-4.88-11.39-9.379-25.057-12.745-39.164l769.4-1.796c-11.884 15.647-25.449 29.143-40.65 40.581zM289.423 41.902l14.221-0.942h351.715c45.908 0.145 88.199 15.516 122.117 41.324l-611.179-0.364c35.035-22.383 77.106-36.867 122.306-39.973zM307.2 573.44c-52.397-0.018-101.225-15.281-142.295-41.593l283.197 0.633c-39.924 25.61-88.622 40.861-140.876 40.96zM530.522 451.789c-9.925 14.879-20.501 27.868-32.176 39.775l-382.839-0.044c-11.723-12.184-22.369-25.578-31.68-39.92l447.469-1.040z" />
<glyph unicode="&#xe936;" glyph-name="gloomy-night" d="M124.17 163.84h759.591c-7.135-15.627-15.366-29.087-24.982-41.414l-702.004 0.454c-11.838 12.194-22.578 25.588-31.977 39.939zM883.761 327.68h-800.801c-0.52-6.779-1.040-13.57-1.040-20.48s0.471-13.701 0.999-20.48h814.060c-3.292 15.576-7.848 29.268-13.733 42.228zM89.44 245.76c3.781-15.905 8.329-29.567 13.91-42.683l793.628 1.723c2.632 12.313 4.14 26.46 4.141 40.959zM817.938 409.6h-715.477c-4.878-11.388-9.377-25.055-12.745-39.161l769.399-1.799c-11.885 15.646-25.45 29.142-40.65 40.581zM330.383 41.898l14.221-0.938h351.715c45.908 0.148 88.198 15.518 122.117 41.324l-611.179-0.364c35.035-22.382 77.106-36.867 122.305-39.977zM348.16 573.44c-52.397-0.018-101.225-15.281-142.295-41.593l283.197 0.633c-39.924 25.61-88.622 40.861-140.876 40.96zM571.478 451.789c-9.921 14.879-20.496 27.869-32.171 39.774l-382.839-0.043c-11.724-12.184-22.37-25.578-31.68-39.92l447.469-1.040zM491.299 594.911c0.522 82.426 54.683 152.064 129.307 175.8 27.12-114.401 114.815-196.28 218.853-196.28 6.857 0.002 13.626 0.367 20.292 1.075-5.718-43.076-24.838-80.891-53.291-109.384 13.767-7.008 25.542-14.399 36.592-22.701 35.619 39.667 57.853 92.303 57.853 150.131 0 11.922-0.945 23.623-2.764 35.032-17.206-8.729-37.42-13.109-58.647-13.189-95.902 0-174.61 89.469-183.462 203.809-114.818-10.33-204.279-105.523-205.471-221.863 16.627-5.966 30.616-12.211 44.005-19.426-2.112 6.223-3.267 11.45-3.267 16.996z" />
<glyph unicode="&#xe937;" glyph-name="gloomy" d="M83.21 245.76h759.591c-7.135-15.627-15.366-29.087-24.982-41.414l-702.004 0.454c-11.838 12.194-22.578 25.588-31.977 39.939zM842.801 409.6h-800.801c-0.52-6.779-1.040-13.57-1.040-20.48s0.471-13.701 0.999-20.48h814.060c-3.292 15.576-7.848 29.268-13.733 42.228zM48.48 327.68c3.781-15.905 8.329-29.567 13.91-42.683l793.628 1.723c2.632 12.313 4.14 26.46 4.141 40.959zM776.978 491.52h-715.477c-4.878-11.388-9.377-25.055-12.745-39.161l769.399-1.799c-11.885 15.646-25.45 29.142-40.65 40.581zM289.423 123.818l14.221-0.938h351.715c45.908 0.148 88.198 15.518 122.117 41.324l-611.179-0.364c35.035-22.382 77.106-36.867 122.305-39.977zM307.2 655.36c-52.397-0.018-101.225-15.281-142.295-41.593l283.197 0.633c-39.924 25.61-88.622 40.861-140.876 40.96zM530.518 533.709c-9.921 14.879-20.496 27.869-32.171 39.774l-382.839-0.043c-11.724-12.184-22.37-25.578-31.68-39.92l447.469-1.040z" />
<glyph unicode="&#xe938;" glyph-name="half-moon" d="M491.52 860.16c-226.216 0-409.6-183.384-409.6-409.6s183.384-409.6 409.6-409.6c226.216 0 409.6 183.384 409.6 409.6s-183.384 409.6-409.6 409.6zM491.52 81.92c3.412 3.416 0 737.28 0 737.28 203.594 0 368.64-165.046 368.64-368.64s-165.046-368.64-368.64-368.64z" />
<glyph unicode="&#xe939;" glyph-name="heavy-rain-day" d="M641.307 839.68v40.96c0 11.311 9.169 20.48 20.48 20.48s20.48-9.169 20.48-20.48v-40.96c0-11.311-9.169-20.48-20.48-20.48s-20.48 9.169-20.48 20.48zM1003.52 573.44h-40.96c-11.311 0-20.48-9.169-20.48-20.48s9.169-20.48 20.48-20.48h40.96c11.311 0 20.48 9.169 20.48 20.48s-9.169 20.48-20.48 20.48zM444.559 741.22c3.707-3.707 8.827-5.999 14.483-5.999 11.312 0 20.483 9.17 20.483 20.483 0 5.656-2.293 10.777-5.999 14.483l-28.967 28.942c-3.699 3.667-8.793 5.933-14.416 5.933-11.311 0-20.48-9.169-20.48-20.48 0-5.625 2.268-10.72 5.939-14.421zM879.010 741.22l28.959 28.967c3.496 3.667 5.647 8.643 5.647 14.121 0 11.311-9.169 20.48-20.48 20.48-5.484 0-10.465-2.156-14.141-5.666l-28.959-28.959c-3.707-3.707-5.999-8.827-5.999-14.483 0-11.312 9.17-20.483 20.483-20.483 5.656 0 10.777 2.293 14.483 5.999zM877.99 492.593c39.74-43.44 64.087-101.54 64.087-165.327 0-111.788-74.779-206.11-177.043-235.673-3.388-0.923-5.291-1.207-7.26-1.207-0.025 0-0.050 0-0.075 0-11.292 0.019-20.442 9.181-20.442 20.48 0 9.319 6.225 17.185 14.743 19.666 86.845 25.174 149.154 103.868 149.154 197.115 0 113.126-91.707 204.833-204.833 204.833 0 0 0 0 0 0-0.002 0-0.004 0-0.006 0-32.637 0-63.473-7.715-90.783-21.42-1.462-0.795-4.565-1.571-7.848-1.571-7.598 0-14.225 4.157-17.732 10.32-46.64 81.451-132.938 135.379-231.832 135.379-147.018 0-266.199-119.181-266.199-266.199 0-119.918 79.294-221.317 188.311-254.623 10.722-2.897 17.113-10.848 17.113-20.29 0-11.311-9.169-20.48-20.48-20.48-2.299 0-4.51 0.379-6.573 1.078-127.851 38.974-219.366 156.003-219.366 294.407 0 169.682 137.552 307.237 307.234 307.241 44.1-0.165 85.941-9.658 123.71-26.604 38.288 65.831 109.227 108.528 190.138 108.528 124.297 0 225.059-100.762 225.059-225.059 0-0.079 0-0.158 0-0.237-0.245-21.586-3.545-42.32-9.486-61.906zM846.107 552.96c0 0.155 0.001 0.338 0.001 0.522 0 101.508-82.288 183.796-183.796 183.796-65.217 0-122.5-33.967-155.124-85.176 39.744-25.131 72.927-57.105 97.969-94.938 27.504 9.878 58.606 16.276 91.203 16.276 55.401 0 106.485-18.482 147.422-49.617 1.152 9.013 2.211 18.916 2.324 29.047zM481.563 242.86c-3.002 1.816-6.628 2.891-10.506 2.891-7.415 0-13.912-3.931-17.521-9.822l-122.931-204.89c-1.787-2.978-2.844-6.572-2.844-10.412 0-11.311 9.169-20.48 20.48-20.48 7.366 0 13.825 3.889 17.433 9.726l122.931 204.888c1.835 3.006 2.922 6.643 2.922 10.534 0 7.428-3.96 13.931-9.884 17.513zM604.443 242.86c-3.002 1.818-6.63 2.894-10.508 2.894-7.415 0-13.912-3.932-17.519-9.825l-122.931-204.89c-1.787-2.978-2.844-6.572-2.844-10.412 0-11.311 9.169-20.48 20.48-20.48 7.366 0 13.825 3.889 17.433 9.726l122.931 204.888c1.835 3.006 2.922 6.643 2.922 10.534 0 7.428-3.96 13.931-9.884 17.513zM727.323 242.86c-3.001 1.813-6.626 2.887-10.501 2.887-7.415 0-13.913-3.928-17.526-9.818l-122.931-204.89c-1.787-2.978-2.844-6.572-2.844-10.412 0-11.311 9.169-20.48 20.48-20.48 7.366 0 13.825 3.889 17.433 9.726l122.931 204.888c1.835 3.006 2.922 6.643 2.922 10.534 0 7.428-3.96 13.931-9.884 17.513zM307.2-40.96c-11.311 0-20.48-9.169-20.48-20.48s9.169-20.48 20.48-20.48c11.311 0 20.48 9.169 20.48 20.48s-9.169 20.48-20.48 20.48zM430.080-40.96c-11.311 0-20.48-9.169-20.48-20.48s9.169-20.48 20.48-20.48c11.311 0 20.48 9.169 20.48 20.48s-9.169 20.48-20.48 20.48zM552.96-40.96c-11.311 0-20.48-9.169-20.48-20.48s9.169-20.48 20.48-20.48c11.311 0 20.48 9.169 20.48 20.48s-9.169 20.48-20.48 20.48z" />
<glyph unicode="&#xe93a;" glyph-name="heavy-rain-night" d="M842.428 565.789c35.889 40.282 58.033 93.494 58.69 151.867-0.093 11.652-1.035 22.87-2.766 33.826-17.203-8.75-37.416-13.129-58.642-13.21-95.902 0-174.611 89.469-183.466 203.809-114.59-11.587-203.522-106.689-205.302-222.931-31.007 11.422-66.836 18.136-104.232 18.136-168.863 0-305.754-136.891-305.754-305.754 0-0.51 0.001-1.020 0.004-1.53 0.597-138.128 91.824-254.867 217.29-293.818 4.108-1.242 6.319-1.621 8.618-1.621 11.311 0 20.48 9.169 20.48 20.48 0 9.443-6.391 17.393-15.083 19.762-111.113 33.809-190.467 135.248-190.467 255.22 0 147.040 119.2 266.24 266.24 266.24 98.945 0 185.283-53.974 231.178-134.086 4.246-7.565 10.873-11.722 18.471-11.722 3.284 0 6.386 0.776 9.133 2.155 26.020 13.116 56.85 20.828 89.481 20.828 0.006 0 0.013 0 0.019 0 113.114-0.015 204.805-91.716 204.805-204.833 0-93.231-62.287-171.914-147.518-196.706-10.111-2.878-16.336-10.743-16.336-20.062 0-11.299 9.15-20.461 20.444-20.48 0.023 0 0.048 0 0.073 0 1.969 0 3.872 0.284 5.67 0.814 103.856 30.011 178.622 124.358 178.622 236.168 0 80.668-38.918 152.246-99.002 196.984zM806.568 587.973c-32.082 16.661-70.046 26.432-110.292 26.432-32.569 0-63.644-6.399-92.036-18.008-26.953 44.087-64.967 79.149-109.671 103.468-2.139 6.102-3.049 12.906-3.049 17.927 0.522 82.426 54.683 152.064 129.307 175.8 27.12-114.401 114.811-196.28 218.853-196.28 6.857 0.002 13.626 0.367 20.292 1.075-6.268-43.301-25.305-81.311-53.454-110.466zM488.587 255.717l-122.88-204.8c-3.659-5.925-10.117-9.814-17.483-9.814-11.311 0-20.48 9.169-20.48 20.48 0 3.84 1.057 7.434 2.896 10.505l122.828 204.707c3.659 5.925 10.117 9.814 17.483 9.814 11.311 0 20.48-9.169 20.48-20.48 0-3.84-1.057-7.434-2.896-10.505zM611.467 255.717l-122.88-204.8c-3.659-5.925-10.117-9.814-17.483-9.814-11.311 0-20.48 9.169-20.48 20.48 0 3.84 1.057 7.434 2.896 10.505l122.828 204.707c3.659 5.925 10.117 9.814 17.483 9.814 11.311 0 20.48-9.169 20.48-20.48 0-3.84-1.057-7.434-2.896-10.505zM734.347 255.717l-122.88-204.8c-3.659-5.925-10.117-9.814-17.483-9.814-11.311 0-20.48 9.169-20.48 20.48 0 3.84 1.057 7.434 2.896 10.505l122.828 204.707c3.659 5.925 10.117 9.814 17.483 9.814 11.311 0 20.48-9.169 20.48-20.48 0-3.84-1.057-7.434-2.896-10.505zM327.68-20.48c0-11.311-9.169-20.48-20.48-20.48s-20.48 9.169-20.48 20.48c0 11.311 9.169 20.48 20.48 20.48s20.48-9.169 20.48-20.48zM450.56-20.48c0-11.311-9.169-20.48-20.48-20.48s-20.48 9.169-20.48 20.48c0 11.311 9.169 20.48 20.48 20.48s20.48-9.169 20.48-20.48zM573.44-20.48c0-11.311-9.169-20.48-20.48-20.48s-20.48 9.169-20.48 20.48c0 11.311 9.169 20.48 20.48 20.48s20.48-9.169 20.48-20.48z" />
<glyph unicode="&#xe93b;" glyph-name="heavy-rain" d="M942.080 450.56c-0.292-111.786-74.903-206.067-177.018-236.060-3.4-0.933-5.303-1.218-7.272-1.218-0.025 0-0.050 0-0.075 0-11.292 0.019-20.442 9.181-20.442 20.48 0 9.319 6.225 17.185 14.743 19.666 86.815 25.193 149.096 103.873 149.096 197.099 0 113.112-91.683 204.809-204.789 204.833-0.004 0-0.006 0-0.008 0-32.637 0-63.473-7.715-90.783-21.42-1.462-0.795-4.565-1.571-7.848-1.571-7.598 0-14.225 4.157-17.732 10.32-46.64 81.451-132.938 135.379-231.832 135.379-147.018 0-266.199-119.181-266.199-266.199 0-119.918 79.294-221.317 188.311-254.623 10.722-2.897 17.113-10.848 17.113-20.29 0-11.311-9.169-20.48-20.48-20.48-2.299 0-4.51 0.379-6.573 1.078-127.917 38.917-219.498 155.971-219.498 294.416 0 169.662 137.538 307.2 307.2 307.2 107.612 0 202.301-55.332 257.167-139.098 27.436 9.851 58.455 16.25 90.968 16.25 0.067 0 0.135 0 0.202 0 135.657-0.154 245.596-110.092 245.749-245.745zM481.55 365.74c-3.002 1.816-6.628 2.891-10.506 2.891-7.415 0-13.912-3.931-17.521-9.822l-122.931-204.89c-1.787-2.978-2.844-6.572-2.844-10.412 0-11.311 9.169-20.48 20.48-20.48 7.366 0 13.825 3.889 17.433 9.726l122.931 204.888c1.837 3.007 2.925 6.647 2.925 10.54 0 7.424-3.956 13.924-9.875 17.508zM604.43 365.74c-3.002 1.818-6.63 2.894-10.508 2.894-7.415 0-13.912-3.932-17.519-9.825l-122.931-204.89c-1.787-2.978-2.844-6.572-2.844-10.412 0-11.311 9.169-20.48 20.48-20.48 7.366 0 13.825 3.889 17.433 9.726l122.931 204.888c1.837 3.007 2.925 6.647 2.925 10.54 0 7.424-3.956 13.924-9.875 17.508zM727.31 365.74c-3.001 1.813-6.626 2.887-10.501 2.887-7.415 0-13.913-3.928-17.526-9.818l-122.931-204.89c-1.787-2.978-2.844-6.572-2.844-10.412 0-11.311 9.169-20.48 20.48-20.48 7.366 0 13.825 3.889 17.433 9.726l122.931 204.888c1.837 3.007 2.925 6.647 2.925 10.54 0 7.424-3.956 13.924-9.875 17.508zM307.2 81.92c-11.311 0-20.48-9.169-20.48-20.48s9.169-20.48 20.48-20.48c11.311 0 20.48 9.169 20.48 20.48s-9.169 20.48-20.48 20.48zM430.080 81.92c-11.311 0-20.48-9.169-20.48-20.48s9.169-20.48 20.48-20.48c11.311 0 20.48 9.169 20.48 20.48s-9.169 20.48-20.48 20.48zM552.96 81.92c-11.311 0-20.48-9.169-20.48-20.48s9.169-20.48 20.48-20.48c11.311 0 20.48 9.169 20.48 20.48s-9.169 20.48-20.48 20.48z" />
<glyph unicode="&#xe93c;" glyph-name="high-temperature" d="M614.4 255.59v604.57c0 22.622-18.338 40.96-40.96 40.96h-122.88c-22.622 0-40.96-18.338-40.96-40.96v-604.57c-49.683-33.539-81.92-89.634-81.92-153.258 0-101.797 82.523-184.32 184.32-184.32s184.32 82.523 184.32 184.32c0 63.624-32.237 119.719-81.268 152.843zM512-40.96c-0.013 0-0.028 0-0.043 0-79.153 0-143.319 64.166-143.319 143.319 0 49.496 25.091 93.132 63.247 118.882l18.674 12.489v626.43h122.88v-626.43l18.166-12.165c38.665-26.074 63.756-69.71 63.756-119.206 0-79.153-64.166-143.319-143.319-143.319-0.015 0-0.030 0-0.045 0zM614.4 102.4c-0.012-56.545-45.853-102.379-102.4-102.379-56.554 0-102.4 45.846-102.4 102.4 0 49.304 34.845 90.47 81.253 100.214l0.667 555.125c0 11.311 9.169 20.48 20.48 20.48s20.48-9.169 20.48-20.48v-555.008c47.075-9.861 81.92-51.027 81.92-100.331 0-0.007 0-0.015 0-0.022z" />
<glyph unicode="&#xe93d;" glyph-name="increase-temperature" d="M450.56 296.55v604.57c0 22.622-18.338 40.96-40.96 40.96h-122.88c-22.622 0-40.96-18.338-40.96-40.96v-604.57c-49.683-33.539-81.92-89.634-81.92-153.258 0-101.797 82.523-184.32 184.32-184.32s184.32 82.523 184.32 184.32c0 63.624-32.237 119.719-81.268 152.843zM348.16 0c-0.015 0-0.032 0-0.050 0-79.151 0-143.315 64.164-143.315 143.315 0 49.497 25.092 93.133 63.25 118.882l18.674 12.493v626.43h122.88v-626.43l18.17-12.169c38.661-26.074 63.75-69.708 63.75-119.202 0-79.153-64.166-143.319-143.319-143.319-0.014 0-0.028 0-0.043 0zM450.56 143.36c-0.012-56.545-45.853-102.379-102.4-102.379-56.554 0-102.4 45.846-102.4 102.4 0 49.304 34.845 90.47 81.253 100.214l0.667 555.125c0 11.311 9.169 20.48 20.48 20.48s20.48-9.169 20.48-20.48v-555.008c47.075-9.861 81.92-51.027 81.92-100.331 0-0.007 0-0.015 0-0.022zM901.12 798.72c0-11.311-9.169-20.48-20.48-20.48h-102.4v-102.4c0-11.311-9.169-20.48-20.48-20.48s-20.48 9.169-20.48 20.48v102.4h-102.4c-11.311 0-20.48 9.169-20.48 20.48s9.169 20.48 20.48 20.48h102.4v102.4c0 11.311 9.169 20.48 20.48 20.48s20.48-9.169 20.48-20.48v-102.4h102.4c11.311 0 20.48-9.169 20.48-20.48z" />
<glyph unicode="&#xe93e;" glyph-name="lighting-day" d="M655.36 880.64v40.96c0 11.311 9.169 20.48 20.48 20.48s20.48-9.169 20.48-20.48v-40.96c0-11.311-9.169-20.48-20.48-20.48s-20.48 9.169-20.48 20.48zM1003.52 614.4h-40.96c-11.311 0-20.48-9.169-20.48-20.48s9.169-20.48 20.48-20.48h40.96c11.311 0 20.48 9.169 20.48 20.48s-9.169 20.48-20.48 20.48zM456.561 784.241c3.729-3.857 8.95-6.252 14.731-6.252 11.311 0 20.48 9.169 20.48 20.48 0 5.781-2.395 11.002-6.247 14.725l-28.964 28.972c-3.707 3.707-8.827 5.999-14.483 5.999-11.312 0-20.483-9.17-20.483-20.483 0-5.656 2.293-10.777 5.999-14.483zM895.119 784.241l28.967 28.959c3.707 3.707 5.999 8.827 5.999 14.483 0 11.312-9.17 20.483-20.483 20.483-5.656 0-10.777-2.293-14.483-5.999l-28.959-28.967c-3.557-3.679-5.749-8.697-5.749-14.228 0-11.311 9.169-20.48 20.48-20.48 5.53 0 10.549 2.192 14.233 5.755zM877.99 533.565c39.74-43.44 64.087-101.54 64.087-165.327 0-111.788-74.779-206.11-177.043-235.673-3.388-0.923-5.291-1.207-7.26-1.207-0.025 0-0.050 0-0.075 0-11.292 0.019-20.442 9.181-20.442 20.48 0 9.319 6.225 17.185 14.743 19.666 86.823 25.188 149.11 103.872 149.11 197.103 0 113.111-91.682 204.808-204.788 204.833-0.004 0-0.006 0-0.008 0-32.637 0-63.473-7.715-90.783-21.42-1.462-0.795-4.565-1.571-7.848-1.571-7.598 0-14.225 4.157-17.732 10.32-46.64 81.451-132.938 135.379-231.832 135.379-147.018 0-266.199-119.181-266.199-266.199 0-119.918 79.294-221.317 188.311-254.623 10.722-2.897 17.113-10.848 17.113-20.29 0-11.311-9.169-20.48-20.48-20.48-2.299 0-4.51 0.379-6.573 1.078-127.851 38.974-219.366 156.003-219.366 294.407 0 169.682 137.552 307.237 307.234 307.241 44.1-0.165 85.941-9.658 123.71-26.604 38.288 65.831 109.227 108.528 190.138 108.528 124.297 0 225.059-100.762 225.059-225.059 0-0.079 0-0.158 0-0.237-0.245-21.586-3.545-42.32-9.486-61.906zM846.107 593.92c0 0.155 0.001 0.338 0.001 0.522 0 101.508-82.288 183.796-183.796 183.796-65.217 0-122.5-33.967-155.124-85.176 39.744-25.131 72.927-57.105 97.969-94.938 27.504 9.878 58.606 16.276 91.203 16.276 55.401 0 106.485-18.482 147.422-49.617 1.152 9.013 2.211 18.916 2.324 29.047zM654.5 165.634c0.546-2.508 0.859-5.39 0.859-8.345 0-10.039-3.611-19.234-9.606-26.357l-165.972-198.184c-7.565-8.992-18.823-14.666-31.406-14.666-22.622 0-40.96 18.338-40.96 40.96 0 3.858 0.533 7.59 1.53 11.129l34.181 124.578-51.843 25.919c-13.532 6.875-22.642 20.691-22.642 36.636 0 9.719 3.385 18.647 9.040 25.67l164.848 205.995c6.984 8.015 16.962 13.267 28.173 14.002 0.999 0.068 1.883 0.097 2.768 0.097h0.643c22.379-0.317 40.399-18.532 40.399-40.956 0-4.541-0.739-8.909-2.103-12.991l-32.217-128.915 52.535-26.264c11.067-5.626 19.12-15.824 21.726-28.039zM614.4 157.286l-81.92 40.96 40.96 163.84-163.84-204.8 81.92-40.96-43.143-157.286z" />
</font>
</defs>
</svg>
