<svg xmlns="http://www.w3.org/2000/svg" width="40.651" height="40.65" viewBox="0 0 40.651 40.65">
  <g id="Group_889" data-name="Group 889" transform="translate(-19.501 -20)">
    <path id="Path_622" data-name="Path 622" d="M209.117,127.656a.7.7,0,0,1-.554-.277.694.694,0,0,1,.138-.969l2.859-2.146-3.129-4.168a.234.234,0,0,0-.187-.1h-.014a.15.15,0,0,0-.124.083l-6.646,12.364a.237.237,0,0,0,.249.332l13.735-2.921a.126.126,0,0,0,.111-.1.219.219,0,0,0-.035-.215l-3.129-4.174-2.859,2.146A.714.714,0,0,1,209.117,127.656Zm0,0" transform="translate(-165.641 -90.628)" fill="#4a90e2"/>
    <g id="Group_850" data-name="Group 850" transform="translate(20.001 40.766)">
      <path id="Path_617" data-name="Path 617" d="M70.621,353.578h9.692v5.538H70.621Zm0,0" transform="translate(-65.083 -346.655)" fill="none" stroke="#4a90e2" stroke-width="1"/>
      <path id="Path_618" data-name="Path 618" d="M282.484,266.81v4.029h9.692V265.3h-2.6Zm0,0" transform="translate(-260.332 -265.301)" fill="none" stroke="#4a90e2" stroke-width="1"/>
      <path id="Path_619" data-name="Path 619" d="M144.98,265.3h-3.738v5.538h9.692V267.1l-4.417.941a1.8,1.8,0,0,1-.332.035,1.623,1.623,0,0,1-1.419-2.374Zm0,0" transform="translate(-130.166 -265.301)" fill="none" stroke="#4a90e2" stroke-width="1"/>
      <path id="Path_620" data-name="Path 620" d="M1.385,268.07H0v2.769H9.692V265.3H0v1.385H1.385a.692.692,0,0,1,0,1.385Zm2.769-1.385H6.923a.692.692,0,0,1,0,1.385H4.154a.692.692,0,0,1,0-1.385Zm0,0" transform="translate(0 -265.301)" fill="none" stroke="#4a90e2" stroke-width="1"/>
      <path id="Path_621" data-name="Path 621" d="M211.863,353.578h9.692v5.538h-9.692Zm0,0" transform="translate(-195.249 -346.655)" fill="none" stroke="#4a90e2" stroke-width="1"/>
      <path id="Path_623" data-name="Path 623" d="M353.1,353.578h9.692v5.538H353.1Zm0,0" transform="translate(-325.411 -346.655)" fill="none" stroke="#4a90e2" stroke-width="1"/>
      <path id="Path_624" data-name="Path 624" d="M282.484,441.852h9.692v5.538h-9.692Zm0,0" transform="translate(-260.332 -428.006)" fill="none" stroke="#4a90e2" stroke-width="1"/>
      <path id="Path_625" data-name="Path 625" d="M0,441.852H9.692v5.538H0Zm0,0" transform="translate(0 -428.006)" fill="none" stroke="#4a90e2" stroke-width="1"/>
      <path id="Path_626" data-name="Path 626" d="M141.242,441.852h9.692v5.538h-9.692Zm0,0" transform="translate(-130.166 -428.006)" fill="none" stroke="#4a90e2" stroke-width="1"/>
    </g>
    <path id="Path_627" data-name="Path 627" d="M343.934,1.326a2.082,2.082,0,0,0-2.908-.415L335.315,5.2a.694.694,0,0,0-.138.969l.609.81-1.44,1.08a2.391,2.391,0,0,0-.955,2.056l.069,1.246a1.008,1.008,0,0,1-.408.865L330.5,14.133l.831,1.107,2.547-1.911a2.379,2.379,0,0,0,.955-2.049l-.069-1.246a1.029,1.029,0,0,1,.408-.872l1.44-1.08.609.81a.714.714,0,0,0,.457.27.427.427,0,0,0,.1.007.7.7,0,0,0,.415-.138l5.711-4.285a2.078,2.078,0,0,0,.415-2.908Zm-.859,2.312-5.157,3.87-.609-.81-.609-.81,5.157-3.87a.693.693,0,0,1,.969.138l.387.512a.681.681,0,0,1,.132.512A.7.7,0,0,1,343.075,3.638Zm0,0" transform="translate(-284.585 19.503)" fill="#4a90e2"/>
  </g>
</svg>
