<svg xmlns="http://www.w3.org/2000/svg" width="40" height="39.994" viewBox="0 0 40 39.994">
  <g id="tag" transform="translate(0 0)">
    <path id="Path_631" data-name="Path 631" d="M16.231.643a.667.667,0,0,0-.683-.159L4.437,4.186,1.131.88a.667.667,0,0,0-.943.943l3.43,3.43L.038,15.988A.667.667,0,0,0,.2,16.67L23.775,40.249a.667.667,0,0,0,.943,0L39.806,25.161a.667.667,0,0,0,0-.943Zm8.016,38.191L1.434,16.021,4.672,6.306,7.213,8.847A3.334,3.334,0,1,0,8.156,7.9L5.489,5.237l10.09-3.359L38.391,24.689ZM9.523,11.158a.667.667,0,0,0,.943-.943L9.137,8.886A2,2,0,0,1,11.409,12.1a2.049,2.049,0,0,1-2.829,0,1.977,1.977,0,0,1-.386-2.272Zm0,0" transform="translate(-0.001 -0.449)" fill="#4a90e2"/>
    <path id="Path_632" data-name="Path 632" d="M166.434,281.564l1.607-1.607,8.837,8.837-1.607,1.607Zm0,0" transform="translate(-151.654 -254.188)" fill="#4a90e2"/>
    <path id="Path_633" data-name="Path 633" d="M223,224.993l1.607-1.607,8.837,8.837-1.607,1.607Zm0,0" transform="translate(-203.2 -203.589)" fill="#4a90e2"/>
    <path id="Path_634" data-name="Path 634" d="M256.934,191.056l1.607-1.607,8.837,8.837-1.607,1.607Zm0,0" transform="translate(-234.117 -172.665)" fill="#4a90e2"/>
    <path id="Path_635" data-name="Path 635" d="M290.887,167.624l.8-.8,8.837,8.837-.8.8Zm0,0" transform="translate(-264.308 -152.143)" fill="#4a90e2"/>
    <path id="Path_636" data-name="Path 636" d="M200.367,258.136l.8-.8,8.837,8.837-.8.8Zm0,0" transform="translate(-182.691 -234.67)" fill="#4a90e2"/>
  </g>
</svg>
